<svg width="24" height="24" viewBox="0 0 24 24" fill="none" xmlns="http://www.w3.org/2000/svg">
    <path d="M11 5H21M11 12H21M11 19H21" stroke="black" stroke-width="2" stroke-linecap="round" stroke-linejoin="round"/>
    <path d="M6 3H4C3.44772 3 3 3.44772 3 4V6C3 6.55228 3.44772 7 4 7H6C6.55228 7 7 6.55228 7 6V4C7 3.44772 6.55228 3 6 3Z" fill="black" stroke="black" stroke-width="2" stroke-linecap="round" stroke-linejoin="round"/>
    <path d="M6 10H4C3.44772 10 3 10.4477 3 11V13C3 13.5523 3.44772 14 4 14H6C6.55228 14 7 13.5523 7 13V11C7 10.4477 6.55228 10 6 10Z" fill="black" stroke="black" stroke-width="2" stroke-linecap="round" stroke-linejoin="round"/>
    <path d="M6 17H4C3.44772 17 3 17.4477 3 18V20C3 20.5523 3.44772 21 4 21H6C6.55228 21 7 20.5523 7 20V18C7 17.4477 6.55228 17 6 17Z" fill="black" stroke="black" stroke-width="2" stroke-linecap="round" stroke-linejoin="round"/>
</svg>
