<svg width="24" height="24" viewBox="0 0 24 24" fill="none" xmlns="http://www.w3.org/2000/svg">
    <path fill-rule="evenodd" clip-rule="evenodd" d="M5 3C4.20435 3 3.44129 3.31607 2.87868 3.87868C2.31607 4.44129 2 5.20435 2 6V18C2 18.7956 2.31607 19.5587 2.87868 20.1213C3.44129 20.6839 4.20435 21 5 21H13.257C12.3322 19.8826 11.8881 18.4442 12.022 17H7C6.73478 17 6.48043 16.8946 6.29289 16.7071C6.10536 16.5196 6 16.2652 6 16C6 15.7348 6.10536 15.4804 6.29289 15.2929C6.48043 15.1054 6.73478 15 7 15H12.6C13.0414 14.1353 13.7038 13.4028 14.52 12.877C14.3253 12.7703 14.1716 12.6019 14.0832 12.3983C13.9948 12.1946 13.9767 11.9673 14.0317 11.7522C14.0867 11.5372 14.2117 11.3465 14.387 11.2103C14.5623 11.0741 14.778 11.0001 15 11H17C17.1332 11 17.2651 11.0265 17.3878 11.0782C17.5106 11.1298 17.6218 11.2054 17.715 11.3006C17.8082 11.3958 17.8813 11.5087 17.9303 11.6326C17.9792 11.7564 18.0029 11.8888 18 12.022C18.7948 12.0946 19.5642 12.3392 20.255 12.739C20.9457 13.1387 21.5411 13.684 22 14.337V6C22 5.20435 21.6839 4.44129 21.1213 3.87868C20.5587 3.31607 19.7956 3 19 3H5ZM6 8C6 7.73478 6.10536 7.48043 6.29289 7.29289C6.48043 7.10536 6.73478 7 7 7H11C11.2652 7 11.5196 7.10536 11.7071 7.29289C11.8946 7.48043 12 7.73478 12 8V12C12 12.2652 11.8946 12.5196 11.7071 12.7071C11.5196 12.8946 11.2652 13 11 13H7C6.73478 13 6.48043 12.8946 6.29289 12.7071C6.10536 12.5196 6 12.2652 6 12V8ZM8 9V11H10V9H8ZM14 8C14 7.73478 14.1054 7.48043 14.2929 7.29289C14.4804 7.10536 14.7348 7 15 7H17C17.2652 7 17.5196 7.10536 17.7071 7.29289C17.8946 7.48043 18 7.73478 18 8C18 8.26522 17.8946 8.51957 17.7071 8.70711C17.5196 8.89464 17.2652 9 17 9H15C14.7348 9 14.4804 8.89464 14.2929 8.70711C14.1054 8.51957 14 8.26522 14 8Z" fill="black"/>
    <path d="M19.2683 19.2683C19.5005 19.0362 19.6847 18.7605 19.8103 18.4572C19.936 18.1538 20.0007 17.8287 20.0007 17.5003C20.0007 17.172 19.936 16.8468 19.8103 16.5435C19.6847 16.2401 19.5005 15.9645 19.2683 15.7323C19.0362 15.5002 18.7605 15.316 18.4572 15.1903C18.1538 15.0647 17.8287 15 17.5003 15C17.172 15 16.8468 15.0647 16.5435 15.1903C16.2401 15.316 15.9645 15.5002 15.7323 15.7323C15.2634 16.2012 15 16.8372 15 17.5003C15 18.1635 15.2634 18.7994 15.7323 19.2683C16.2012 19.7372 16.8372 20.0007 17.5003 20.0007C18.1635 20.0007 18.7994 19.7372 19.2683 19.2683ZM19.2683 19.2683L21.0003 21.0003" stroke="black" stroke-width="2" stroke-linecap="round" stroke-linejoin="round"/>
</svg>
