<svg width="18" height="16" viewBox="0 0 18 16" fill="none" xmlns="http://www.w3.org/2000/svg">
    <path d="M0 4.25C0 3.25544 0.395088 2.30161 1.09835 1.59835C1.80161 0.895088 2.75544 0.5 3.75 0.5H14.25C15.2446 0.5 16.1984 0.895088 16.9016 1.59835C17.6049 2.30161 18 3.25544 18 4.25V11.75C18 12.7446 17.6049 13.6984 16.9016 14.4017C16.1984 15.1049 15.2446 15.5 14.25 15.5H3.75C2.75544 15.5 1.80161 15.1049 1.09835 14.4017C0.395088 13.6984 0 12.7446 0 11.75V4.25ZM6.75 4.73V11.27C6.75 11.645 7.161 11.8745 7.4805 11.6795L12.369 8.6915C12.4876 8.61918 12.5855 8.5176 12.6535 8.3965C12.7215 8.27541 12.7572 8.13887 12.7572 8C12.7572 7.86113 12.7215 7.72459 12.6535 7.6035C12.5855 7.4824 12.4876 7.38082 12.369 7.3085L7.479 4.322C7.40627 4.27787 7.32312 4.25386 7.23806 4.25243C7.153 4.251 7.06909 4.27221 6.99492 4.31387C6.92075 4.35553 6.85898 4.41616 6.81595 4.48954C6.77291 4.56293 6.75015 4.64493 6.75 4.73Z" fill="black"/>
</svg>
