<svg width="22" height="20" viewBox="0 0 22 20" fill="none" xmlns="http://www.w3.org/2000/svg">
    <path d="M13.0249 1.47026L14.7101 4.70276C14.8355 4.94071 15.0154 5.14558 15.2352 5.30059C15.455 5.45559 15.7084 5.55631 15.9746 5.59451L19.5341 6.08201C21.4376 6.34451 22.1756 8.69126 20.7679 9.99626L18.3304 12.2455C18.1229 12.4366 17.9671 12.6771 17.8776 12.9447C17.788 13.2122 17.7676 13.498 17.8181 13.7755L18.4129 17.074C18.7436 18.9115 16.8319 20.344 15.1541 19.504L11.7521 17.8165C11.518 17.7018 11.2606 17.6422 10.9999 17.6422C10.7391 17.6422 10.4818 17.7018 10.2476 17.8165L6.84563 19.504C5.16713 20.3365 3.25613 18.9115 3.58688 17.074L4.18163 13.7748C4.28663 13.2123 4.09163 12.6348 3.67013 12.2448L1.23188 9.99626C-0.17587 8.69876 0.56213 6.34376 2.46563 6.08126L6.02513 5.59376C6.29214 5.55795 6.54655 5.45817 6.76671 5.30291C6.98686 5.14765 7.16626 4.9415 7.28963 4.70201L8.97563 1.47026C9.83363 -0.157241 12.1736 -0.157241 13.0241 1.47026" fill="black"/>
</svg>
