<svg width="18" height="20" viewBox="0 0 18 20" fill="none" xmlns="http://www.w3.org/2000/svg">
    <path fill-rule="evenodd" clip-rule="evenodd" d="M0 3C0 2.20435 0.316071 1.44129 0.87868 0.87868C1.44129 0.316071 2.20435 0 3 0H15C15.7956 0 16.5587 0.316071 17.1213 0.87868C17.6839 1.44129 18 2.20435 18 3V19C17.9999 19.1883 17.9466 19.3728 17.8462 19.5322C17.7459 19.6916 17.6025 19.8194 17.4327 19.9009C17.2629 19.9824 17.0736 20.0143 16.8864 19.9929C16.6993 19.9715 16.522 19.8977 16.375 19.78L14.446 18.238L12.055 19.832C11.8784 19.9499 11.6688 20.0085 11.4567 19.9993C11.2445 19.9902 11.0408 19.9137 10.875 19.781L9 18.28L7.125 19.78C6.95921 19.9127 6.75549 19.9892 6.54333 19.9983C6.33118 20.0075 6.12162 19.9489 5.945 19.831L3.554 18.237L1.624 19.78C1.47696 19.8974 1.29977 19.971 1.1128 19.9922C0.925835 20.0134 0.736671 19.9815 0.567051 19.9C0.397431 19.8185 0.254239 19.6909 0.15393 19.5317C0.0536219 19.3724 0.000267866 19.1882 0 19V3ZM5 4C4.73478 4 4.48043 4.10536 4.29289 4.29289C4.10536 4.48043 4 4.73478 4 5C4 5.26522 4.10536 5.51957 4.29289 5.70711C4.48043 5.89464 4.73478 6 5 6H13C13.2652 6 13.5196 5.89464 13.7071 5.70711C13.8946 5.51957 14 5.26522 14 5C14 4.73478 13.8946 4.48043 13.7071 4.29289C13.5196 4.10536 13.2652 4 13 4H5ZM5 8C4.73478 8 4.48043 8.10536 4.29289 8.29289C4.10536 8.48043 4 8.73478 4 9C4 9.26522 4.10536 9.51957 4.29289 9.70711C4.48043 9.89464 4.73478 10 5 10H13C13.2652 10 13.5196 9.89464 13.7071 9.70711C13.8946 9.51957 14 9.26522 14 9C14 8.73478 13.8946 8.48043 13.7071 8.29289C13.5196 8.10536 13.2652 8 13 8H5ZM5 12C4.73478 12 4.48043 12.1054 4.29289 12.2929C4.10536 12.4804 4 12.7348 4 13C4 13.2652 4.10536 13.5196 4.29289 13.7071C4.48043 13.8946 4.73478 14 5 14H9C9.26522 14 9.51957 13.8946 9.70711 13.7071C9.89464 13.5196 10 13.2652 10 13C10 12.7348 9.89464 12.4804 9.70711 12.2929C9.51957 12.1054 9.26522 12 9 12H5Z" fill="black"/>
</svg>
