<svg width="253" height="253" viewBox="0 0 253 253" fill="none" xmlns="http://www.w3.org/2000/svg">
<path d="M126.5 0C151.519 0 175.977 7.4191 196.78 21.3191C217.582 35.2191 233.796 54.9757 243.371 78.0905C252.945 101.205 255.45 126.64 250.569 151.179C245.688 175.718 233.64 198.258 215.949 215.949C198.258 233.64 175.718 245.688 151.179 250.569C126.64 255.45 101.205 252.945 78.0906 243.371C54.9757 233.796 35.2191 217.582 21.3191 196.78C7.4191 175.977 3.77782e-06 151.519 0 126.5L19.4433 126.5C19.4433 147.674 25.722 168.372 37.4856 185.978C49.2491 203.583 65.9691 217.305 85.5312 225.408C105.093 233.51 126.619 235.63 147.386 231.5C168.153 227.369 187.228 217.173 202.201 202.201C217.173 187.228 227.369 168.153 231.5 147.386C235.63 126.619 233.51 105.093 225.408 85.5312C217.305 65.9691 203.583 49.2491 185.978 37.4856C168.372 25.722 147.674 19.4433 126.5 19.4433V0Z" fill="#23AFCE"/>
</svg>
