<svg width="24" height="24" viewBox="0 0 24 24" fill="none" xmlns="http://www.w3.org/2000/svg">
    <path d="M12.6851 5.00031L12 5.70284L11.315 5.00033C9.18404 2.81503 5.72912 2.81503 3.5982 5.00032C1.5245 7.12693 1.46078 10.5541 3.45393 12.7603L9.18026 19.0985C10.7015 20.7823 13.2984 20.7823 14.8197 19.0985L20.5461 12.7602C22.5392 10.5541 22.4755 7.12691 20.4018 5.00031C18.2709 2.81502 14.816 2.81502 12.6851 5.00031Z" fill="#FAFAFA"/>
    <path fill-rule="evenodd" clip-rule="evenodd" d="M16.25 6.5C16.25 6.08579 16.5858 5.75 17 5.75C18.5188 5.75 19.75 6.98122 19.75 8.5C19.75 8.91421 19.4142 9.25 19 9.25C18.5858 9.25 18.25 8.91421 18.25 8.5C18.25 7.80964 17.6904 7.25 17 7.25C16.5858 7.25 16.25 6.91421 16.25 6.5Z" fill="#FAFAFA"/>
</svg>
