<svg width="31" height="31" viewBox="0 0 31 31" fill="none" xmlns="http://www.w3.org/2000/svg">
    <rect width="31" height="31" rx="15.5" fill="#2D2D2D"/>
    <g clip-path="url(#clip0_4998_13638)">
        <path fill-rule="evenodd" clip-rule="evenodd" d="M23 15.5C23 19.6421 19.6421 23 15.5 23C11.3579 23 8 19.6421 8 15.5C8 11.3579 11.3579 8 15.5 8C19.6421 8 23 11.3579 23 15.5ZM15.7688 13.5368C15.0393 13.8402 13.5813 14.4682 11.3949 15.4208C11.0399 15.562 10.8539 15.7001 10.837 15.8352C10.8084 16.0634 11.0942 16.1533 11.4834 16.2757C11.5364 16.2923 11.5912 16.3096 11.6475 16.3279C12.0304 16.4524 12.5455 16.598 12.8133 16.6038C13.0562 16.609 13.3273 16.5089 13.6267 16.3033C15.6695 14.9244 16.724 14.2274 16.7902 14.2124C16.8369 14.2018 16.9016 14.1884 16.9455 14.2274C16.9893 14.2664 16.985 14.3402 16.9804 14.36C16.9521 14.4807 15.8301 15.5238 15.2495 16.0636C15.0684 16.2319 14.94 16.3513 14.9138 16.3785C14.855 16.4396 14.7951 16.4974 14.7375 16.5529C14.3817 16.8958 14.1149 17.153 14.7523 17.573C15.0585 17.7748 15.3036 17.9417 15.5481 18.1082C15.8151 18.2901 16.0814 18.4714 16.426 18.6973C16.5138 18.7548 16.5976 18.8146 16.6793 18.8728C16.99 19.0944 17.2692 19.2934 17.6141 19.2616C17.8145 19.2432 18.0215 19.0548 18.1267 18.4927C18.3751 17.1645 18.8635 14.2865 18.9764 13.1006C18.9863 12.9967 18.9738 12.8637 18.9638 12.8054C18.9539 12.747 18.933 12.6638 18.8571 12.6022C18.7672 12.5293 18.6285 12.514 18.5665 12.5151C18.2844 12.52 17.8516 12.6705 15.7688 13.5368Z" fill="#FAFAFA"/>
    </g>
    <defs>
        <clipPath id="clip0_4998_13638">
            <rect width="15" height="15" fill="white" transform="translate(8 8)"/>
        </clipPath>
    </defs>
</svg>
