<svg width="31" height="31" viewBox="0 0 31 31" fill="none" xmlns="http://www.w3.org/2000/svg">
    <rect width="31" height="31" rx="15.5" fill="#2D2D2D"/>
    <g clip-path="url(#clip0_4998_13634)">
        <path d="M15.5 9.35059C17.5039 9.35059 17.7412 9.35937 18.5293 9.39453C19.2617 9.42676 19.6572 9.5498 19.9209 9.65234C20.2695 9.78711 20.5215 9.95117 20.7822 10.2119C21.0459 10.4756 21.207 10.7246 21.3418 11.0732C21.4443 11.3369 21.5674 11.7354 21.5996 12.4648C21.6348 13.2559 21.6436 13.4932 21.6436 15.4941C21.6436 17.498 21.6348 17.7354 21.5996 18.5234C21.5674 19.2559 21.4443 19.6514 21.3418 19.915C21.207 20.2637 21.043 20.5156 20.7822 20.7764C20.5186 21.04 20.2695 21.2012 19.9209 21.3359C19.6572 21.4385 19.2588 21.5615 18.5293 21.5938C17.7383 21.6289 17.501 21.6377 15.5 21.6377C13.4961 21.6377 13.2588 21.6289 12.4707 21.5938C11.7383 21.5615 11.3428 21.4385 11.0791 21.3359C10.7305 21.2012 10.4785 21.0371 10.2178 20.7764C9.9541 20.5127 9.79297 20.2637 9.6582 19.915C9.55566 19.6514 9.43262 19.2529 9.40039 18.5234C9.36523 17.7324 9.35645 17.4951 9.35645 15.4941C9.35645 13.4902 9.36523 13.2529 9.40039 12.4648C9.43262 11.7324 9.55566 11.3369 9.6582 11.0732C9.79297 10.7246 9.95703 10.4727 10.2178 10.2119C10.4814 9.94824 10.7305 9.78711 11.0791 9.65234C11.3428 9.5498 11.7412 9.42676 12.4707 9.39453C13.2588 9.35937 13.4961 9.35059 15.5 9.35059ZM15.5 8C13.4639 8 13.209 8.00879 12.4092 8.04395C11.6123 8.0791 11.0645 8.20801 10.5898 8.39258C10.0947 8.58594 9.67578 8.84082 9.25977 9.25977C8.84082 9.67578 8.58594 10.0947 8.39258 10.5869C8.20801 11.0645 8.0791 11.6094 8.04395 12.4062C8.00879 13.209 8 13.4639 8 15.5C8 17.5361 8.00879 17.791 8.04395 18.5908C8.0791 19.3877 8.20801 19.9355 8.39258 20.4102C8.58594 20.9053 8.84082 21.3242 9.25977 21.7402C9.67578 22.1562 10.0947 22.4141 10.5869 22.6045C11.0645 22.7891 11.6094 22.918 12.4062 22.9531C13.2061 22.9883 13.4609 22.9971 15.4971 22.9971C17.5332 22.9971 17.7881 22.9883 18.5879 22.9531C19.3848 22.918 19.9326 22.7891 20.4072 22.6045C20.8994 22.4141 21.3184 22.1562 21.7344 21.7402C22.1504 21.3242 22.4082 20.9053 22.5986 20.4131C22.7832 19.9355 22.9121 19.3906 22.9473 18.5938C22.9824 17.7939 22.9912 17.5391 22.9912 15.5029C22.9912 13.4668 22.9824 13.2119 22.9473 12.4121C22.9121 11.6152 22.7832 11.0674 22.5986 10.5928C22.4141 10.0947 22.1592 9.67578 21.7402 9.25977C21.3242 8.84375 20.9053 8.58594 20.4131 8.39551C19.9355 8.21094 19.3906 8.08203 18.5938 8.04688C17.791 8.00879 17.5361 8 15.5 8Z" fill="#FAFAFA"/>
        <path d="M15.5 11.6484C13.373 11.6484 11.6475 13.374 11.6475 15.501C11.6475 17.6279 13.373 19.3535 15.5 19.3535C17.627 19.3535 19.3525 17.6279 19.3525 15.501C19.3525 13.374 17.627 11.6484 15.5 11.6484ZM15.5 18C14.1201 18 13.001 16.8809 13.001 15.501C13.001 14.1211 14.1201 13.002 15.5 13.002C16.8799 13.002 17.999 14.1211 17.999 15.501C17.999 16.8809 16.8799 18 15.5 18Z" fill="#FAFAFA"/>
        <path d="M20.4043 11.4951C20.4043 11.9932 20 12.3945 19.5049 12.3945C19.0068 12.3945 18.6055 11.9902 18.6055 11.4951C18.6055 10.9971 19.0098 10.5957 19.5049 10.5957C20 10.5957 20.4043 11 20.4043 11.4951Z" fill="#FAFAFA"/>
    </g>
    <defs>
        <clipPath id="clip0_4998_13634">
            <rect width="15" height="15" fill="white" transform="translate(8 8)"/>
        </clipPath>
    </defs>
</svg>
