<svg width="31" height="31" viewBox="0 0 31 31" fill="none" xmlns="http://www.w3.org/2000/svg">
    <rect width="31" height="31" rx="15.5" fill="#2D2D2D"/>
    <path d="M18.6703 8H16.1424V18.2174C16.1424 19.4348 15.1701 20.4348 13.9602 20.4348C12.7502 20.4348 11.7779 19.4348 11.7779 18.2174C11.7779 17.0217 12.7286 16.0435 13.8954 16V13.4348C11.3242 13.4783 9.25 15.587 9.25 18.2174C9.25 20.8696 11.3674 23 13.9818 23C16.5961 23 18.7135 20.8478 18.7135 18.2174V12.9782C19.6642 13.6739 20.8309 14.087 22.0625 14.1087V11.5435C20.1612 11.4783 18.6703 9.91304 18.6703 8Z" fill="#FAFAFA"/>
</svg>
