<svg width="31" height="31" viewBox="0 0 31 31" fill="none" xmlns="http://www.w3.org/2000/svg">
    <rect width="31" height="31" rx="15.5" fill="#2D2D2D"/>
    <g clip-path="url(#clip0_4998_13632)">
        <path d="M23 15.5C23 11.3579 19.6421 8 15.5 8C11.3579 8 8 11.3579 8 15.5C8 19.2434 10.7426 22.3462 14.3281 22.9089V17.668H12.4238V15.5H14.3281V13.8477C14.3281 11.968 15.4479 10.9297 17.161 10.9297C17.9813 10.9297 18.8398 11.0762 18.8398 11.0762V12.9219H17.8941C16.9625 12.9219 16.6719 13.5 16.6719 14.0938V15.5H18.752L18.4194 17.668H16.6719V22.9089C20.2574 22.3462 23 19.2434 23 15.5Z" fill="#FAFAFA"/>
    </g>
    <defs>
        <clipPath id="clip0_4998_13632">
            <rect width="15" height="15" fill="white" transform="translate(8 8)"/>
        </clipPath>
    </defs>
</svg>
