<svg width="44" height="44" viewBox="0 0 44 44" fill="none" xmlns="http://www.w3.org/2000/svg">
    <rect width="44" height="44" rx="22" fill="#2D2D2D"/>
    <path fill-rule="evenodd" clip-rule="evenodd" d="M28.5063 16.0248C28.3521 16.0065 28.1949 15.9971 28.0351 15.9971H26.6105L24.4 13.0497C24.1515 12.7183 24.2186 12.2482 24.55 11.9997C24.8814 11.7511 25.3515 11.8183 25.6 12.1497L28.5063 16.0248ZM17.3894 15.9971H15.9648C15.805 15.9971 15.6478 16.0065 15.4937 16.0248L18.4 12.1497C18.6485 11.8183 19.1186 11.7511 19.45 11.9997C19.7814 12.2482 19.8485 12.7183 19.6 13.0497L17.3894 15.9971Z" fill="#FAFAFA"/>
    <g opacity="0.4">
        <path d="M28.0351 15.9961H15.9649C13.7294 15.9961 11.9955 17.8401 12 19.9961H32C32.0045 17.8401 30.2706 15.9961 28.0351 15.9961Z" fill="#FAFAFA"/>
    </g>
    <path fill-rule="evenodd" clip-rule="evenodd" d="M30.2819 28.8051C29.9021 30.6637 28.2806 31.9971 26.4002 31.9971H17.5997C15.7194 31.9971 14.0978 30.6637 13.718 28.8051L12.0831 20.8051C12.028 20.5353 12.001 20.2673 12 20.0039L31.9999 20.0039C31.9989 20.2673 31.972 20.5353 31.9169 20.8051L30.2819 28.8051ZM17.25 23.9971C17.25 23.5829 17.5858 23.2471 18 23.2471H26C26.4142 23.2471 26.75 23.5829 26.75 23.9971C26.75 24.4113 26.4142 24.7471 26 24.7471H18C17.5858 24.7471 17.25 24.4113 17.25 23.9971ZM19 27.2466C18.5858 27.2466 18.25 27.5824 18.25 27.9966C18.25 28.4108 18.5858 28.7466 19 28.7466H25C25.4142 28.7466 25.75 28.4108 25.75 27.9966C25.75 27.5824 25.4142 27.2466 25 27.2466H19Z" fill="#FAFAFA"/>
    <circle cx="37" cy="7" r="7" fill="#FFD02C"/>
</svg>
