<svg width="44" height="44" viewBox="0 0 44 44" fill="none" xmlns="http://www.w3.org/2000/svg">
    <rect width="44" height="44" rx="22" fill="#2D2D2D"/>
    <path d="M22 31C23.385 31 24.5633 30.1652 25 29H19C19.4367 30.1652 20.615 31 22 31Z" fill="#FAFAFA"/>
    <path opacity="0.7" d="M16.2228 29H27.7772C29.6056 29 30.6492 27.1609 29.5522 25.8721C29.0666 25.3016 28.7673 24.6249 28.6867 23.9153L28.2395 19.9752C27.9984 17.8506 26.4123 16.1072 24.2699 15.3737V15.2699C24.2699 14.0163 23.2537 13 22 13C20.7463 13 19.7301 14.0163 19.7301 15.2699V15.3737C17.5877 16.1072 16.0016 17.8506 15.7605 19.9752L15.3133 23.9153C15.2327 24.6249 14.9334 25.3016 14.4478 25.8721C13.3508 27.1609 14.3944 29 16.2228 29Z" fill="#FAFAFA"/>
    <circle cx="37" cy="7" r="7" fill="#FFD02C"/>
</svg>
