<svg width="44" height="44" viewBox="0 0 44 44" fill="none" xmlns="http://www.w3.org/2000/svg">
    <rect width="44" height="44" rx="22" fill="#2D2D2D"/>
    <path opacity="0.7" d="M22.6851 15.0003L22 15.7028L21.315 15.0003C19.184 12.815 15.7291 12.815 13.5982 15.0003C11.5245 17.1269 11.4608 20.5541 13.4539 22.7603L19.1803 29.0985C20.7015 30.7823 23.2984 30.7823 24.8197 29.0985L30.5461 22.7602C32.5392 20.5541 32.4755 17.1269 30.4018 15.0003C28.2709 12.815 24.816 12.815 22.6851 15.0003Z" fill="#FAFAFA"/>
    <path fill-rule="evenodd" clip-rule="evenodd" d="M26.25 16.5C26.25 16.0858 26.5858 15.75 27 15.75C28.5188 15.75 29.75 16.9812 29.75 18.5C29.75 18.9142 29.4142 19.25 29 19.25C28.5858 19.25 28.25 18.9142 28.25 18.5C28.25 17.8096 27.6904 17.25 27 17.25C26.5858 17.25 26.25 16.9142 26.25 16.5Z" fill="#FAFAFA"/>
</svg>
