<svg width="38" height="38" viewBox="0 0 38 38" fill="none" xmlns="http://www.w3.org/2000/svg">
<rect width="38" height="38" rx="19" fill="#23AFCE"/>
<path d="M22.2421 19.75L21.8886 20.1036L20.4338 21.5583L22.2421 19.75ZM22.2421 19.75L21.8886 19.3964M22.2421 19.75L21.8886 19.3964M21.8886 19.3964L20.4407 17.9486M21.8886 19.3964L20.4407 17.9486M20.251 22C20.251 22.1655 20.3166 22.3243 20.4336 22.4414C20.5507 22.5584 20.7095 22.624 20.875 22.624C21.0405 22.624 21.1993 22.5584 21.3164 22.4414L20.251 22ZM20.251 22C20.251 21.8345 20.3166 21.6757 20.4336 21.5586L20.251 22ZM20.4407 17.9486C20.3336 17.8308 20.2753 17.6764 20.2782 17.517C20.281 17.3551 20.3466 17.2006 20.4611 17.0861C20.5756 16.9716 20.7301 16.906 20.892 16.9032C21.0514 16.9003 21.2058 16.9586 21.3236 17.0657L23.5662 19.3083L20.4407 17.9486ZM23.749 19.75C23.749 19.5845 23.6834 19.4257 23.5664 19.3086L23.749 19.75ZM23.749 19.75C23.749 19.9155 23.6834 20.0743 23.5664 20.1914L23.749 19.75ZM26.25 17.8645V17.8644C26.2499 17.5031 26.1786 17.1453 26.0402 16.8115L25.5784 17.0031L26.0402 16.8115C25.9018 16.4778 25.699 16.1747 25.4434 15.9193C25.4434 15.9193 25.4434 15.9193 25.4433 15.9192L20.5822 11.0551L20.5819 11.0548C20.0664 10.5396 19.3674 10.2502 18.6386 10.25H18.6385H14.5C13.7707 10.25 13.0712 10.5397 12.5555 11.0555C12.0397 11.5712 11.75 12.2707 11.75 13V25C11.75 25.7293 12.0397 26.4288 12.5555 26.9445C13.0712 27.4603 13.7707 27.75 14.5 27.75H23.5C24.2293 27.75 24.9288 27.4603 25.4445 26.9445C25.9603 26.4288 26.25 25.7293 26.25 25V17.8645ZM27.5 17.8644V17.8645V25C27.5 26.0609 27.0786 27.0783 26.3284 27.8284C25.5783 28.5786 24.5609 29 23.5 29H14.5C13.4391 29 12.4217 28.5786 11.6716 27.8284C10.9214 27.0783 10.5 26.0609 10.5 25V13C10.5 11.9391 10.9214 10.9217 11.6716 10.1716C12.4217 9.42143 13.4391 9 14.5 9H18.6355L18.6356 9C19.1613 8.99994 19.682 9.10353 20.1677 9.30487C20.6534 9.5062 21.0947 9.80131 21.4662 10.1733L21.4664 10.1736L26.3279 15.0351L26.328 15.0351C26.6996 15.4066 26.9944 15.8477 27.1955 16.3332C27.3966 16.8186 27.5001 17.339 27.5 17.8644ZM16.6958 22.4541L16.6898 22.4477L16.6836 22.4414L14.4338 20.1917C14.3167 20.0745 14.251 19.9156 14.251 19.75C14.251 19.5844 14.3167 19.4255 14.4338 19.3083L16.6764 17.0657C16.7942 16.9586 16.9486 16.9003 17.108 16.9032C17.2699 16.906 17.4244 16.9716 17.5389 17.0861C17.6534 17.2006 17.719 17.3551 17.7218 17.517C17.7247 17.6764 17.6664 17.8308 17.5593 17.9486L16.1114 19.3964L15.7579 19.75L16.1114 20.1036L17.5664 21.5586L17.5727 21.5648L17.5791 21.5708C17.6405 21.628 17.6898 21.697 17.724 21.7737C17.7581 21.8504 17.7765 21.9331 17.778 22.017C17.7794 22.101 17.764 22.1843 17.7326 22.2621C17.7011 22.34 17.6544 22.4107 17.595 22.47C17.5357 22.5294 17.465 22.5761 17.3871 22.6076C17.3093 22.639 17.226 22.6544 17.142 22.653C17.0581 22.6515 16.9754 22.6331 16.8987 22.599C16.822 22.5648 16.753 22.5155 16.6958 22.4541ZM23.5662 20.1917L21.3167 22.4412L23.5662 20.1917Z" fill="white" stroke="white"/>
</svg>
