<svg width="16" height="16" viewBox="0 0 16 16" fill="none" xmlns="http://www.w3.org/2000/svg">
<circle opacity="0.4" cx="8.0026" cy="8.00065" r="6.66667" fill="#2D2D2D"/>
<path d="M8.66927 4.66667C8.66927 5.03486 8.37079 5.33333 8.0026 5.33333C7.63441 5.33333 7.33594 5.03486 7.33594 4.66667C7.33594 4.29848 7.63441 4 8.0026 4C8.37079 4 8.66927 4.29848 8.66927 4.66667Z" fill="#2D2D2D"/>
<path fill-rule="evenodd" clip-rule="evenodd" d="M6.83594 6.66797C6.83594 6.39183 7.0598 6.16797 7.33594 6.16797H8.0026C8.27875 6.16797 8.5026 6.39183 8.5026 6.66797V11.3346C8.5026 11.6108 8.27875 11.8346 8.0026 11.8346C7.72646 11.8346 7.5026 11.6108 7.5026 11.3346V7.16797H7.33594C7.0598 7.16797 6.83594 6.94411 6.83594 6.66797Z" fill="#2D2D2D"/>
</svg>
