<svg width="24" height="24" viewBox="0 0 24 24" fill="none" xmlns="http://www.w3.org/2000/svg">
<path d="M8.95882 17.9992C9.43213 17.9998 9.8912 17.8373 10.2588 17.5392L15.3588 13.3292C15.5588 13.17 15.7203 12.9677 15.8313 12.7375C15.9423 12.5072 16 12.2548 16 11.9992C16 11.7436 15.9423 11.4912 15.8313 11.261C15.7203 11.0307 15.5588 10.8284 15.3588 10.6692L10.2588 6.45921C9.95179 6.21321 9.58182 6.0584 9.19109 6.01243C8.80035 5.96646 8.40456 6.03118 8.04882 6.19921C7.73965 6.33549 7.47623 6.55789 7.29004 6.83983C7.10385 7.12178 7.00275 7.45136 6.99882 7.78921V16.2092C7.00275 16.5471 7.10385 16.8767 7.29004 17.1586C7.47623 17.4405 7.73965 17.6629 8.04882 17.7992C8.3344 17.9301 8.64469 17.9983 8.95882 17.9992ZM13.8188 11.9992L8.99882 15.9992V8.08922L13.8188 11.9992Z" fill="#CFCFCF"/>
</svg>
