<svg width="604" height="486" viewBox="0 0 604 486" fill="none" xmlns="http://www.w3.org/2000/svg">
<path fill-rule="evenodd" clip-rule="evenodd" d="M348.027 486C420.469 486 483.811 432.168 448.109 358.95C412.407 285.732 544.253 288.505 583.22 237.902C630.741 176.189 618.071 -85.8676 312.999 73.8371C264.13 99.42 138.453 47.0841 96.8222 72.8367C47.8184 103.15 -21.1634 165.314 47.7821 228.898C81.7434 260.219 -39.5737 341.154 13.7543 413.972C65.7891 485.023 101.669 417.487 180.891 431.979C260.113 446.471 294.226 486 348.027 486Z" fill="#EEDCFC"/>
<path d="M264 359.625C264 359.625 280.772 352.063 287 346.589C293.228 341.115 301 327.537 301 327.537C301 327.537 385.544 388.465 441 379.68C453.777 377.656 479.412 369.615 481 354.611C485.335 313.642 424.897 302.187 438 281.411C445.998 268.729 471 287.427 471 287.427L574 339.57C574 339.57 538.396 427.294 452 430.82C345.721 435.158 264 359.625 264 359.625Z" fill="white"/>
<path fill-rule="evenodd" clip-rule="evenodd" d="M182.671 15.0452C181.704 14.6663 176.218 8.20891 169.622 7.05381C166.624 6.52891 168.906 10.0163 165.607 10.0506C155.782 10.1526 140.458 8.31124 137.501 10.0506C135.302 11.3392 140.144 15.8374 137.501 16.0441C112.564 17.994 73.4812 42.9518 65.2274 55.002C62.6006 58.8369 83.6691 53.1061 80.2843 55.002C76.4852 57.1299 72.7655 70.2128 70.2463 80.9739C68.5023 88.3843 67.6225 98.5692 67.235 108.944C66.912 117.901 66.9469 119.03 68.2388 123.927C69.7244 129.405 70.2515 130.694 72.2539 129.921C72.9645 129.663 73.2577 128.729 73.2577 126.924C73.2577 125.507 74.2964 121.736 75.2653 117.934L77.2729 110.942L78.2767 113.938C79.181 117.225 84.5384 127.505 89.3184 134.916C89.5762 135.309 90.3258 134.331 91.326 131.919C92.2375 129.721 91.7853 126.691 93.3336 122.929C96.8605 114.357 104.387 102.88 112.406 93.9599C124.257 80.7762 127.395 65.2518 138.504 53.0041C159.236 30.1476 186.293 16.4636 182.671 15.0452Z" fill="white"/>
<path fill-rule="evenodd" clip-rule="evenodd" d="M80.9516 58.0794C77.5907 60.7384 72.0002 82.6915 71.9146 83.0521C70.1521 90.4381 69.1738 116.154 70.9105 121.011C72.6472 125.867 76.9352 108.025 76.9352 108.025C76.9352 108.025 84.498 126.85 90.9927 131.998C91.2702 132.218 83.5161 108.73 80.9516 95.0389C77.5663 76.9658 82.8645 56.5661 80.9516 58.0794Z" fill="#E7EAEE"/>
<path fill-rule="evenodd" clip-rule="evenodd" d="M204.621 437.306C210.817 435.949 221.631 431.924 225.634 430.308C229.636 428.693 241.257 410.773 245.646 391.324C248.808 376.979 250.454 356.763 248.647 353.339C248.38 352.853 248.05 343.31 250.648 346.342C256.425 353.081 263.033 364.3 284.669 345.342C290.562 340.178 298.732 333.24 296.676 327.349C290.922 310.866 265.458 277.884 261.655 275.37C257.108 272.363 234.817 274.48 200.619 264.374C161.835 252.913 145.754 218.997 130.577 223.39C118.303 226.943 88.9284 249.549 81.5481 263.374C46.7055 328.646 88.9425 374.189 98.5582 387.325L107.564 391.324V399.321L108.564 404.319C109.403 414.334 109.049 415.953 113.567 419.313C124.861 427.907 147.463 435.462 167.599 438.305C176.957 439.598 196.876 438.986 204.621 437.306Z" fill="white"/>
<path fill-rule="evenodd" clip-rule="evenodd" d="M111.156 396.234L112.162 402.245C113.001 412.267 113.672 412.909 118.194 416.271C124.863 421.344 134.726 425.569 146.347 429.294C154.424 431.884 163.217 434.139 171.483 435.305C180.85 436.598 201.937 435.985 209.689 434.304C213.521 433.473 181.001 409.278 162.434 416.271C148.175 421.641 114.584 380.888 128.249 370.187C143.577 358.182 116.082 310.339 115.178 300.059C114.274 289.78 110.255 287.677 110.151 288.038C110.047 288.398 109.871 290.083 110.151 293.047C111.356 305.82 111.156 396.234 111.156 396.234Z" fill="#E7EAEE"/>
<path fill-rule="evenodd" clip-rule="evenodd" d="M107.049 297.046C108.414 296.782 109.788 297.687 110.054 299.042C114.959 324.077 136.046 341.089 173.148 349.951C210.472 358.867 234.866 358.47 248.261 348.953C249.392 348.15 249.089 355.413 248.261 355.941C239.524 361.506 209.598 369.436 174.15 361.93C128.826 352.333 107.852 314.362 105.046 300.04C104.781 298.685 105.685 297.31 107.049 297.046Z" fill="#FFB61D"/>
<path fill-rule="evenodd" clip-rule="evenodd" d="M88.3165 252.007C89.5162 251.331 134.257 302.352 195.682 313.786C257.108 325.22 272.561 317.424 274.952 301.828C275.158 300.483 276.596 299.632 277.962 299.835C279.329 300.039 280.175 301.479 279.969 302.825C276.939 322.591 248.709 327.678 195.682 318.768C143.321 309.969 106.526 288.061 87.3131 254.996C86.6267 253.815 87.1168 252.683 88.3165 252.007Z" fill="#FFB61D"/>
<path fill-rule="evenodd" clip-rule="evenodd" d="M347.963 248.87C346.308 248.287 344.136 247.354 342.99 245.863L341 242.856L347.963 235.838C358.345 225.467 365.954 215.397 372.833 202.757C375.125 198.544 380.791 184.069 380.791 182.708C380.791 182.254 381.952 180.578 382.78 178.698C384.054 175.976 385.016 175.241 387.754 173.686C391.002 171.741 395.115 171.581 396.707 172.683C399.764 174.758 399.764 180.451 396.707 191.73C393.332 204.111 388.163 213.044 378.801 225.814C377.337 227.758 374.807 232.178 372.833 234.836C367.547 241.966 363.555 245.21 358.906 247.868C354.32 250.461 352.485 250.556 347.963 248.87ZM394 242.968L399 244.97C399.998 245.428 411.265 250.844 424.54 257.225C444.843 266.983 469.844 279 470 279C470.259 279 471.726 276.256 472 272.995C472.647 265.971 475.217 256.611 478 249.974C479.294 247.01 480 243.29 480 242.968C480 242.805 478.739 242.267 476.704 241.399C474.72 240.553 472.002 239.394 469 237.963C452.693 230.167 420.947 214.324 417 211.94C413.117 209.685 412 209.457 412 210.939C412 212.872 408.041 222.121 405 226.953C403.706 229.067 401.452 232.183 399.443 234.962C398.94 235.657 398.453 236.331 398 236.962L394 242.968ZM466.425 266.93C468.255 267.975 465.198 269.664 464.433 269.915C459.926 270.293 454.833 269.428 450.485 266.93C448.084 265.252 428.594 254.29 417.024 247.783C412.63 245.312 409.378 243.483 408.64 243.05C405.961 241.478 404.105 239.573 403.659 239.07C402.319 237.372 402.884 236.765 406.648 237.08C408.91 237.269 462.474 264.673 466.425 266.93ZM205.559 436.305C211.762 434.948 222.575 430.916 226.583 429.3C230.59 427.685 242.211 409.718 246.605 390.273C249.772 375.931 251.418 355.67 249.609 352.246C248.632 350.471 253.785 355.92 258.362 360.761L258.363 360.762C260.447 362.966 262.412 365.044 263.625 366.256C291.797 394.228 334.202 416.769 377.753 427.299C399.465 432.596 415.077 434.304 435.819 434.304C470.647 434.304 497.976 427.34 522.917 412.288C524.035 411.614 525.083 410.992 526.08 410.401L526.082 410.399C534.823 405.213 539.68 402.332 553.953 386.27C569.854 368.376 584.275 326.56 588.992 312.218C591.06 305.758 596 280.604 596 274.192C596 266.6 593.612 262.864 589.993 259.181C583.596 252.915 575.141 250.464 567.968 253.177L563.964 254.178L562.963 251.176C561.477 246.008 558.734 241.268 553.953 238.167C546.845 233.451 545.333 233.163 538.936 233.163C534.177 233.163 533.175 233.635 530.327 234.976C530.197 235.037 530.063 235.1 529.925 235.165L525.921 237.166L524.92 234.164C523.434 229.383 518.776 223.083 514.908 221.155C511.478 219.445 505.03 219.386 500.893 220.154C491.846 221.834 485.521 226.284 482.872 232.162C482.097 233.971 481.258 235.165 480.87 235.165C480.547 235.165 468.023 231.876 452.838 225.158C448.581 223.268 444.75 221.576 441.306 220.056L441.296 220.052C417.671 209.621 412.286 207.244 412.793 204.143L412.82 203.978C413.258 201.292 413.553 199.481 412.793 197.138C411.436 193.133 409.178 192.135 404.784 192.135C401.335 192.135 401.391 191.883 401.767 190.193L401.781 190.133C403.848 180.249 403.978 174.738 401.781 171.12C400.294 168.73 398.779 167.698 394.773 167.117C392.447 166.794 391.351 166.697 388.766 168.118C388.26 168.38 387.721 168.67 387.209 168.945L387.208 168.945L387.208 168.945C385.953 169.62 384.853 170.211 384.761 170.119C384.632 169.99 385.052 166.313 385.763 162.114C391.061 131.04 387.254 104.478 373.749 76.0534C373.611 75.763 373.449 75.4159 373.264 75.0162C369.115 66.0819 352.75 30.8381 305.672 13.0094C303.309 12.1143 301.08 11.2471 298.939 10.4138C283.122 4.25883 272.07 -0.0420744 246.605 0.000310506C217.869 0.0481407 208.714 4.23681 189.888 12.8507L189.541 13.0094C186.892 14.2368 183.728 15.2692 183.534 15.0108L183.509 14.9696C183.294 14.6075 182.711 13.6301 181.532 13.0094C180.708 12.576 179.159 11.5043 177.643 10.4556C176.899 9.94096 176.163 9.43191 175.525 9.0066C169.968 5.25974 166.257 3.6155 164.513 4.00311C162.509 4.51992 162.509 6.22999 164.513 7.0052C165.353 7.32821 166.127 8.90908 166.515 10.0073C167.355 12.3329 168.937 11.9453 169.518 10.0073C169.777 9.29669 170.326 8.8774 170.519 9.0066C170.579 9.03658 170.738 9.14474 170.98 9.30931L170.981 9.30944L170.981 9.3095C171.782 9.85421 173.491 11.0166 175.525 12.0087C176.794 12.6276 178.048 13.2684 179.095 13.8035L179.095 13.8036C180.234 14.3855 181.128 14.8425 181.532 15.0108L181.551 15.0178C181.946 15.1615 182.205 15.2555 182.235 15.3976C182.291 15.6663 181.529 16.1072 179.326 17.3819L179.326 17.382C178.57 17.819 177.645 18.354 176.526 19.0136C152.554 33.0966 133.385 55.1202 122.465 80.0562C120.785 83.8031 119.01 86.7698 117.459 88.0618C113.518 91.3565 105.253 100.391 103.444 104.073C103.328 104.313 103.205 104.569 103.077 104.838L103.074 104.844L103.074 104.844C102.129 106.825 100.86 109.487 99.4391 111.078C97.8883 112.887 96.0161 115.112 95.4346 116.081C94.9176 117.115 94.6273 117.211 94.4334 117.082C94.3042 116.888 93.9811 113.759 94.4334 110.077C95.4027 101.485 95.2088 99.2633 94.4334 99.0695C93.2703 98.7465 92.1408 103.456 91.43 109.077C90.9131 112.5 91.107 117.789 91.43 123.086V131.092L86.4244 124.087C84.6859 121.35 83.2846 118.629 82.3764 116.866C81.9343 116.008 81.6091 115.377 81.4187 115.081C79.7387 112.626 78.7057 109.303 79.4165 108.076C79.8042 107.365 79.0615 107.075 78.4153 107.075C77.0584 107.075 75.1543 111.107 73.4097 116.081C72.5697 118.407 71.6659 120.084 71.4074 120.084C70.4382 120.084 70.3736 97.4924 71.4074 90.0632C73.5397 75.3988 79.8998 57.0402 82.4199 57.0402C82.9368 57.0402 83.421 56.4271 83.421 56.0395C83.421 54.8766 80.7734 55.5543 79.4165 57.0402C76.3795 60.3348 72.9263 70.2686 70.4063 81.0569C68.6616 88.4861 67.7906 98.6757 67.4029 109.077C67.0798 118.056 67.1117 119.177 68.404 124.087C69.8902 129.578 70.4054 130.866 72.4085 130.091C73.1193 129.833 73.4097 128.898 73.4097 127.089C73.4097 125.876 74.1621 122.95 74.9852 119.749C75.1265 119.199 75.2699 118.641 75.4119 118.083L77.4142 111.078L78.4153 114.08C79.32 117.375 84.6462 127.666 89.4278 135.095C92.2875 139.467 92.3724 140.112 93.0626 145.357L93.0627 145.357L93.063 145.359C93.1681 146.158 93.2872 147.063 93.4323 148.104C94.0138 152.561 96.2402 163.448 100.44 180.126C104.153 194.87 125.1 209.63 130.311 213.302C130.995 213.784 131.408 214.075 131.475 214.15C132.121 214.861 132.961 215.344 133.478 215.151C133.646 215.094 133.802 215.011 133.937 214.938C134.267 214.76 134.479 214.646 134.479 215.151C134.479 215.797 134.963 216.764 135.48 217.152C136.126 217.604 136.352 219.119 136.481 222.155C136.804 228.228 141.001 240.359 144.49 244.171C146.752 246.626 151.27 247.077 156.504 246.172C157.598 246.007 158.436 245.924 159.057 245.863L159.059 245.863L159.061 245.863H159.061C160.381 245.733 160.728 245.698 160.508 245.172C160.314 244.655 161.831 244.88 163.511 246.172C183.155 261.16 203.224 270.316 225.582 274.192C234.24 275.678 248.798 276.775 256.617 276.193C263.006 275.775 262.992 275.826 262.698 276.906C262.674 276.995 262.648 277.091 262.623 277.194C262.245 278.706 262.857 279.735 268.612 289.42L268.613 289.422C269.744 291.326 271.074 293.565 272.635 296.207C279.66 308.033 281.071 309.472 287.975 316.509C288.501 317.045 289.059 317.614 289.654 318.223C307.488 336.634 326.687 350.206 348.721 361.253C369.462 371.589 402.543 380.555 432.816 383.268C463.088 385.981 484.939 358.352 484.874 351.246C484.745 341.491 483.164 335.432 479.869 329.23C476.638 323.222 474.544 320.68 464.852 314.22C454.061 307.049 447.221 301.473 442.827 295.207C440.048 291.266 438.822 286.589 438.822 284.199C438.822 282.648 440.856 278.905 443.828 278.195C446.542 277.484 447.799 277.71 450.836 279.195C451.694 279.594 453.118 280.318 454.791 281.169L454.791 281.17L454.792 281.17L454.806 281.177C456.658 282.119 458.814 283.216 460.847 284.199C463.109 285.237 465.486 286.274 467.248 287.042L467.253 287.044C468.56 287.614 469.527 288.037 469.858 288.202C472.118 288.83 473.045 293.357 473.556 295.854C473.678 296.446 473.775 296.923 473.862 297.208C474.767 300.567 479.109 304.738 481.871 306.214C486.722 308.807 498.598 308.767 501.894 305.214C502.734 304.309 505.324 303.876 505.898 304.213C506.472 304.55 508.902 306.955 508.902 309.216C508.966 313.092 510.644 316.671 514.908 320.224C522.985 326.943 529.6 328.199 535.932 325.228C539.228 323.677 541.939 323.226 541.939 323.226C541.939 323.226 543.779 327.055 543.941 328.23C545.21 337.408 559.344 340.851 562.963 341.239C563.786 341.321 565.388 340.985 567.021 340.643C569.232 340.18 571.5 339.705 571.973 340.238C572.896 341.279 556.214 368.836 553.953 372.26C532.435 404.561 491.064 424.231 439.824 426.298C406.546 427.655 365.173 418.206 329.699 401.281C307.019 390.363 287.144 376.985 265.627 358.251C263.171 356.134 260.301 353.909 258.178 352.263L258.177 352.262L258.176 352.261L258.173 352.259C257.058 351.394 256.149 350.69 255.616 350.245C254.065 349.018 250.45 344.114 247.606 340.238C242.825 333.778 239.597 332.037 239.597 334.234C239.597 335.203 243.051 341.364 246.605 347.243C247.474 348.664 248.15 349.566 248.47 349.994C248.673 350.266 248.733 350.345 248.608 350.245C248.366 350.051 247.907 352.989 247.284 356.974L247.284 356.974L247.284 356.975L247.284 356.976L247.284 356.977L247.284 356.977C247.075 358.311 246.848 359.762 246.605 361.253C243.439 380.31 237.888 398.594 232.589 410.287C229.682 416.618 224.258 421.003 222.578 422.295C216.375 427.011 207.405 430.01 194.547 431.302C178.263 432.917 153.766 429.143 135.48 422.295C130.634 420.486 118.299 414.871 117.459 414.29C117.43 414.261 117.343 413.601 117.203 412.543C117.03 411.246 116.779 409.349 116.458 407.285C114.132 391.328 110.452 330.636 110.452 302.211C110.452 290.454 110.226 287.201 109.45 287.201C107.835 287.201 107.158 288.65 106.447 294.206C104.832 306.868 105.703 373.382 107.448 387.271V390.273L105.446 389.272C102.086 387.334 88.8806 374.265 84.4221 368.258C81.0128 363.618 79.2709 357.667 77.8715 352.886C77.3612 351.143 76.8965 349.555 76.4131 348.244C67.0437 322.274 70.4978 293.415 83.421 267.187C94.4057 244.835 107.698 232.166 127.471 226.158C130.702 225.189 133.154 224.415 133.478 224.157C134.705 222.994 126.794 223.801 122.465 225.158C108.379 229.486 93.4365 241.063 83.421 256.179C69.3347 277.368 62.9444 308.554 67.4029 335.234C68.4367 341.565 73.2477 355.28 74.4108 356.249C74.513 356.351 75.035 357.474 75.8252 359.175L75.8255 359.175C78.0323 363.924 82.3308 373.173 85.4232 377.264C89.171 382.367 100.729 392.853 105.446 396.277L108.449 398.279V404.283C109.289 414.296 109.933 414.933 114.456 418.293C125.764 426.884 147.356 434.463 167.516 437.306C176.885 438.598 197.805 437.985 205.559 436.305ZM424.878 375.777C387.243 372.507 341.564 354.297 308.658 326.86C294.796 315.257 276.709 292.441 269.584 279.94C269.214 279.304 268.923 278.758 268.674 278.291C267.919 276.875 267.552 276.188 266.578 275.947L266.487 275.921C266.174 275.833 265.998 275.784 266 275.744C266.003 275.694 266.295 275.661 266.961 275.585L266.961 275.584H266.962H266.962H266.962H266.963C267.822 275.486 269.304 275.317 271.588 274.949C295.101 270.974 317.248 260.779 335.709 246.997L338.715 245L339.716 246.997C341.465 251.163 347.753 254.983 352.741 254.983C354.749 254.983 361.685 252.748 365.766 249.991L368.771 247.995L370.775 249.991C372.795 251.99 373.847 251.989 377.493 251.988L377.789 251.988C382.258 251.988 386.832 249.817 389.811 246.997L391.815 245.998L395.823 248.993C397.318 250.045 400.739 251.655 404.515 253.432L404.516 253.432C406.954 254.58 409.54 255.797 411.853 256.98C420.662 261.467 430.03 266.569 438.904 271.954L439.906 272.952L438.904 274.949L438.901 274.953C437.475 276.877 434.897 280.357 434.897 285.93C434.897 292.212 441.296 304.134 453.933 311.886C463.86 317.976 480.63 329.316 479.982 346.826C479.904 348.941 477.144 355.06 473.97 359.804C471.898 362.817 466.193 367.158 460.946 369.787C452.007 374.21 436.861 376.802 424.878 375.777ZM78.9941 84.8292C80.772 85.1545 82.2325 86.5107 81.9692 86.7275C81.1132 87.4323 76.0809 86.6458 75.0274 85.7784C73.3812 84.4773 73.7144 83.3105 76.019 82.931C77.2043 82.7683 78.9981 81.8459 79.9858 81.0327C80.9735 80.2195 81.9692 79.8125 81.9692 80.0836C81.9692 80.7883 78.6569 83.338 77.0107 83.8801C75.9704 84.2549 76.4146 84.3392 78.8987 84.8111L78.9941 84.8292ZM104.025 87.399C105.743 86.3738 105.051 86.0661 103.038 86.3865C101.024 86.7069 100.748 86.5402 102.05 84.3615C102.583 83.5285 103.156 81.9648 103.038 81.3241C102.86 80.4911 102.011 81.2986 101.063 83.3491C100.352 84.8229 99.562 86.3865 99.0883 86.3865C97.6078 86.3865 97.667 86.8223 99.0883 87.399C100.924 88.232 102.604 88.168 104.025 87.399ZM82.2779 51.9662C80.7152 52.2275 75.5353 53.8262 71.2377 55.9823C69.0595 57.0261 67.1198 58.045 65.691 58.7956C64.258 59.5483 63.3388 60.0312 63.2084 59.9984C56.5666 59.2798 65.4781 48.2741 82.2779 36.9057C98.3614 25.9947 109.32 20.7692 119.413 17.8291C125.729 15.9998 132.45 15.3224 134.468 16.8251C135.575 17.6745 135.272 17.7638 130.454 17.8291C120.035 17.8291 108.903 22.7693 89.3035 35.9017C79.1455 42.6966 67.223 52.4062 67.223 53.9743C67.223 54.3009 68.8935 54.0156 71.2377 52.9702C76.2516 50.6835 81.0025 49.4354 83.2816 49.9581C85.6909 50.6115 85.5337 51.5088 82.2779 51.9662ZM106.926 57.3117C112.942 56.0855 112.941 55.9458 112.939 55.3195L112.939 55.2833C112.939 55.118 112.415 55.1521 111.521 55.2102H111.521H111.521C110.635 55.2677 109.388 55.3487 107.928 55.2833L102.917 54.2691L107.928 49.198C110.602 46.1071 113.835 42.8218 114.944 42.0984C117.357 40.5201 116.9 39.7134 114.944 39.0557H113.942L114.944 38.0415C115.857 37.7127 117.779 37.8442 118.953 38.0415C120.713 38.3046 121.153 37.948 120.957 37.0273C120.761 36.1066 120.144 35.9473 116.948 36.0131C107.623 36.1446 103.631 38.8862 110.935 40.07C112.956 40.3988 114.944 40.7554 114.944 41.0842C114.944 41.2548 114.687 41.2041 114.399 41.1474C114.244 41.1167 114.079 41.0842 113.942 41.0842C112.702 41.0842 102.217 51.6386 100.913 54.2691C98.8911 58.1491 99.9482 58.6928 106.926 57.3117ZM150.202 33.1483C148.397 33.2709 148.123 33.2899 148.247 34.1481C148.429 35.3414 148.174 35.199 146.438 34.2295L146.292 34.1481C145.96 33.9757 145.683 33.8599 145.472 33.7717C144.932 33.5464 144.823 33.5008 145.315 33.1483C145.751 32.7806 147.314 32.3325 148.247 32.1486L150.202 31.1488L149.225 30.1491C148.54 29.3522 148.061 28.3947 148.247 28.1496C148.745 27.6592 154.219 28.475 155.09 29.1493C155.463 29.4558 156.672 29.5171 157.045 29.1493C157.916 28.2912 159 28.8005 159 30.1491C159 30.8846 158.583 30.7007 158.022 30.1491L157.996 30.1228C157.775 29.9057 157.674 29.8054 157.571 29.8039C157.482 29.8026 157.393 29.8741 157.226 30.0067L157.226 30.0068C157.174 30.0484 157.114 30.0959 157.045 30.1491C156.547 30.5782 155.401 30.6395 155.09 30.1491C154.981 29.97 154.757 30.0002 154.341 30.0562C154.045 30.0961 153.652 30.1491 153.135 30.1491C152.63 30.1491 152.201 30.1238 151.852 30.1032C150.693 30.0349 150.415 30.0185 151.18 31.1488C151.236 31.2348 151.29 31.3168 151.341 31.3951C152.205 32.7127 152.376 32.9748 150.202 33.1483ZM140.108 17.4967C140.108 16.5981 140.066 13.4244 139.111 12.3876L137.115 10.344L146.094 11.3658C147.32 11.43 148.617 11.4859 149.91 11.5417C154.192 11.7264 158.447 11.9099 160.06 12.3876C162.161 12.9406 164.157 13.4094 165.048 13.4094C166.385 13.4094 166.534 12.8173 164.051 11.3658C159.722 8.94663 153.733 8.10801 143.101 7.27857C130.368 6.3109 123.935 7.90984 125.144 11.3658C125.335 12.057 126.609 12.3876 128.137 12.3876C131.257 12.3876 136.394 15.6304 138.113 17.4967C139.959 19.5011 140.108 19.5011 140.108 17.4967ZM108.999 186.002C114.297 192.733 120.727 200.411 123.998 203C125.96 204.554 127.867 206 127.998 206C128.063 206 126.829 202.625 124.998 199.001C117.607 184.437 113.026 170.704 110.999 154.004C110.541 150.314 109.784 147.299 108.999 146.005C107.429 143.415 107.364 139.177 108.999 136.005C109.849 134.322 109.999 132.336 109.999 130.006V127.006L106.999 130.006C103.925 133.178 100.999 133.948 100.999 132.006C100.999 130.582 106.448 124.143 108.999 122.006C111.026 120.324 111.345 120.056 111.999 115.007C112.089 114.404 112.189 113.708 112.298 112.953C112.737 109.897 113.317 105.862 113.999 103.008C114.914 99.4478 115.129 96.1379 114.998 96.0085C114.541 95.5554 99.0928 113.433 96.9997 119.007C96.5402 120.23 95.981 121.712 94.9999 123.006L93 125.006C93 125.006 93.4163 128.203 93.9999 132.006C94.4784 135.123 94.797 137.461 95.0747 139.498C95.5971 143.331 95.9748 146.102 96.9997 151.004C97.3802 152.934 97.7137 154.739 97.9968 156.271C98.4923 158.953 98.8331 160.797 98.9996 161.003C99.1958 161.392 100.149 164.702 100.999 168.003C102.831 175.317 106.252 182.441 108.999 186.002ZM371.006 247.857L370 246.86C370 246.86 393.081 217.464 397.156 206.972C400.266 198.966 401.727 197 404.197 197C405.578 197 406.692 197.226 407.214 197.997C408.127 199.347 408.388 201.249 407.214 206.972C405.256 216.231 403.144 222.71 394.139 235.891C392.051 238.913 389.279 241.714 388.104 242.871C385.363 245.379 378.618 248.276 375.029 248.855C372.745 249.176 372.18 249.015 371.006 247.857Z" fill="#00160A"/>
<path d="M550.179 310.989C558.219 289.14 557.565 284.448 556.17 283.992C556.17 283.992 552.535 285.318 551.178 288.992C548.657 295.889 540.43 313.765 537.198 316.988C533.386 320.791 533.088 320.988 529.21 320.988C525.333 320.988 514.757 314.73 513.234 308.989C510.798 299.804 520.964 268.799 521.222 266.995L519.225 264.995C518.062 266.091 503.175 311.915 483.279 299.99C481.001 298.625 475.678 292.408 475.291 288.992C473.137 279.065 483.596 244.128 485.276 236.998C486.78 230.617 494.618 225 504.248 225C519.047 225 516.59 237.451 523.219 241.998C526.157 244.013 531.716 241.275 533.204 240.998C541.541 239.451 544.068 241.16 550.179 245.997C554.897 249.732 558.319 256.391 562.161 258.996C564.295 260.442 566.412 258.367 567.154 257.996C570.194 256.473 577.326 257.706 579.136 258.996C581.789 260.149 588.094 266.369 589.121 269.994C593.776 286.423 578.693 323.154 573.145 329.986C563.96 341.296 542.139 332.838 550.179 310.989Z" fill="white"/>
<path fill-rule="evenodd" clip-rule="evenodd" d="M177.913 250.481C195.647 261.678 214.096 270.526 234.937 272.532C251.376 274.085 273.037 271.696 288.959 266.518C302.357 262.182 320.875 248.615 332.978 238.454C356.472 218.779 371.524 188.883 377.997 156.265C378.903 151.67 380.062 139.656 379.997 128.2C379.997 114.868 373.766 79.0463 355.987 58.039C319.319 14.7117 259.583 -4.74353 208.926 11.9331C190.652 17.9489 171.596 28.7662 156.904 43.0045C138.393 61.0612 124.325 85.0476 118.888 110.159C113.192 136.694 121.014 168.335 133.894 194.352C144.185 215.062 160.502 239.414 177.913 250.481ZM349.969 173.696C337.87 210.208 305.758 237.601 266.112 245.873C260.062 247.101 256.638 247.748 248.142 247.878C242.156 248.072 235.389 248.007 234.166 247.878C206.426 244.517 185.718 234.313 166.281 214.796C157.785 206.201 153.589 201.919 148.311 192.742C140.009 178.202 135.687 163.528 134.335 145.627C129.701 84.2986 173.635 31.6331 235.164 26.3339C259.3 24.2659 286.704 31.9074 307.042 46.3831C314.572 51.7469 327.752 65.1115 332 71.4446C333.738 73.9649 351.002 100.333 353.963 114.55C357.76 133.033 356.148 155.149 349.969 173.696Z" fill="white"/>
<path fill-rule="evenodd" clip-rule="evenodd" d="M380 128.024C380 171.433 359.487 218.725 333 238.993C320.363 248.663 303.381 260.462 289 264.986C267.925 271.615 235 270.984 235 270.984C235 270.984 269.379 266.068 282 260.987C318.191 246.414 337.801 224.466 350 203.003C374.081 160.637 380 126.97 380 128.024Z" fill="#E7EAEE"/>
<path fill-rule="evenodd" clip-rule="evenodd" d="M235.415 239.804C218.158 237.604 201.078 230.889 187.246 221.766C179.038 216.395 166.162 203.701 160.151 194.707C151.555 181.767 145.871 168.501 143.092 153.619C141.088 142.814 142.091 126.18 144.095 116.54C146.163 106.705 148.408 97.9909 153.127 88.4795C158.621 77.4799 164.471 70.1564 173.197 61.4214C188.063 46.5396 205.83 36.8883 226.383 32.3591C233.041 30.9356 256.652 29.2548 257.492 30.3548C257.686 30.6783 259.146 31.6473 260.503 32.3591C261.86 33.1355 265.558 35.7191 268.531 38.372C272.511 41.8366 274.291 44.6492 277.384 49.5372C277.757 50.1264 278.149 50.7457 278.566 51.3999C279.245 52.4608 279.905 53.483 280.512 54.4222L280.52 54.4344L280.522 54.4371C282.279 57.1566 283.584 59.1769 283.584 59.4171C283.584 60.1289 285.431 61.4214 286.594 61.4214C288.21 61.4214 289.282 56.9343 289.605 48.3935C289.799 43.6701 290.35 39.3741 290.608 39.3741C291.513 39.3741 301.007 45.2877 305.661 48.3935C314.775 54.4756 324.027 62.5139 330.749 71.4429C333.787 75.4545 334.763 77.0014 334.763 79.4601C334.763 81.7247 334.766 82.9812 336.77 86.4752C341.812 95.2748 346.421 107.317 348.812 119.546C350.363 127.763 350.428 143.009 348.812 151.615C344.417 175.296 330.688 198.802 313.689 213.748C299.276 226.365 284.622 233.982 266.524 237.8C260.319 239.159 241.167 240.516 235.415 239.804ZM188.971 195.574C189.539 194.927 190.155 193.016 189.965 192.563C189.91 192.433 189.133 192.155 187.986 191.746L187.985 191.746L187.984 191.745L187.984 191.745C185.161 190.738 180.099 188.933 178.034 186.542C169.947 177.099 166.94 168.982 165.108 154.43C163.339 140.265 164.902 130.682 168.091 115.292C169.635 107.841 173.685 101.602 176.233 97.6758C177.998 94.9562 179.042 93.3469 178.034 93.2146C177.921 93.1968 177.814 93.1797 177.711 93.1632C175.572 92.8204 175.534 92.8144 173.062 95.2216C167.502 100.654 164.779 104.942 162.125 113.285C158.019 126.35 156.982 162.597 165.108 178.514C173.234 194.431 187.518 197.256 188.971 195.574ZM282.761 139.924C281.648 149.943 277.196 164.553 271.691 170.874C269.135 173.841 259.483 178.895 251.563 177.863C243.913 176.867 236.547 173.429 231.435 165.882C227.044 159.368 224.917 150.881 223.383 140.922C220.736 123.725 232.492 103.955 237.473 98.9889C242.52 93.8934 246.975 92.0645 251.563 92C256.019 92 259.117 92.8332 263.64 95.9936C271.897 101.67 284.924 120.453 282.761 139.924ZM193.847 86.0408C195.04 84.5877 195.187 83.7624 194.829 81.0457C194.59 78.5186 194.117 77.1247 192.865 76.0507C190.658 74.1553 188.019 75.028 185.991 77.0497C185.787 77.2567 185.598 77.4355 185.424 77.6001C184.375 78.591 183.874 79.0649 184.027 82.0448C184.043 82.3782 184.056 82.6829 184.068 82.9621C184.191 85.8036 184.199 86.0044 185.991 87.0398C188.615 88.5561 191.939 88.3152 193.847 86.0408ZM223.046 54.3009C218.925 57.3127 216.154 59.3373 213.084 61.1967C208.959 63.7259 207.034 63.473 207.034 61.1967C207.034 59.9953 207.739 59.2947 210.059 57.2081L214.092 54.2167L207.034 53.2195C200.009 52.3343 193.391 50.6852 191.909 49.2309C189.46 46.765 192.007 45.972 198.967 47.2367C202.061 47.7425 207.822 48.1073 212.075 48.2338H220.142L225.184 44.2452C237.493 35.5195 249.311 30.7619 255.433 32.2795C259.235 33.1647 258.743 34.7651 254.425 35.2709C249.462 35.84 247.406 36.9447 234.258 46.2395C229.481 49.5989 225.932 52.1919 223.046 54.3009Z" fill="white"/>
<path d="M251 169.895C251 169.697 251.551 169 251.986 169C252.42 169 252.808 169.697 252.971 169.895C253.134 170.132 252.583 169.895 251.986 169.895C251.334 169.895 251 170.132 251 169.895Z" fill="white"/>
<path d="M255 168.066C255 167.184 257.005 167 258.937 167C260.456 167.08 260.249 166.943 258.937 168.066C257.419 169.429 255 169.188 255 168.066Z" fill="white"/>
<path d="M245.013 167C244.823 166.467 244.242 165.533 244.052 165C243.862 164.333 244.19 164 245.013 164C245.71 164 245.974 164.467 245.974 165C245.974 165.533 246.745 166.4 246.935 167C247.188 167.733 246.67 168 245.974 168C245.404 168 245.14 167.533 245.013 167Z" fill="white"/>
<path d="M248.078 166C247.822 163.857 248.131 163 249.973 163C250.535 163 251.663 163.786 251.868 165C252.277 167.071 251.763 168 249.973 168C249.154 168 248.231 167.643 248.078 166Z" fill="white"/>
<path d="M242.906 166.014C241.759 164.919 241.638 165.001 242.906 165.001C243.692 165.001 243.947 165.357 243.947 166.014C243.947 167.329 244.356 167.329 242.906 166.014Z" fill="white"/>
<path d="M254.228 165.925C253.604 165.233 254.376 162.482 255.144 162.162C256.536 161.577 257.601 162.66 257.889 164.044C258.081 164.843 257.985 164.931 257.889 164.985C257.505 165.464 254.516 166.245 254.228 165.925Z" fill="white"/>
<path d="M260.097 163.903C259.879 163.722 260.097 162.699 260.097 161.975C260.097 160.95 260.486 160.35 262.225 160.048C263.748 159.807 266.048 160.529 266.483 161.012C267.208 161.977 267.136 162.637 266.483 162.939C265.178 163.542 260.604 164.265 260.097 163.903Z" fill="white"/>
<path d="M239 162.049C239 161.423 239.266 160.387 239.981 160.231C241.412 159.865 241.669 159.783 241.944 161.14C242.054 161.923 242.118 162.854 240.963 162.959C239.752 163.115 239 162.832 239 162.049Z" fill="white"/>
<path d="M245.747 162.845C244.365 161.982 244.994 160 246.87 160C248.154 160 247.994 160.258 247.994 160.948C247.994 162.041 246.833 163.478 245.747 162.845Z" fill="white"/>
<path d="M247.086 159.881C246.622 158.862 248.107 158 250.021 158C250.891 158 251 158.244 251 158.94C251 159.53 250.775 160.606 250.021 160.821C248.107 161.249 247.492 160.899 247.086 159.881Z" fill="white"/>
<path d="M266.091 160.895C266.213 160.697 266.787 160 266.909 160C267.03 160 267.03 160.697 266.909 160.895C266.787 161.132 266.213 160.895 266.091 160.895C265.97 161.132 265.97 160.895 266.091 160.895Z" fill="white"/>
<path d="M253.144 159.018C252.698 157.877 253.272 157.308 255.057 157.023C256.061 156.909 256.859 157.222 256.97 158.02C257.361 159.902 253.814 160.842 253.144 159.018Z" fill="white"/>
<path d="M238.176 157.958C237.617 156.185 238.432 156 240.047 156C240.917 156 241.919 156.71 241.919 156.979C241.919 157.248 241.732 157.528 241.919 157.958C242.105 158.495 242.039 158.776 240.983 158.937C239.803 159.152 238.424 158.817 238.176 157.958Z" fill="white"/>
<path d="M259 157.047C259 155.86 259.643 155.424 261 155.094C263 154.632 264 155.914 264 158.023C264 158.881 263.929 159 262 159C259.786 159 259 158.497 259 157.047Z" fill="white"/>
<path d="M236.131 157C236.002 156.467 235.916 156 236.131 156C236.389 156 236.962 156.467 236.962 157C236.962 157.533 237.048 158 236.962 158C236.876 158 236.303 157.533 236.131 157Z" fill="white"/>
<path d="M242.438 157.758C241.465 157.198 242.243 155.312 243.494 155.097C244.259 154.968 246.453 154.968 246.662 155.097C247.496 155.57 246.649 157.499 245.606 157.758C244.285 158.059 242.995 158.102 242.438 157.758Z" fill="white"/>
<path d="M265.215 157.012C264.564 155.371 265.45 154.219 267.107 154.049C268.351 153.88 269 154.132 269 155.037C269 156.904 268.291 158 267.107 158C266.456 158 265.392 157.465 265.215 157.012Z" fill="white"/>
<path d="M247.235 156.837C246.627 156.17 247.293 154.434 248.155 154.07C249.119 153.646 251.473 155.248 250.916 155.915C250.206 156.642 247.59 157.321 247.235 156.837Z" fill="white"/>
<path d="M252.085 154.755C251.568 153.961 253.514 152 255.007 152C255.695 152 256.095 152.294 255.98 152.918C255.751 154.053 252.602 155.606 252.085 154.755Z" fill="white"/>
<path d="M234.098 154.809C234.098 154.532 234.182 153.433 234.098 152.936C234.013 152.439 233.928 152 234.098 152C234.465 152 235.256 154.367 234.918 154.809C234.777 154.974 234.098 155.14 234.098 154.809Z" fill="white"/>
<path d="M237.056 154.033C236.748 152.544 237.752 151 238.936 151C239.604 151 240.287 153.153 239.875 154.033C239.309 155.183 237.314 155.454 237.056 154.033Z" fill="white"/>
<path d="M241.363 153.888C240.558 153.001 241.196 150.398 242.269 150.102C243.074 149.866 243.653 149.985 244.082 151.049C244.404 151.817 245.096 152.823 244.989 152.942C244.452 153.474 241.685 154.302 241.363 153.888Z" fill="white"/>
<path d="M258.21 153.245C257.543 152.318 258.543 151.986 260.083 151.201C261.366 150.631 261.698 151.368 261.955 152.223C262.417 153.934 259.186 154.671 258.21 153.245Z" fill="white"/>
<path d="M264.175 151.878C263.58 150.808 264.569 150 266.117 150C267.962 150 268.755 152.282 267.088 152.817C265.302 153.352 264.592 152.614 264.175 151.878Z" fill="white"/>
<path d="M271 151.042C271 149.991 272.373 148.566 272.87 149.126C273.305 149.617 272.557 152 271.935 152C271.625 152 271 151.603 271 151.042Z" fill="white"/>
<path d="M234.076 149.799C233.926 149.626 234.038 148.525 234.076 147.89C234.076 146.792 234.561 146.618 234.898 147.89C235.273 149.276 234.525 150.493 234.076 149.799Z" fill="white"/>
<path d="M235.193 149.027C234.592 146.608 235.433 146 237.168 146C239.104 146 239.624 148.06 238.155 149.027C236.62 149.995 235.66 150.617 235.193 149.027Z" fill="white"/>
<path d="M257 148.955C257 148.764 257.632 148.036 257.977 146.888C258.782 144.339 260.506 144.403 260.909 146.888C261.081 147.845 260.966 147.858 260.909 147.922C260.621 148.304 257 149.21 257 148.955Z" fill="white"/>
<path d="M239.106 150.605C238.868 150.374 239.106 148.254 239.106 147.408C239.106 146.177 239.338 145.572 240.053 146.342C240.53 146.88 241 149.001 241 149.539C241 150.693 239.762 151.528 239.106 150.605Z" fill="white"/>
<path d="M263.068 146.017C262.678 144.253 264.003 143.829 266.017 144.056C266.992 144.17 267 144.765 267 146.017C267 147.44 266.464 147.864 265.034 147.978C263.604 148.148 263.393 147.326 263.068 146.017Z" fill="white"/>
<path d="M269.301 146.805C268.711 144.555 268.976 143.197 270.201 143.028C271.29 142.859 272 143.454 272 144.916C272 146.154 271.781 146.58 271.1 146.805C270.601 146.974 269.392 147.143 269.301 146.805Z" fill="white"/>
<path d="M233.086 144.014C233.086 142.657 232.892 141.504 233.086 142.218C233.216 142.861 233.216 145.096 233.086 145.81C232.892 146.452 233.086 145.371 233.086 144.014Z" fill="white"/>
<path d="M234.243 143.907C233.594 143.281 234.364 140.464 235.162 140.151C236.309 139.681 237 140.308 237 142.029C237 143.125 236.73 143.907 236.081 143.907C235.582 143.907 234.392 144.116 234.243 143.907Z" fill="white"/>
<path d="M238.13 142.084C237.957 141.253 237.957 140.334 238.13 140.168C238.565 139.614 239.111 140.478 238.98 142.084V144L238.13 142.084Z" fill="white"/>
<path d="M259 142.014C259 141.417 259.697 140.866 259.895 141.029C260.132 141.192 259.895 141.58 259.895 142.014C259.895 142.449 260.132 143 259.895 143C259.697 143 259 142.666 259 142.014Z" fill="white"/>
<path d="M262.194 142.915C261.478 142.243 262.888 140.463 264.066 140.194C265.55 139.88 265.476 139.801 265.937 141.101C266.244 141.908 265.397 142.736 264.066 142.915C263.247 143.05 262.348 143.005 262.194 142.915Z" fill="white"/>
<path d="M269.085 141.896C268.444 141.308 268.444 139.026 269.085 139.026C269.435 139.026 269.085 138.421 269.085 138.069C269.085 137.776 269.551 137.113 269.085 137.113C268.094 137.113 266.4 134.108 267.215 133.286C268.264 132.229 270.256 134.235 270.955 137.113C271.363 138.639 271.715 140.352 271.89 140.939C272.123 141.702 272.062 141.896 270.955 141.896C270.197 141.896 269.26 142.13 269.085 141.896Z" fill="white"/>
<path d="M272.049 138C271.634 136.105 270.017 131.779 269.246 129C268.06 124.958 267.659 124.442 268.312 124C268.727 123.684 270.002 123 270.18 123C270.833 123 273.221 135.474 272.983 138V141L272.049 138Z" fill="white"/>
<path d="M232.086 138.031C232.086 137.358 231.892 136.713 232.086 137.134C232.216 137.513 232.216 138.633 232.086 138.928C231.892 139.18 232.086 138.746 232.086 138.031Z" fill="white"/>
<path d="M234.09 138.033C234.31 135.945 236.447 135.187 236.887 137.096C237.273 138.647 236.674 139.31 235.022 139.907C233.866 140.265 233.925 139.583 234.09 138.033Z" fill="white"/>
<path d="M261.082 137.046C260.619 135.314 262.191 133.786 264.043 134.025C265.432 134.204 265.201 136.27 264.043 137.046C262.596 138.002 261.429 138.599 261.082 137.046Z" fill="white"/>
<path d="M237 136.974C237 135.943 237.235 135 237.988 135C238.672 135 239.112 135.078 238.975 135.987C238.633 137.928 237 138.854 237 136.974Z" fill="white"/>
<path d="M232.006 134.048C232.006 133.378 232.587 132.675 232.823 133.162C233.059 133.589 233.059 134.751 232.823 134.934C232.587 135.178 231.928 134.718 232.006 134.048Z" fill="white"/>
<path d="M233 133C233 132.215 233.224 132 233.992 132C234.708 132 235.086 132.372 234.983 133C234.728 134.359 233 134.307 233 133Z" fill="white"/>
<path d="M236.115 133.162C235.719 131.867 236.343 131.757 238.038 131.181C239.055 130.75 238.999 131.092 238.999 132.172C238.999 133.899 236.623 134.745 236.115 133.162Z" fill="white"/>
<path d="M260.078 132.943C259.663 131.249 260.945 130 263.019 130C264.027 130 264 130.675 264 131.962C264 132.979 263.493 133.924 263.019 133.924C262.545 133.924 261.532 133.721 261.058 133.924C260.525 134.128 260.315 133.96 260.078 132.943Z" fill="white"/>
<path d="M265.108 130.999C264.65 129.8 265.718 129 267.036 129C267.838 129 268 129.92 268 130.999C268 132.078 267.896 131.999 267.036 131.999C266.406 131.999 265.28 131.479 265.108 130.999Z" fill="white"/>
<path d="M232 131.036C232 129.64 233.25 127.412 234 128.144C234.3 128.343 235 129.208 235 130.072C235 131.135 235.049 132 234 132C233.025 132 232 131.834 232 131.036Z" fill="white"/>
<path d="M236.166 128.983C235.7 127.412 236.171 126.336 238.153 126.022C239.96 125.771 240.72 127.726 239.146 128.983C237.63 130.177 236.574 130.491 236.166 128.983Z" fill="white"/>
<path d="M259.249 130.58C258.892 130.132 258.943 126.303 259.249 126.303C259.3 126.303 260.204 125.607 261.122 125.234C262.654 124.562 263.047 125.357 262.996 127.372C262.945 128.865 262.825 130.281 262.059 130.58C260.681 131.102 259.658 131.177 259.249 130.58Z" fill="white"/>
<path d="M257 127.844C257 127.563 257.545 126.894 257.836 127.014C258.055 127.175 258.055 127.683 257.836 127.844C257.545 127.964 257 128.125 257 127.844Z" fill="white"/>
<path d="M264.037 126.024C264.231 125.092 266.445 123.642 266.897 124.081C267.09 124.245 267.656 125.312 267.85 126.024C268.302 127.12 267.752 126.996 265.944 126.996C264.394 126.996 263.844 126.682 264.037 126.024Z" fill="white"/>
<path d="M233 125.93C233 125.732 233.684 124.485 233.869 124.169C234.164 123.694 233.869 124.297 233.869 125.049C233.869 125.524 234.09 125.93 233.869 125.93C233.684 125.93 233 126.088 233 125.93Z" fill="white"/>
<path d="M235 124.664C235 122.983 235.816 122.428 237.303 123.689C238.232 124.589 238.232 125.218 237.303 125.638C235.351 126.419 235 125.864 235 124.664Z" fill="white"/>
<path d="M255.896 124.216C254.667 122.826 254.736 122.826 255.896 123.243C256.579 123.521 256.607 124.216 256.948 124.216C257.29 124.216 258 124.634 258 125.19C258 126.65 257.399 126.024 255.896 124.216Z" fill="white"/>
<path d="M240.005 124.067C237.236 121.748 237.429 117 240.005 117C241.743 117 243.228 120.317 242.971 123.058C242.778 125.588 241.55 125.332 240.005 124.067Z" fill="white"/>
<path d="M258.014 124.164C258.175 123.945 258.683 123.945 258.844 124.164C258.964 124.455 259.125 125 258.844 125C258.563 125 257.894 124.455 258.014 124.164Z" fill="white"/>
<path d="M268.073 122.021C268.274 121.375 269.037 120.207 269.037 120.064C268.703 120.064 269.037 119.92 269.037 120.064C269.437 120.064 270 121.231 270 122.021C270 122.883 269.638 123 269.037 123C268.302 123 267.806 122.811 268.073 122.021Z" fill="white"/>
<path d="M234 121.831C234 120.603 235.146 118 236.118 118C237.818 118 236.84 121.617 235.059 121.831C234.33 121.938 234 122.151 234 121.831Z" fill="white"/>
<path d="M249 121.354H247L249 120.338C250.867 119.682 252 119.961 252 121.354C252 122.174 251.933 122.256 249 121.354Z" fill="white"/>
<path d="M247 116.923C247 114.195 248.446 114.528 250.169 116.923C251.318 118.52 251.236 117.924 250.169 117.924C249.513 117.924 248.795 118.726 248.056 118.926C247.072 119.258 247 118.453 247 116.923Z" fill="white"/>
<path d="M258 118.362C255.078 117.047 253 114.31 253 110.169C253 107.211 253.247 106.692 255 105.048C256.104 103.996 257.675 103 258 103C259.429 103 264.247 108.038 266 111.193L268 114.265L266 116.314C263.532 118.943 260.857 119.677 258 118.362Z" fill="white"/>
<path d="M244.125 116.895C244.002 116.697 243.919 116 244.125 116C244.373 116 244.963 116.697 244.963 116.895C244.963 117.132 245.046 116.895 244.963 116.895C244.84 116.895 244.249 117.132 244.125 116.895Z" fill="white"/>
<path d="M236.092 116.062C236.254 115.383 237.04 114.218 237.04 114.067C237.04 113.916 237.392 114.067 237.987 114.067C239.338 114.067 239.338 115.006 237.987 116.062C236.528 117.117 235.714 117.494 236.092 116.062Z" fill="white"/>
<path d="M240.305 115.923C239.092 115.743 238.591 114.616 239.382 114.076C239.593 113.896 241.203 113.392 242.153 113.153C243.577 112.793 244 113.057 244 114.076C244 115.335 242.204 116.283 240.305 115.923Z" fill="white"/>
<path d="M246.078 113.027C246.078 112.137 245.903 111.892 246.078 112.04C246.166 112.189 246.53 113.272 247.144 114.013C248.196 115.051 248.371 115 247.144 115C246.267 115 246.078 114.065 246.078 113.027Z" fill="white"/>
<path d="M237 112.023C237 111.583 237.697 111.266 237.895 111.046C238.132 110.826 237.895 111.436 237.895 112.023C237.895 112.683 238.132 113 237.895 113C237.697 113 237 112.39 237 112.023Z" fill="white"/>
<path d="M239.034 111.824C238.56 110.192 243.163 109.235 243.873 110.785C244.407 112.091 243.221 112.21 240.97 112.863C239.608 113.271 239.271 112.722 239.034 111.824Z" fill="white"/>
<path d="M245.006 110.048C245.006 109.378 245.587 108.675 245.823 109.162C246.059 109.589 246.059 110.751 245.823 110.934C245.587 111.178 244.928 110.718 245.006 110.048Z" fill="white"/>
<path d="M240.243 107.949C241.059 106.679 244.877 105 245.49 105C246.17 105 246.17 107.603 245.49 107.949C245.15 108.065 242.313 108.702 241.292 108.932C239.796 109.221 239.835 108.527 240.243 107.949Z" fill="white"/>
<path d="M245.188 107.082C244.539 105.179 245.667 104.358 247.082 104.104C248.557 103.787 248.026 104.123 247.082 106.09C245.903 108.627 245.66 108.287 245.188 107.082Z" fill="white"/>
<path d="M245 103.8C245 103.675 246.317 102.794 248.11 101.919C250.261 100.795 251.181 99.7886 252.256 100.038C253.547 100.413 253.338 100.607 250.183 101.919C246.67 103.293 245 104.487 245 103.8Z" fill="white"/>
<path d="M279.859 45C278.192 42.4929 274.536 38.4429 272.006 36C269.475 33.5571 267.585 32 268.079 32C269.437 32 280.212 34.8429 282.804 36C284.964 36.9643 285.323 37.0071 284.767 39C284.459 40.1571 283.786 43.6214 283.786 46C283.786 48.4429 284.033 50 283.786 50C283.477 50 281.587 47.5071 279.859 45Z" fill="white"/>
<path d="M149.006 240.983C146.364 239.634 146.403 238.557 143.053 231.94C138.221 222.561 137.487 220.579 142.061 225.911C143.865 228.031 148.696 231.742 151.982 234.954C157.587 240.351 157.819 241.24 155.95 240.983C154.597 240.79 153.644 240.469 153.966 240.983C154.739 242.139 152.098 242.525 149.006 240.983Z" fill="white"/>
<path fill-rule="evenodd" clip-rule="evenodd" d="M257.16 359.546C256.694 358.32 257.693 356.376 258.939 355.802L260.329 355.632C273.572 349.443 281.738 345.283 287.029 339.674C292.32 334.064 293.385 325.994 294.529 321.124C294.844 319.787 297.531 321.796 298.823 322.01C300.116 322.224 301.53 323.908 301.216 325.244C299.84 331.099 296.626 336.499 291.446 341.956C286.283 347.394 275.387 354.505 260.821 361.215C259.575 361.789 257.627 360.772 257.16 359.546Z" fill="#00160A"/>
<path fill-rule="evenodd" clip-rule="evenodd" d="M319.016 101.316C320.196 100.616 321.31 101.137 322.013 102.314C329.048 114.098 333 128.191 333 142.206C333 184.668 298.675 219 256.088 219C244.771 219 233.176 216.655 223.125 212.019C221.879 211.444 217.383 207.164 222.126 209.027C226.87 210.889 245.497 215.011 256.088 215.011C295.927 215.011 324.01 181.928 324.01 142.206C324.01 129.09 318.882 117.281 318.017 105.306C317.917 103.917 317.835 102.017 319.016 101.316Z" fill="#00160A"/>
<path fill-rule="evenodd" clip-rule="evenodd" d="M72.7354 290.241C73.6246 289.199 74.6869 287.358 75.7545 288.226C80.1343 291.787 84.8445 296.497 89.844 297.293C95.0464 298.122 100.826 298.136 107.959 297.293C109.338 297.13 110.811 297.962 110.978 299.308C111.145 300.655 110.345 301.16 108.965 301.323C101.39 302.218 94.5469 302.233 88.8376 301.323C82.9253 300.382 77.7878 298.379 72.7354 294.271C71.6677 293.403 71.8461 291.283 72.7354 290.241Z" fill="#00160A"/>
<path d="M123.998 203C120.727 200.411 114.297 192.733 108.999 186.002C106.252 182.441 102.831 175.317 100.999 168.003C100.149 164.702 99.1958 161.392 98.9996 161.003C98.7379 160.68 98.0462 156.312 96.9997 151.004C95.4299 143.496 95.3785 140.987 93.9999 132.006C93.4163 128.203 93 125.006 93 125.006L94.9999 123.006C95.981 121.712 96.5402 120.23 96.9997 119.007C99.0927 113.433 114.541 95.5554 114.998 96.0085C115.129 96.1379 114.914 99.4478 113.999 103.008C113.148 106.568 112.457 111.965 111.999 115.007C111.345 120.056 111.026 120.324 108.999 122.006C106.448 124.143 100.999 130.582 100.999 132.006C100.999 133.948 103.925 133.178 106.999 130.006L109.999 127.006V130.006C109.999 132.336 109.849 134.322 108.999 136.005C107.364 139.177 107.429 143.415 108.999 146.005C109.784 147.299 110.541 150.314 110.999 154.004C113.026 170.704 117.607 184.437 124.998 199.001C126.829 202.625 128.063 206 127.998 206C127.867 206 125.96 204.554 123.998 203Z" fill="white"/>
<path fill-rule="evenodd" clip-rule="evenodd" d="M392 242.968L397 244.97C397.998 245.428 409.265 250.844 422.54 257.225C442.843 266.983 467.843 279 468 279C468.259 279 469.726 276.256 470 272.995C470.647 265.971 473.217 256.611 476 249.974C477.294 247.01 478 243.29 478 242.968C478 242.805 476.739 242.267 474.704 241.399C472.72 240.553 470.002 239.394 467 237.963C450.693 230.167 418.947 214.324 415 211.94C411.117 209.685 410 209.457 410 210.939C410 212.872 406.041 222.121 403 226.953C401.706 229.067 399.452 232.183 397.443 234.962C396.94 235.657 396.453 236.331 396 236.962L392 242.968ZM464.425 266.93C466.255 267.976 463.198 269.664 462.433 269.915C457.926 270.293 452.833 269.428 448.485 266.93C446.084 265.252 426.594 254.29 415.024 247.783C410.63 245.312 407.378 243.483 406.64 243.05C403.961 241.478 402.105 239.573 401.659 239.07C400.319 237.372 400.884 236.765 404.648 237.08C406.91 237.269 460.474 264.673 464.425 266.93Z" fill="white"/>
<path fill-rule="evenodd" clip-rule="evenodd" d="M408.02 216.957C409.32 213.964 410.019 211.892 410.019 210.948C410.019 209.456 411.148 209.679 415.018 211.949C418.952 214.349 450.752 230.14 467.003 237.989C473.065 240.908 478 242.672 478 242.997C478 243.321 406.641 220.13 408.02 216.957Z" fill="#E7EAEE"/>
<path d="M345.963 248.87C344.308 248.287 342.136 247.354 340.99 245.863L339 242.856L345.963 235.838C356.345 225.467 363.954 214.395 370.833 201.755C373.125 197.541 379.952 180.578 380.78 178.698C382.054 175.976 383.016 175.241 385.754 173.686C389.002 171.741 393.115 171.581 394.707 172.683C397.764 174.758 397.764 180.451 394.707 191.73C391.332 204.111 386.163 213.044 376.801 225.814C375.337 227.758 372.807 232.178 370.833 234.836C365.547 241.966 361.555 245.21 356.906 247.868C352.32 250.461 350.485 250.556 345.963 248.87Z" fill="white"/>
<path d="M370.006 247.857L369 246.86C369 246.86 392.081 217.464 396.156 206.972C399.266 198.966 400.727 197 403.197 197C404.578 197 405.692 197.226 406.214 197.997C407.127 199.347 407.388 201.249 406.214 206.972C404.256 216.231 402.144 222.71 393.139 235.891C391.051 238.913 388.279 241.714 387.104 242.871C384.363 245.379 377.618 248.276 374.029 248.855C371.745 249.176 371.18 249.015 370.006 247.857Z" fill="white"/>
<path fill-rule="evenodd" clip-rule="evenodd" d="M187.279 223.577C178.98 218.191 167.254 205.547 161.177 196.527C152.487 183.549 145.917 168.374 143.107 153.448C141.081 142.611 142.085 126.049 144.111 116.38C146.202 106.516 148.376 98.87 153.146 89.3307C158.7 78.2988 164.403 70.0398 173.224 61.2792C181.875 52.6883 143.606 87.879 153.146 151.445C160.791 204.712 193.214 227.46 187.279 223.577Z" fill="#E7EAEE"/>
</svg>
