<svg width="120" height="100" viewBox="0 0 120 100" fill="none" xmlns="http://www.w3.org/2000/svg">
    <g filter="url(#filter0_dd_6437_16379)">
        <rect x="28" y="18" width="64" height="44" rx="22" fill="#2D2D2D"/>
        <path d="M61.54 45.9992C61.0666 45.9998 60.6076 45.8373 60.24 45.5392L55.14 41.3292C54.94 41.17 54.7785 40.9677 54.6674 40.7375C54.5564 40.5072 54.4988 40.2548 54.4988 39.9992C54.4988 39.7436 54.5564 39.4912 54.6674 39.261C54.7785 39.0307 54.94 38.8284 55.14 38.6692L60.24 34.4592C60.547 34.2132 60.917 34.0584 61.3077 34.0124C61.6984 33.9665 62.0942 34.0312 62.45 34.1992C62.7591 34.3355 63.0225 34.5579 63.2087 34.8398C63.3949 35.1218 63.496 35.4514 63.5 35.7892V44.2092C63.496 44.5471 63.3949 44.8767 63.2087 45.1586C63.0225 45.4405 62.7591 45.6629 62.45 45.7992C62.1644 45.9301 61.8541 45.9983 61.54 45.9992ZM56.68 39.9992L61.5 43.9992V36.0892L56.68 39.9992Z" fill="#FAFAFA"/>
    </g>
    <defs>
        <filter id="filter0_dd_6437_16379" x="0" y="0" width="120" height="100" filterUnits="userSpaceOnUse" color-interpolation-filters="sRGB">
            <feFlood flood-opacity="0" result="BackgroundImageFix"/>
            <feColorMatrix in="SourceAlpha" type="matrix" values="0 0 0 0 0 0 0 0 0 0 0 0 0 0 0 0 0 0 127 0" result="hardAlpha"/>
            <feMorphology radius="4" operator="erode" in="SourceAlpha" result="effect1_dropShadow_6437_16379"/>
            <feOffset dy="10"/>
            <feGaussianBlur stdDeviation="16"/>
            <feColorMatrix type="matrix" values="0 0 0 0 0.0941176 0 0 0 0 0.152941 0 0 0 0 0.294118 0 0 0 0.1 0"/>
            <feBlend mode="normal" in2="BackgroundImageFix" result="effect1_dropShadow_6437_16379"/>
            <feColorMatrix in="SourceAlpha" type="matrix" values="0 0 0 0 0 0 0 0 0 0 0 0 0 0 0 0 0 0 127 0" result="hardAlpha"/>
            <feMorphology radius="6" operator="erode" in="SourceAlpha" result="effect2_dropShadow_6437_16379"/>
            <feOffset dy="6"/>
            <feGaussianBlur stdDeviation="7"/>
            <feColorMatrix type="matrix" values="0 0 0 0 0.0941176 0 0 0 0 0.152941 0 0 0 0 0.294118 0 0 0 0.12 0"/>
            <feBlend mode="normal" in2="effect1_dropShadow_6437_16379" result="effect2_dropShadow_6437_16379"/>
            <feBlend mode="normal" in="SourceGraphic" in2="effect2_dropShadow_6437_16379" result="shape"/>
        </filter>
    </defs>
</svg>
