<svg width="178" height="49" viewBox="0 0 178 49" fill="none" xmlns="http://www.w3.org/2000/svg">
    <rect width="42" height="49" rx="5" fill="#FFD02C"/>
    <path d="M16.096 24.432L15.088 33H10.816L13.528 15.36L20.68 25.608L27.856 15.36L30.568 33H26.296L25.288 24.432L20.68 31.44L16.096 24.432Z" fill="white"/>
    <rect x="47" width="42" height="49" rx="5" fill="#2D2D2D"/>
    <path d="M63.096 24.432L62.088 33H57.816L60.528 15.36L67.68 25.608L74.856 15.36L77.568 33H73.296L72.288 24.432L67.68 31.44L63.096 24.432Z" fill="white"/>
    <path d="M105.096 14.432L104.088 23H99.816L102.528 5.36L109.68 15.608L116.856 5.36L119.568 23H115.296L114.288 14.432L109.68 21.44L105.096 14.432ZM122.151 6.2H126.279V23H122.151V6.2ZM141.431 6.2H145.343V23.84L133.727 13.544V23H129.839V5.36L141.431 15.656V6.2ZM148.893 6.2H153.069V23H148.893V6.2ZM154.893 23H151.581V19.4H154.749C155.389 19.4 156.005 19.32 156.597 19.16C157.205 19 157.733 18.736 158.181 18.368C158.645 18 159.013 17.512 159.285 16.904C159.557 16.28 159.693 15.512 159.693 14.6C159.693 13.688 159.557 12.928 159.285 12.32C159.013 11.696 158.645 11.2 158.181 10.832C157.733 10.464 157.205 10.2 156.597 10.04C156.005 9.88 155.389 9.8 154.749 9.8H151.581V6.2H154.893C156.733 6.2 158.325 6.544 159.669 7.232C161.013 7.92 162.053 8.888 162.789 10.136C163.525 11.384 163.893 12.872 163.893 14.6C163.893 16.312 163.525 17.8 162.789 19.064C162.053 20.312 161.013 21.28 159.669 21.968C158.325 22.656 156.733 23 154.893 23Z" fill="black"/>
    <path d="M117.264 35.896V43H113.616V36.28C113.616 35.608 113.504 35.104 113.28 34.768C113.072 34.416 112.72 34.24 112.224 34.24C111.904 34.24 111.616 34.32 111.36 34.48C111.12 34.624 110.928 34.848 110.784 35.152C110.656 35.456 110.592 35.832 110.592 36.28V43H106.944V36.28C106.944 35.608 106.832 35.104 106.608 34.768C106.4 34.416 106.048 34.24 105.552 34.24C105.232 34.24 104.944 34.32 104.688 34.48C104.448 34.624 104.256 34.848 104.112 35.152C103.984 35.456 103.92 35.832 103.92 36.28V43H100.416V31.96H103.92V33.592C104.224 33 104.64 32.536 105.168 32.2C105.712 31.864 106.36 31.696 107.112 31.696C107.976 31.696 108.664 31.856 109.176 32.176C109.688 32.48 110.056 32.928 110.28 33.52C110.68 32.944 111.176 32.496 111.768 32.176C112.36 31.856 113.032 31.696 113.784 31.696C114.648 31.696 115.328 31.864 115.824 32.2C116.336 32.52 116.704 32.992 116.928 33.616C117.152 34.24 117.264 35 117.264 35.896ZM125.72 43.24C124.44 43.24 123.328 43.008 122.384 42.544C121.456 42.064 120.736 41.392 120.224 40.528C119.712 39.664 119.456 38.648 119.456 37.48C119.456 36.296 119.704 35.272 120.2 34.408C120.696 33.544 121.408 32.88 122.336 32.416C123.28 31.952 124.392 31.72 125.672 31.72C126.952 31.72 128.032 31.944 128.912 32.392C129.792 32.824 130.464 33.456 130.928 34.288C131.392 35.12 131.624 36.128 131.624 37.312C131.624 37.488 131.624 37.664 131.624 37.84C131.624 38 131.608 38.136 131.576 38.248H121.496V36.232H128.312L127.448 37.336C127.528 37.224 127.592 37.088 127.64 36.928C127.704 36.752 127.736 36.608 127.736 36.496C127.736 36.016 127.648 35.6 127.472 35.248C127.296 34.896 127.048 34.624 126.728 34.432C126.408 34.24 126.032 34.144 125.6 34.144C125.056 34.144 124.6 34.264 124.232 34.504C123.864 34.744 123.584 35.112 123.392 35.608C123.216 36.088 123.12 36.696 123.104 37.432C123.104 38.104 123.2 38.68 123.392 39.16C123.584 39.64 123.872 40.008 124.256 40.264C124.64 40.504 125.112 40.624 125.672 40.624C126.312 40.624 126.856 40.504 127.304 40.264C127.768 40.024 128.136 39.664 128.408 39.184L131.648 39.976C131.072 41.064 130.288 41.88 129.296 42.424C128.32 42.968 127.128 43.24 125.72 43.24ZM141.037 36.28C141.037 35.624 140.909 35.12 140.653 34.768C140.413 34.416 140.005 34.24 139.429 34.24C139.045 34.24 138.709 34.32 138.421 34.48C138.133 34.64 137.909 34.872 137.749 35.176C137.589 35.48 137.509 35.848 137.509 36.28V43H133.861V31.96H137.509V33.616C137.829 33.008 138.261 32.536 138.805 32.2C139.365 31.864 140.053 31.696 140.869 31.696C142.245 31.696 143.245 32.064 143.869 32.8C144.493 33.536 144.805 34.568 144.805 35.896V43H141.037V36.28ZM146.37 31.96H153.762V34.96H146.37V31.96ZM148.314 28.12H151.794V43H148.314V28.12ZM154.659 37.48C154.659 36.312 154.931 35.296 155.475 34.432C156.019 33.568 156.771 32.896 157.731 32.416C158.691 31.936 159.771 31.696 160.971 31.696C162.171 31.696 163.243 31.936 164.187 32.416C165.147 32.896 165.899 33.568 166.443 34.432C167.003 35.296 167.283 36.312 167.283 37.48C167.283 38.632 167.003 39.64 166.443 40.504C165.899 41.368 165.147 42.04 164.187 42.52C163.243 43 162.171 43.24 160.971 43.24C159.771 43.24 158.691 43 157.731 42.52C156.771 42.04 156.019 41.368 155.475 40.504C154.931 39.64 154.659 38.632 154.659 37.48ZM158.379 37.48C158.379 38.056 158.499 38.552 158.739 38.968C158.979 39.368 159.291 39.68 159.675 39.904C160.059 40.128 160.491 40.24 160.971 40.24C161.435 40.24 161.859 40.128 162.243 39.904C162.643 39.68 162.955 39.368 163.179 38.968C163.419 38.552 163.539 38.056 163.539 37.48C163.539 36.904 163.419 36.408 163.179 35.992C162.955 35.576 162.643 35.256 162.243 35.032C161.859 34.808 161.435 34.696 160.971 34.696C160.491 34.696 160.059 34.808 159.675 35.032C159.291 35.256 158.979 35.576 158.739 35.992C158.499 36.408 158.379 36.904 158.379 37.48ZM173.039 31.96V43H169.463V31.96H173.039ZM176.231 35.704C176.039 35.512 175.831 35.36 175.607 35.248C175.399 35.136 175.135 35.08 174.815 35.08C174.463 35.08 174.151 35.176 173.879 35.368C173.607 35.56 173.399 35.84 173.255 36.208C173.111 36.576 173.039 37.024 173.039 37.552L172.175 36.28C172.175 35.4 172.343 34.616 172.679 33.928C173.031 33.24 173.487 32.696 174.047 32.296C174.607 31.896 175.191 31.696 175.799 31.696C176.199 31.696 176.583 31.776 176.951 31.936C177.319 32.096 177.599 32.32 177.791 32.608L176.231 35.704Z" fill="black"/>
</svg>
