<svg width="60" height="60" viewBox="0 0 60 60" fill="none" xmlns="http://www.w3.org/2000/svg">
    <rect width="60" height="60" rx="20" fill="white"/>
    <path opacity="0.4" d="M15 39V24H45V39C45 42.3137 42.3137 45 39 45H21C17.6863 45 15 42.3137 15 39Z" fill="#2D2D2D"/>
    <path fill-rule="evenodd" clip-rule="evenodd" d="M21 15H39C42.3137 15 45 17.6863 45 21V24H15V21C15 17.6863 17.6863 15 21 15ZM40.5 19.5C40.5 20.3284 39.8284 21 39 21C38.1716 21 37.5 20.3284 37.5 19.5C37.5 18.6716 38.1716 18 39 18C39.8284 18 40.5 18.6716 40.5 19.5ZM33 21C33.8284 21 34.5 20.3284 34.5 19.5C34.5 18.6716 33.8284 18 33 18C32.1716 18 31.5 18.6716 31.5 19.5C31.5 20.3284 32.1716 21 33 21Z" fill="#2D2D2D"/>
</svg>
