<svg width="16" height="16" viewBox="0 0 16 16" fill="none" xmlns="http://www.w3.org/2000/svg">
<path fill-rule="evenodd" clip-rule="evenodd" d="M1.33301 4C1.33301 3.46957 1.54372 2.96086 1.91879 2.58579C2.29387 2.21071 2.80257 2 3.33301 2H12.6663C13.1968 2 13.7055 2.21071 14.0806 2.58579C14.4556 2.96086 14.6663 3.46957 14.6663 4V10.6667C14.6663 11.1971 14.4556 11.7058 14.0806 12.0809C13.7055 12.456 13.1968 12.6667 12.6663 12.6667H5.11101C4.96676 12.6667 4.82641 12.7135 4.71101 12.8L2.39967 14.5333C2.30063 14.6076 2.18285 14.6529 2.05954 14.664C1.93624 14.6751 1.81227 14.6517 1.70153 14.5963C1.59079 14.5409 1.49766 14.4558 1.43257 14.3505C1.36748 14.2452 1.33301 14.1238 1.33301 14V4ZM4.66634 4C4.48953 4 4.31996 4.07024 4.19494 4.19526C4.06991 4.32029 3.99967 4.48986 3.99967 4.66667C3.99967 4.84348 4.06991 5.01305 4.19494 5.13807C4.31996 5.2631 4.48953 5.33333 4.66634 5.33333H11.333C11.5098 5.33333 11.6794 5.2631 11.8044 5.13807C11.9294 5.01305 11.9997 4.84348 11.9997 4.66667C11.9997 4.48986 11.9294 4.32029 11.8044 4.19526C11.6794 4.07024 11.5098 4 11.333 4H4.66634ZM4.66634 6.66667C4.48953 6.66667 4.31996 6.7369 4.19494 6.86193C4.06991 6.98695 3.99967 7.15652 3.99967 7.33333C3.99967 7.51014 4.06991 7.67971 4.19494 7.80474C4.31996 7.92976 4.48953 8 4.66634 8H11.333C11.5098 8 11.6794 7.92976 11.8044 7.80474C11.9294 7.67971 11.9997 7.51014 11.9997 7.33333C11.9997 7.15652 11.9294 6.98695 11.8044 6.86193C11.6794 6.7369 11.5098 6.66667 11.333 6.66667H4.66634ZM4.66634 9.33333C4.48953 9.33333 4.31996 9.40357 4.19494 9.5286C4.06991 9.65362 3.99967 9.82319 3.99967 10C3.99967 10.1768 4.06991 10.3464 4.19494 10.4714C4.31996 10.5964 4.48953 10.6667 4.66634 10.6667H7.33301C7.50982 10.6667 7.67939 10.5964 7.80441 10.4714C7.92944 10.3464 7.99967 10.1768 7.99967 10C7.99967 9.82319 7.92944 9.65362 7.80441 9.5286C7.67939 9.40357 7.50982 9.33333 7.33301 9.33333H4.66634Z" fill="#6F6D73"/>
</svg>
