<svg width="24" height="24" viewBox="0 0 24 24" fill="none" xmlns="http://www.w3.org/2000/svg">
<path d="M13.5412 17.9992C13.0679 17.9998 12.6088 17.8373 12.2412 17.5392L7.14118 13.3292C6.94119 13.17 6.77967 12.9677 6.66866 12.7375C6.55765 12.5072 6.5 12.2548 6.5 11.9992C6.5 11.7436 6.55765 11.4912 6.66866 11.261C6.77967 11.0307 6.94119 10.8284 7.14118 10.6692L12.2412 6.45921C12.5482 6.21321 12.9182 6.0584 13.3089 6.01243C13.6996 5.96646 14.0954 6.03118 14.4512 6.19921C14.7604 6.33549 15.0238 6.55789 15.21 6.83983C15.3961 7.12178 15.4972 7.45136 15.5012 7.78921V16.2092C15.4972 16.5471 15.3961 16.8767 15.21 17.1586C15.0238 17.4405 14.7604 17.6629 14.4512 17.7992C14.1656 17.9301 13.8553 17.9983 13.5412 17.9992ZM8.68118 11.9992L13.5012 15.9992V8.08922L8.68118 11.9992Z" fill="black"/>
</svg>
