<svg width="32" height="32" viewBox="0 0 32 32" fill="none" xmlns="http://www.w3.org/2000/svg">
<rect width="32" height="32" rx="16" fill="#FAFAFA"/>
<path opacity="0.4" d="M18.8289 10.3436C19.6099 9.56255 20.8763 9.56255 21.6573 10.3436C22.4384 11.1246 22.4384 12.391 21.6573 13.172L13.172 21.6573C12.391 22.4384 11.1246 22.4384 10.3436 21.6573C9.56255 20.8763 9.56255 19.6099 10.3436 18.8289L18.8289 10.3436Z" fill="#2D2D2D"/>
<path d="M21.6573 18.8289C22.4384 19.6099 22.4384 20.8763 21.6573 21.6573C20.8763 22.4384 19.6099 22.4384 18.8289 21.6573L10.3436 13.172C9.56255 12.391 9.56255 11.1246 10.3436 10.3436C11.1246 9.56255 12.391 9.56255 13.172 10.3436L21.6573 18.8289Z" fill="#2D2D2D"/>
</svg>
