<svg width="114" height="190" viewBox="0 0 114 190" fill="none" xmlns="http://www.w3.org/2000/svg">
<path d="M45.41 34.592C45.41 36.328 45.06 37.826 44.36 39.086C43.688 40.346 42.764 41.382 41.588 42.194C40.44 43.006 39.166 43.608 37.766 44C36.394 44.364 34.994 44.546 33.566 44.546C31.774 44.546 30.15 44.364 28.694 44C27.238 43.664 25.95 43.216 24.83 42.656C23.71 42.068 22.688 41.424 21.764 40.724L24.536 34.886C25.348 35.558 26.174 36.132 27.014 36.608C27.882 37.056 28.75 37.42 29.618 37.7C30.486 37.952 31.27 38.078 31.97 38.078C33.174 38.078 34.196 37.924 35.036 37.616C35.876 37.308 36.52 36.832 36.968 36.188C37.416 35.544 37.64 34.76 37.64 33.836C37.64 32.856 37.36 32.072 36.8 31.484C36.268 30.868 35.568 30.42 34.7 30.14C33.86 29.86 32.95 29.72 31.97 29.72C31.214 29.72 30.374 29.776 29.45 29.888C28.554 29.972 27.616 30.154 26.636 30.434C25.684 30.686 24.704 31.064 23.696 31.568L27.812 14.6H44.78V20.732H33.02L31.34 25.982C32.124 25.618 32.936 25.366 33.776 25.226C34.644 25.058 35.54 24.974 36.464 24.974C38.032 24.974 39.488 25.352 40.832 26.108C42.204 26.864 43.31 27.956 44.15 29.384C44.99 30.812 45.41 32.548 45.41 34.592ZM55.5963 29.3C55.5963 30.672 55.7223 31.932 55.9743 33.08C56.2263 34.2 56.5903 35.166 57.0663 35.978C57.5423 36.762 58.1023 37.378 58.7463 37.826C59.4183 38.246 60.1603 38.456 60.9723 38.456C61.7843 38.456 62.5123 38.246 63.1563 37.826C63.8283 37.378 64.4023 36.762 64.8783 35.978C65.3543 35.166 65.7183 34.2 65.9703 33.08C66.2223 31.932 66.3483 30.672 66.3483 29.3C66.3483 27.928 66.2223 26.682 65.9703 25.562C65.7183 24.414 65.3543 23.448 64.8783 22.664C64.4023 21.852 63.8283 21.236 63.1563 20.816C62.5123 20.368 61.7843 20.144 60.9723 20.144C60.1603 20.144 59.4183 20.368 58.7463 20.816C58.1023 21.236 57.5423 21.852 57.0663 22.664C56.5903 23.448 56.2263 24.414 55.9743 25.562C55.7223 26.682 55.5963 27.928 55.5963 29.3ZM48.7503 29.3C48.7503 26.108 49.2543 23.378 50.2623 21.11C51.2983 18.842 52.7403 17.106 54.5883 15.902C56.4363 14.67 58.5643 14.054 60.9723 14.054C63.4923 14.054 65.6623 14.67 67.4823 15.902C69.3023 17.106 70.7023 18.842 71.6823 21.11C72.6903 23.378 73.1943 26.108 73.1943 29.3C73.1943 32.492 72.6903 35.222 71.6823 37.49C70.7023 39.758 69.3023 41.508 67.4823 42.74C65.6623 43.944 63.4923 44.546 60.9723 44.546C58.5643 44.546 56.4363 43.944 54.5883 42.74C52.7403 41.508 51.2983 39.758 50.2623 37.49C49.2543 35.222 48.7503 32.492 48.7503 29.3Z" fill="#23AFCE"/>
<path d="M79.54 7.208C79.54 6.644 79.666 6.134 79.918 5.678C80.182 5.21 80.548 4.838 81.016 4.562C81.484 4.286 82.012 4.148 82.6 4.148C83.212 4.148 83.746 4.286 84.202 4.562C84.67 4.838 85.03 5.21 85.282 5.678C85.546 6.134 85.678 6.644 85.678 7.208C85.678 7.772 85.546 8.288 85.282 8.756C85.03 9.212 84.67 9.578 84.202 9.854C83.746 10.13 83.212 10.268 82.6 10.268C82.012 10.268 81.484 10.13 81.016 9.854C80.548 9.578 80.182 9.212 79.918 8.756C79.666 8.288 79.54 7.772 79.54 7.208ZM81.196 7.208C81.196 7.472 81.256 7.724 81.376 7.964C81.496 8.192 81.658 8.378 81.862 8.522C82.078 8.654 82.324 8.72 82.6 8.72C82.9 8.72 83.152 8.654 83.356 8.522C83.56 8.378 83.722 8.192 83.842 7.964C83.962 7.724 84.022 7.472 84.022 7.208C84.022 6.932 83.962 6.68 83.842 6.452C83.722 6.224 83.56 6.044 83.356 5.912C83.152 5.78 82.9 5.714 82.6 5.714C82.324 5.714 82.078 5.78 81.862 5.912C81.658 6.044 81.496 6.224 81.376 6.452C81.256 6.68 81.196 6.932 81.196 7.208ZM87.046 14.192C87.046 13.616 87.178 13.1 87.442 12.644C87.706 12.176 88.066 11.81 88.522 11.546C88.99 11.27 89.524 11.132 90.124 11.132C90.724 11.132 91.252 11.27 91.708 11.546C92.176 11.81 92.536 12.176 92.788 12.644C93.052 13.1 93.184 13.616 93.184 14.192C93.184 14.744 93.052 15.254 92.788 15.722C92.536 16.19 92.176 16.562 91.708 16.838C91.252 17.102 90.724 17.234 90.124 17.234C89.524 17.234 88.99 17.102 88.522 16.838C88.066 16.562 87.706 16.19 87.442 15.722C87.178 15.254 87.046 14.744 87.046 14.192ZM88.72 14.174C88.72 14.438 88.774 14.69 88.882 14.93C89.002 15.158 89.164 15.344 89.368 15.488C89.584 15.62 89.836 15.686 90.124 15.686C90.412 15.686 90.658 15.62 90.862 15.488C91.078 15.344 91.24 15.158 91.348 14.93C91.468 14.702 91.528 14.45 91.528 14.174C91.528 13.91 91.468 13.664 91.348 13.436C91.24 13.208 91.078 13.028 90.862 12.896C90.658 12.752 90.412 12.68 90.124 12.68C89.836 12.68 89.584 12.752 89.368 12.896C89.164 13.028 89.002 13.208 88.882 13.436C88.774 13.664 88.72 13.91 88.72 14.174ZM89.764 4.4H91.69L82.96 17H81.034L89.764 4.4Z" fill="#23AFCE"/>
<path d="M0 62H114" stroke="black"/>
<path d="M20.84 110L33.944 96.434C34.728 95.566 35.4 94.782 35.96 94.082C36.548 93.382 36.982 92.696 37.262 92.024C37.57 91.324 37.724 90.582 37.724 89.798C37.724 89.35 37.64 88.902 37.472 88.454C37.304 88.006 37.052 87.614 36.716 87.278C36.38 86.914 35.96 86.634 35.456 86.438C34.952 86.214 34.364 86.102 33.692 86.102C32.796 86.102 31.998 86.326 31.298 86.774C30.626 87.222 30.108 87.852 29.744 88.664C29.408 89.476 29.24 90.414 29.24 91.478H22.268C22.268 89.378 22.702 87.46 23.57 85.724C24.438 83.988 25.74 82.602 27.476 81.566C29.24 80.53 31.382 80.012 33.902 80.012C35.722 80.012 37.332 80.292 38.732 80.852C40.132 81.384 41.294 82.112 42.218 83.036C43.17 83.932 43.884 84.926 44.36 86.018C44.836 87.11 45.074 88.216 45.074 89.336C45.074 90.932 44.682 92.402 43.898 93.746C43.114 95.062 42.092 96.266 40.832 97.358L33.986 103.49H45.746V110H20.84ZM72.9725 100.592C72.9725 102.328 72.6225 103.826 71.9225 105.086C71.2505 106.346 70.3265 107.382 69.1505 108.194C68.0025 109.006 66.7285 109.608 65.3285 110C63.9565 110.364 62.5565 110.546 61.1285 110.546C59.3365 110.546 57.7125 110.364 56.2565 110C54.8005 109.664 53.5125 109.216 52.3925 108.656C51.2725 108.068 50.2505 107.424 49.3265 106.724L52.0985 100.886C52.9105 101.558 53.7365 102.132 54.5765 102.608C55.4445 103.056 56.3125 103.42 57.1805 103.7C58.0485 103.952 58.8325 104.078 59.5325 104.078C60.7365 104.078 61.7585 103.924 62.5985 103.616C63.4385 103.308 64.0825 102.832 64.5305 102.188C64.9785 101.544 65.2025 100.76 65.2025 99.836C65.2025 98.856 64.9225 98.072 64.3625 97.484C63.8305 96.868 63.1305 96.42 62.2625 96.14C61.4225 95.86 60.5125 95.72 59.5325 95.72C58.7765 95.72 57.9365 95.776 57.0125 95.888C56.1165 95.972 55.1785 96.154 54.1985 96.434C53.2465 96.686 52.2665 97.064 51.2585 97.568L55.3745 80.6H72.3425V86.732H60.5825L58.9025 91.982C59.6865 91.618 60.4985 91.366 61.3385 91.226C62.2065 91.058 63.1025 90.974 64.0265 90.974C65.5945 90.974 67.0505 91.352 68.3945 92.108C69.7665 92.864 70.8725 93.956 71.7125 95.384C72.5525 96.812 72.9725 98.548 72.9725 100.592Z" fill="black"/>
<path d="M79.54 73.208C79.54 72.644 79.666 72.134 79.918 71.678C80.182 71.21 80.548 70.838 81.016 70.562C81.484 70.286 82.012 70.148 82.6 70.148C83.212 70.148 83.746 70.286 84.202 70.562C84.67 70.838 85.03 71.21 85.282 71.678C85.546 72.134 85.678 72.644 85.678 73.208C85.678 73.772 85.546 74.288 85.282 74.756C85.03 75.212 84.67 75.578 84.202 75.854C83.746 76.13 83.212 76.268 82.6 76.268C82.012 76.268 81.484 76.13 81.016 75.854C80.548 75.578 80.182 75.212 79.918 74.756C79.666 74.288 79.54 73.772 79.54 73.208ZM81.196 73.208C81.196 73.472 81.256 73.724 81.376 73.964C81.496 74.192 81.658 74.378 81.862 74.522C82.078 74.654 82.324 74.72 82.6 74.72C82.9 74.72 83.152 74.654 83.356 74.522C83.56 74.378 83.722 74.192 83.842 73.964C83.962 73.724 84.022 73.472 84.022 73.208C84.022 72.932 83.962 72.68 83.842 72.452C83.722 72.224 83.56 72.044 83.356 71.912C83.152 71.78 82.9 71.714 82.6 71.714C82.324 71.714 82.078 71.78 81.862 71.912C81.658 72.044 81.496 72.224 81.376 72.452C81.256 72.68 81.196 72.932 81.196 73.208ZM87.046 80.192C87.046 79.616 87.178 79.1 87.442 78.644C87.706 78.176 88.066 77.81 88.522 77.546C88.99 77.27 89.524 77.132 90.124 77.132C90.724 77.132 91.252 77.27 91.708 77.546C92.176 77.81 92.536 78.176 92.788 78.644C93.052 79.1 93.184 79.616 93.184 80.192C93.184 80.744 93.052 81.254 92.788 81.722C92.536 82.19 92.176 82.562 91.708 82.838C91.252 83.102 90.724 83.234 90.124 83.234C89.524 83.234 88.99 83.102 88.522 82.838C88.066 82.562 87.706 82.19 87.442 81.722C87.178 81.254 87.046 80.744 87.046 80.192ZM88.72 80.174C88.72 80.438 88.774 80.69 88.882 80.93C89.002 81.158 89.164 81.344 89.368 81.488C89.584 81.62 89.836 81.686 90.124 81.686C90.412 81.686 90.658 81.62 90.862 81.488C91.078 81.344 91.24 81.158 91.348 80.93C91.468 80.702 91.528 80.45 91.528 80.174C91.528 79.91 91.468 79.664 91.348 79.436C91.24 79.208 91.078 79.028 90.862 78.896C90.658 78.752 90.412 78.68 90.124 78.68C89.836 78.68 89.584 78.752 89.368 78.896C89.164 79.028 89.002 79.208 88.882 79.436C88.774 79.664 88.72 79.91 88.72 80.174ZM89.764 70.4H91.69L82.96 83H81.034L89.764 70.4Z" fill="black"/>
<path d="M0 128H114" stroke="black"/>
<path d="M20.84 176L33.944 162.434C34.728 161.566 35.4 160.782 35.96 160.082C36.548 159.382 36.982 158.696 37.262 158.024C37.57 157.324 37.724 156.582 37.724 155.798C37.724 155.35 37.64 154.902 37.472 154.454C37.304 154.006 37.052 153.614 36.716 153.278C36.38 152.914 35.96 152.634 35.456 152.438C34.952 152.214 34.364 152.102 33.692 152.102C32.796 152.102 31.998 152.326 31.298 152.774C30.626 153.222 30.108 153.852 29.744 154.664C29.408 155.476 29.24 156.414 29.24 157.478H22.268C22.268 155.378 22.702 153.46 23.57 151.724C24.438 149.988 25.74 148.602 27.476 147.566C29.24 146.53 31.382 146.012 33.902 146.012C35.722 146.012 37.332 146.292 38.732 146.852C40.132 147.384 41.294 148.112 42.218 149.036C43.17 149.932 43.884 150.926 44.36 152.018C44.836 153.11 45.074 154.216 45.074 155.336C45.074 156.932 44.682 158.402 43.898 159.746C43.114 161.062 42.092 162.266 40.832 163.358L33.986 169.49H45.746V176H20.84ZM72.9725 166.592C72.9725 168.328 72.6225 169.826 71.9225 171.086C71.2505 172.346 70.3265 173.382 69.1505 174.194C68.0025 175.006 66.7285 175.608 65.3285 176C63.9565 176.364 62.5565 176.546 61.1285 176.546C59.3365 176.546 57.7125 176.364 56.2565 176C54.8005 175.664 53.5125 175.216 52.3925 174.656C51.2725 174.068 50.2505 173.424 49.3265 172.724L52.0985 166.886C52.9105 167.558 53.7365 168.132 54.5765 168.608C55.4445 169.056 56.3125 169.42 57.1805 169.7C58.0485 169.952 58.8325 170.078 59.5325 170.078C60.7365 170.078 61.7585 169.924 62.5985 169.616C63.4385 169.308 64.0825 168.832 64.5305 168.188C64.9785 167.544 65.2025 166.76 65.2025 165.836C65.2025 164.856 64.9225 164.072 64.3625 163.484C63.8305 162.868 63.1305 162.42 62.2625 162.14C61.4225 161.86 60.5125 161.72 59.5325 161.72C58.7765 161.72 57.9365 161.776 57.0125 161.888C56.1165 161.972 55.1785 162.154 54.1985 162.434C53.2465 162.686 52.2665 163.064 51.2585 163.568L55.3745 146.6H72.3425V152.732H60.5825L58.9025 157.982C59.6865 157.618 60.4985 157.366 61.3385 157.226C62.2065 157.058 63.1025 156.974 64.0265 156.974C65.5945 156.974 67.0505 157.352 68.3945 158.108C69.7665 158.864 70.8725 159.956 71.7125 161.384C72.5525 162.812 72.9725 164.548 72.9725 166.592Z" fill="black"/>
<path d="M79.54 139.208C79.54 138.644 79.666 138.134 79.918 137.678C80.182 137.21 80.548 136.838 81.016 136.562C81.484 136.286 82.012 136.148 82.6 136.148C83.212 136.148 83.746 136.286 84.202 136.562C84.67 136.838 85.03 137.21 85.282 137.678C85.546 138.134 85.678 138.644 85.678 139.208C85.678 139.772 85.546 140.288 85.282 140.756C85.03 141.212 84.67 141.578 84.202 141.854C83.746 142.13 83.212 142.268 82.6 142.268C82.012 142.268 81.484 142.13 81.016 141.854C80.548 141.578 80.182 141.212 79.918 140.756C79.666 140.288 79.54 139.772 79.54 139.208ZM81.196 139.208C81.196 139.472 81.256 139.724 81.376 139.964C81.496 140.192 81.658 140.378 81.862 140.522C82.078 140.654 82.324 140.72 82.6 140.72C82.9 140.72 83.152 140.654 83.356 140.522C83.56 140.378 83.722 140.192 83.842 139.964C83.962 139.724 84.022 139.472 84.022 139.208C84.022 138.932 83.962 138.68 83.842 138.452C83.722 138.224 83.56 138.044 83.356 137.912C83.152 137.78 82.9 137.714 82.6 137.714C82.324 137.714 82.078 137.78 81.862 137.912C81.658 138.044 81.496 138.224 81.376 138.452C81.256 138.68 81.196 138.932 81.196 139.208ZM87.046 146.192C87.046 145.616 87.178 145.1 87.442 144.644C87.706 144.176 88.066 143.81 88.522 143.546C88.99 143.27 89.524 143.132 90.124 143.132C90.724 143.132 91.252 143.27 91.708 143.546C92.176 143.81 92.536 144.176 92.788 144.644C93.052 145.1 93.184 145.616 93.184 146.192C93.184 146.744 93.052 147.254 92.788 147.722C92.536 148.19 92.176 148.562 91.708 148.838C91.252 149.102 90.724 149.234 90.124 149.234C89.524 149.234 88.99 149.102 88.522 148.838C88.066 148.562 87.706 148.19 87.442 147.722C87.178 147.254 87.046 146.744 87.046 146.192ZM88.72 146.174C88.72 146.438 88.774 146.69 88.882 146.93C89.002 147.158 89.164 147.344 89.368 147.488C89.584 147.62 89.836 147.686 90.124 147.686C90.412 147.686 90.658 147.62 90.862 147.488C91.078 147.344 91.24 147.158 91.348 146.93C91.468 146.702 91.528 146.45 91.528 146.174C91.528 145.91 91.468 145.664 91.348 145.436C91.24 145.208 91.078 145.028 90.862 144.896C90.658 144.752 90.412 144.68 90.124 144.68C89.836 144.68 89.584 144.752 89.368 144.896C89.164 145.028 89.002 145.208 88.882 145.436C88.774 145.664 88.72 145.91 88.72 146.174ZM89.764 136.4H91.69L82.96 149H81.034L89.764 136.4Z" fill="black"/>
</svg>
