<svg width="24" height="24" viewBox="0 0 24 24" fill="none" xmlns="http://www.w3.org/2000/svg">
    <path d="M6.25 8.04719C6.25 6.11719 8.343 4.91519 10.01 5.88719L16.787 9.84119C18.44 10.8052 18.44 13.1952 16.787 14.1602L10.01 18.1132C8.343 19.0852 6.25 17.8832 6.25 15.9532V8.04719ZM9.254 7.18319C9.10203 7.09451 8.92935 7.04749 8.7534 7.0469C8.57744 7.0463 8.40445 7.09214 8.25188 7.17979C8.09931 7.26743 7.97256 7.39378 7.88444 7.54608C7.79632 7.69838 7.74995 7.87123 7.75 8.04719V15.9532C7.74995 16.1291 7.79632 16.302 7.88444 16.4543C7.97256 16.6066 8.09931 16.7329 8.25188 16.8206C8.40445 16.9082 8.57744 16.9541 8.7534 16.9535C8.92935 16.9529 9.10203 16.9059 9.254 16.8172L16.031 12.8642C16.1821 12.7762 16.3074 12.65 16.3945 12.4984C16.4817 12.3468 16.5275 12.175 16.5275 12.0002C16.5275 11.8253 16.4817 11.6535 16.3945 11.5019C16.3074 11.3503 16.1821 11.2242 16.031 11.1362L9.254 7.18319Z" fill="black"/>
    <path opacity="0.5" d="M7.75 8.04717C7.74995 7.87122 7.79632 7.69836 7.88444 7.54607C7.97256 7.39377 8.09931 7.26742 8.25188 7.17977C8.40445 7.09212 8.57744 7.04628 8.7534 7.04688C8.92935 7.04748 9.10203 7.09449 9.254 7.18317L16.031 11.1362C16.1821 11.2242 16.3074 11.3503 16.3945 11.5019C16.4817 11.6535 16.5275 11.8253 16.5275 12.0002C16.5275 12.175 16.4817 12.3468 16.3945 12.4984C16.3074 12.65 16.1821 12.7761 16.031 12.8642L9.254 16.8172C9.10203 16.9059 8.92935 16.9529 8.7534 16.9535C8.57744 16.9541 8.40445 16.9082 8.25188 16.8206C8.09931 16.7329 7.97256 16.6066 7.88444 16.4543C7.79632 16.302 7.74995 16.1291 7.75 15.9532V8.04717Z" fill="black"/>
</svg>
