<svg  width="44" height="16" viewBox="0 0 44 16" fill="none" xmlns="http://www.w3.org/2000/svg">
    <path
            d="M0.24 12L3.984 8.124C4.208 7.876 4.4 7.652 4.56 7.452C4.728 7.252 4.852 7.056 4.932 6.864C5.02 6.664 5.064 6.452 5.064 6.228C5.064 6.1 5.04 5.972 4.992 5.844C4.944 5.716 4.872 5.604 4.776 5.508C4.68 5.404 4.56 5.324 4.416 5.268C4.272 5.204 4.104 5.172 3.912 5.172C3.656 5.172 3.428 5.236 3.228 5.364C3.036 5.492 2.888 5.672 2.784 5.904C2.688 6.136 2.64 6.404 2.64 6.708H0.648C0.648 6.108 0.772 5.56 1.02 5.064C1.268 4.568 1.64 4.172 2.136 3.876C2.64 3.58 3.252 3.432 3.972 3.432C4.492 3.432 4.952 3.512 5.352 3.672C5.752 3.824 6.084 4.032 6.348 4.296C6.62 4.552 6.824 4.836 6.96 5.148C7.096 5.46 7.164 5.776 7.164 6.096C7.164 6.552 7.052 6.972 6.828 7.356C6.604 7.732 6.312 8.076 5.952 8.388L3.996 10.14H7.356V12H0.24ZM8.043 10.512L12.915 3.6H14.427V12H12.315V9.888L12.543 9.756V6.54L10.731 9.048H13.827L14.031 8.784H15.747V10.512H8.043ZM23.5139 9.312C23.5139 9.808 23.4139 10.236 23.2139 10.596C23.0219 10.956 22.7579 11.252 22.4219 11.484C22.0939 11.716 21.7299 11.888 21.3299 12C20.9379 12.104 20.5379 12.156 20.1299 12.156C19.6179 12.156 19.1539 12.104 18.7379 12C18.3219 11.904 17.9539 11.776 17.6339 11.616C17.3139 11.448 17.0219 11.264 16.7579 11.064L17.5499 9.396C17.7819 9.588 18.0179 9.752 18.2579 9.888C18.5059 10.016 18.7539 10.12 19.0019 10.2C19.2499 10.272 19.4739 10.308 19.6739 10.308C20.0179 10.308 20.3099 10.264 20.5499 10.176C20.7899 10.088 20.9739 9.952 21.1019 9.768C21.2299 9.584 21.2939 9.36 21.2939 9.096C21.2939 8.816 21.2139 8.592 21.0539 8.424C20.9019 8.248 20.7019 8.12 20.4539 8.04C20.2139 7.96 19.9539 7.92 19.6739 7.92C19.4579 7.92 19.2179 7.936 18.9539 7.968C18.6979 7.992 18.4299 8.044 18.1499 8.124C17.8779 8.196 17.5979 8.304 17.3099 8.448L18.4859 3.6H23.3339V5.352H19.9739L19.4939 6.852C19.7179 6.748 19.9499 6.676 20.1899 6.636C20.4379 6.588 20.6939 6.564 20.9579 6.564C21.4059 6.564 21.8219 6.672 22.2059 6.888C22.5979 7.104 22.9139 7.416 23.1539 7.824C23.3939 8.232 23.5139 8.728 23.5139 9.312Z"
            fill="#6F6D73"/>
    <path fill-rule="evenodd" clip-rule="evenodd"
          d="M29.3335 4C29.3335 3.46957 29.5442 2.96086 29.9193 2.58579C30.2944 2.21071 30.8031 2 31.3335 2H40.6668C41.1973 2 41.706 2.21071 42.081 2.58579C42.4561 2.96086 42.6668 3.46957 42.6668 4V10.6667C42.6668 11.1971 42.4561 11.7058 42.081 12.0809C41.706 12.456 41.1973 12.6667 40.6668 12.6667H33.1115C32.9672 12.6667 32.8269 12.7135 32.7115 12.8L30.4002 14.5333C30.3011 14.6076 30.1833 14.6529 30.06 14.664C29.9367 14.6751 29.8128 14.6517 29.702 14.5963C29.5913 14.5409 29.4982 14.4558 29.4331 14.3505C29.368 14.2452 29.3335 14.1238 29.3335 14V4ZM32.6668 4C32.49 4 32.3204 4.07024 32.1954 4.19526C32.0704 4.32029 32.0002 4.48986 32.0002 4.66667C32.0002 4.84348 32.0704 5.01305 32.1954 5.13807C32.3204 5.2631 32.49 5.33333 32.6668 5.33333H39.3335C39.5103 5.33333 39.6799 5.2631 39.8049 5.13807C39.9299 5.01305 40.0002 4.84348 40.0002 4.66667C40.0002 4.48986 39.9299 4.32029 39.8049 4.19526C39.6799 4.07024 39.5103 4 39.3335 4H32.6668ZM32.6668 6.66667C32.49 6.66667 32.3204 6.7369 32.1954 6.86193C32.0704 6.98695 32.0002 7.15652 32.0002 7.33333C32.0002 7.51014 32.0704 7.67971 32.1954 7.80474C32.3204 7.92976 32.49 8 32.6668 8H39.3335C39.5103 8 39.6799 7.92976 39.8049 7.80474C39.9299 7.67971 40.0002 7.51014 40.0002 7.33333C40.0002 7.15652 39.9299 6.98695 39.8049 6.86193C39.6799 6.7369 39.5103 6.66667 39.3335 6.66667H32.6668ZM32.6668 9.33333C32.49 9.33333 32.3204 9.40357 32.1954 9.5286C32.0704 9.65362 32.0002 9.82319 32.0002 10C32.0002 10.1768 32.0704 10.3464 32.1954 10.4714C32.3204 10.5964 32.49 10.6667 32.6668 10.6667H35.3335C35.5103 10.6667 35.6799 10.5964 35.8049 10.4714C35.9299 10.3464 36.0002 10.1768 36.0002 10C36.0002 9.82319 35.9299 9.65362 35.8049 9.5286C35.6799 9.40357 35.5103 9.33333 35.3335 9.33333H32.6668Z"
          fill="#6F6D73"/>
</svg>