<svg  width="41" height="16" viewBox="0 0 41 16" fill="none" xmlns="http://www.w3.org/2000/svg">
<path
d="M0.168 10.512L5.04 3.6H6.552V12H4.44V9.888L4.668 9.756V6.54L2.856 9.048H5.952L6.156 8.784H7.872V10.512H0.168ZM9.18291 11.184C9.18291 10.88 9.29091 10.62 9.50691 10.404C9.72291 10.188 9.99091 10.08 10.3109 10.08C10.6469 10.08 10.9189 10.188 11.1269 10.404C11.3349 10.62 11.4389 10.88 11.4389 11.184C11.4389 11.488 11.3349 11.748 11.1269 11.964C10.9189 12.18 10.6469 12.288 10.3109 12.288C9.99091 12.288 9.72291 12.18 9.50691 11.964C9.29091 11.748 9.18291 11.488 9.18291 11.184ZM14.8501 9.048C14.8501 9.336 14.9101 9.588 15.0301 9.804C15.1581 10.012 15.3261 10.176 15.5341 10.296C15.7501 10.408 15.9941 10.464 16.2661 10.464C16.5301 10.464 16.7661 10.408 16.9741 10.296C17.1901 10.176 17.3581 10.012 17.4781 9.804C17.6061 9.588 17.6701 9.336 17.6701 9.048C17.6701 8.768 17.6061 8.52 17.4781 8.304C17.3581 8.088 17.1901 7.92 16.9741 7.8C16.7661 7.68 16.5301 7.62 16.2661 7.62C15.9941 7.62 15.7501 7.68 15.5341 7.8C15.3261 7.92 15.1581 8.088 15.0301 8.304C14.9101 8.52 14.8501 8.768 14.8501 9.048ZM16.2421 3.636H18.8101L16.0981 6.672L15.6781 6.852C15.9021 6.628 16.1141 6.484 16.3141 6.42C16.5221 6.356 16.7781 6.324 17.0821 6.324C17.3941 6.324 17.7021 6.388 18.0061 6.516C18.3181 6.636 18.5981 6.816 18.8461 7.056C19.1021 7.288 19.3021 7.572 19.4461 7.908C19.5981 8.244 19.6741 8.624 19.6741 9.048C19.6741 9.736 19.5181 10.316 19.2061 10.788C18.9021 11.252 18.4901 11.604 17.9701 11.844C17.4581 12.076 16.8901 12.192 16.2661 12.192C15.6341 12.192 15.0581 12.076 14.5381 11.844C14.0261 11.604 13.6141 11.252 13.3021 10.788C12.9981 10.316 12.8461 9.736 12.8461 9.048C12.8461 8.6 12.9381 8.184 13.1221 7.8C13.3141 7.416 13.5461 7.056 13.8181 6.72L16.2421 3.636Z"
fill="#6F6D73"/>
<path
d="M30.0835 4.26671L31.9502 1.85004C32.0835 1.67227 32.2419 1.54182 32.4255 1.45871C32.6091 1.3756 32.8006 1.33382 33.0002 1.33338C33.1997 1.33293 33.3915 1.37471 33.5755 1.45871C33.7595 1.54271 33.9177 1.67316 34.0502 1.85004L35.9168 4.26671L38.7502 5.21671C39.0391 5.3056 39.2668 5.4696 39.4335 5.70871C39.6002 5.94782 39.6835 6.2116 39.6835 6.50004C39.6835 6.63338 39.6639 6.76671 39.6248 6.90004C39.5857 7.03338 39.5219 7.16116 39.4335 7.28338L37.6002 9.88338L37.6668 12.6167C37.6779 13.0056 37.5502 13.3334 37.2835 13.6C37.0168 13.8667 36.7057 14 36.3502 14C36.3279 14 36.2057 13.9834 35.9835 13.95L33.0002 13.1167L30.0168 13.95C29.9613 13.9723 29.9002 13.9863 29.8335 13.992C29.7668 13.9978 29.7057 14.0005 29.6502 14C29.2946 14 28.9835 13.8667 28.7168 13.6C28.4502 13.3334 28.3224 13.0056 28.3335 12.6167L28.4002 9.86671L26.5835 7.28338C26.4946 7.16116 26.4306 7.03338 26.3915 6.90004C26.3524 6.76671 26.3331 6.63338 26.3335 6.50004C26.3335 6.22227 26.4142 5.96404 26.5755 5.72538C26.7368 5.48671 26.9617 5.31716 27.2502 5.21671L30.0835 4.26671Z"
fill="#6F6D73"/>
        </svg>