<svg width="56" height="56" viewBox="0 0 56 56" fill="none" xmlns="http://www.w3.org/2000/svg">
    <rect x="0.5" y="0.5" width="55" height="55" rx="27.5" fill="#FAFAFA"/>
    <rect x="0.5" y="0.5" width="55" height="55" rx="27.5" stroke="#2D2D2D"/>
    <path d="M26.46 33.9992C26.9334 33.9998 27.3924 33.8373 27.76 33.5392L32.86 29.3292C33.06 29.17 33.2215 28.9677 33.3326 28.7375C33.4436 28.5072 33.5012 28.2548 33.5012 27.9992C33.5012 27.7436 33.4436 27.4912 33.3326 27.261C33.2215 27.0307 33.06 26.8284 32.86 26.6692L27.76 22.4592C27.453 22.2132 27.083 22.0584 26.6923 22.0124C26.3016 21.9665 25.9058 22.0312 25.55 22.1992C25.2409 22.3355 24.9775 22.5579 24.7913 22.8398C24.6051 23.1218 24.504 23.4514 24.5 23.7892V32.2092C24.504 32.5471 24.6051 32.8767 24.7913 33.1586C24.9775 33.4405 25.2409 33.6629 25.55 33.7992C25.8356 33.9301 26.1459 33.9983 26.46 33.9992ZM31.32 27.9992L26.5 31.9992V24.0892L31.32 27.9992Z" fill="#2D2D2D"/>
</svg>
