<svg width="56" height="56" viewBox="0 0 56 56" fill="none" xmlns="http://www.w3.org/2000/svg">
    <rect x="0.5" y="0.5" width="55" height="55" rx="27.5" fill="#FAFAFA"/>
    <rect x="0.5" y="0.5" width="55" height="55" rx="27.5" stroke="#2D2D2D"/>
    <path d="M29.54 33.9992C29.0666 33.9998 28.6076 33.8373 28.24 33.5392L23.14 29.3292C22.94 29.17 22.7785 28.9677 22.6674 28.7375C22.5564 28.5072 22.4988 28.2548 22.4988 27.9992C22.4988 27.7436 22.5564 27.4912 22.6674 27.261C22.7785 27.0307 22.94 26.8284 23.14 26.6692L28.24 22.4592C28.547 22.2132 28.917 22.0584 29.3077 22.0124C29.6984 21.9665 30.0942 22.0312 30.45 22.1992C30.7591 22.3355 31.0225 22.5579 31.2087 22.8398C31.3949 23.1218 31.496 23.4514 31.5 23.7892V32.2092C31.496 32.5471 31.3949 32.8767 31.2087 33.1586C31.0225 33.4405 30.7591 33.6629 30.45 33.7992C30.1644 33.9301 29.8541 33.9983 29.54 33.9992ZM24.68 27.9992L29.5 31.9992V24.0892L24.68 27.9992Z" fill="#2D2D2D"/>
</svg>
