<svg width="10" height="12" viewBox="0 0 10 12" fill="none" xmlns="http://www.w3.org/2000/svg">
    <path d="M2.46004 11.9992C2.93335 11.9998 3.39242 11.8373 3.76004 11.5392L8.86004 7.32921C9.06004 7.17 9.22155 6.96773 9.33256 6.73746C9.44357 6.50719 9.50122 6.25485 9.50122 5.99921C9.50122 5.74358 9.44357 5.49124 9.33256 5.26097C9.22155 5.0307 9.06004 4.82843 8.86004 4.66921L3.76004 0.459215C3.45301 0.213209 3.08305 0.0584007 2.69231 0.0124318C2.30157 -0.0335371 1.90578 0.0311821 1.55004 0.199215C1.24087 0.335494 0.977454 0.557888 0.791264 0.839834C0.605073 1.12178 0.503974 1.45136 0.500041 1.78921V10.2092C0.503974 10.5471 0.605073 10.8767 0.791264 11.1586C0.977454 11.4405 1.24087 11.6629 1.55004 11.7992C1.83562 11.9301 2.14591 11.9983 2.46004 11.9992ZM7.32004 5.99921L2.50004 9.99922V2.08922L7.32004 5.99921Z" fill="#2D2D2D"/>
</svg>
