<svg width="20" height="16" viewBox="0 0 20 16" fill="none" xmlns="http://www.w3.org/2000/svg">
<path d="M12 12.5C12.3852 12.5002 12.7556 12.6486 13.0344 12.9144C13.3132 13.1802 13.479 13.5431 13.4975 13.9279C13.516 14.3127 13.3858 14.6898 13.1338 14.9812C12.8818 15.2726 12.5274 15.4558 12.144 15.493L12 15.5H8C7.61478 15.4998 7.24441 15.3514 6.96561 15.0856C6.68682 14.8198 6.52099 14.4569 6.50248 14.0721C6.48396 13.6873 6.61419 13.3102 6.86618 13.0188C7.11816 12.7274 7.47258 12.5442 7.856 12.507L8 12.5H12ZM15 6.5C15.3978 6.5 15.7794 6.65804 16.0607 6.93934C16.342 7.22064 16.5 7.60218 16.5 8C16.5 8.39782 16.342 8.77936 16.0607 9.06066C15.7794 9.34196 15.3978 9.5 15 9.5H5C4.60218 9.5 4.22064 9.34196 3.93934 9.06066C3.65804 8.77936 3.5 8.39782 3.5 8C3.5 7.60218 3.65804 7.22064 3.93934 6.93934C4.22064 6.65804 4.60218 6.5 5 6.5H15ZM18 0.5C18.3978 0.5 18.7794 0.658035 19.0607 0.93934C19.342 1.22064 19.5 1.60218 19.5 2C19.5 2.39782 19.342 2.77936 19.0607 3.06066C18.7794 3.34196 18.3978 3.5 18 3.5H2C1.60218 3.5 1.22064 3.34196 0.93934 3.06066C0.658035 2.77936 0.5 2.39782 0.5 2C0.5 1.60218 0.658035 1.22064 0.93934 0.93934C1.22064 0.658035 1.60218 0.5 2 0.5H18Z" fill="black"/>
</svg>
