<svg width="24" height="24" viewBox="0 0 24 24" fill="none" xmlns="http://www.w3.org/2000/svg">
<path opacity="0.4" d="M14.8289 6.3436C15.6099 5.56255 16.8763 5.56255 17.6573 6.3436C18.4384 7.12465 18.4384 8.39098 17.6573 9.17203L9.17203 17.6573C8.39098 18.4384 7.12465 18.4384 6.3436 17.6573C5.56255 16.8763 5.56255 15.6099 6.3436 14.8289L14.8289 6.3436Z" fill="#2D2D2D"/>
<path d="M17.6573 14.8289C18.4384 15.6099 18.4384 16.8763 17.6573 17.6573C16.8763 18.4384 15.6099 18.4384 14.8289 17.6573L6.3436 9.17203C5.56255 8.39098 5.56255 7.12465 6.3436 6.3436C7.12465 5.56255 8.39098 5.56255 9.17203 6.3436L17.6573 14.8289Z" fill="#2D2D2D"/>
</svg>
