<svg width="16" height="16" viewBox="0 0 16 16" fill="none" xmlns="http://www.w3.org/2000/svg">
<path d="M5.08302 4.26671L6.94968 1.85004C7.08302 1.67227 7.24146 1.54182 7.42502 1.45871C7.60857 1.3756 7.80013 1.33382 7.99968 1.33338C8.19924 1.33293 8.39102 1.37471 8.57502 1.45871C8.75902 1.54271 8.91724 1.67316 9.04968 1.85004L10.9163 4.26671L13.7497 5.21671C14.0386 5.3056 14.2663 5.4696 14.433 5.70871C14.5997 5.94782 14.683 6.2116 14.683 6.50004C14.683 6.63338 14.6635 6.76671 14.6243 6.90004C14.5852 7.03338 14.5215 7.16116 14.433 7.28338L12.5997 9.88338L12.6663 12.6167C12.6775 13.0056 12.5497 13.3334 12.283 13.6C12.0163 13.8667 11.7052 14 11.3497 14C11.3275 14 11.2052 13.9834 10.983 13.95L7.99968 13.1167L5.01635 13.95C4.96079 13.9723 4.89968 13.9863 4.83302 13.992C4.76635 13.9978 4.70524 14.0005 4.64968 14C4.29413 14 3.98302 13.8667 3.71635 13.6C3.44968 13.3334 3.3219 13.0056 3.33302 12.6167L3.39968 9.86671L1.58302 7.28338C1.49413 7.16116 1.43013 7.03338 1.39102 6.90004C1.3519 6.76671 1.33257 6.63338 1.33302 6.50004C1.33302 6.22227 1.41368 5.96404 1.57502 5.72538C1.73635 5.48671 1.96124 5.31716 2.24968 5.21671L5.08302 4.26671Z" fill="#6F6D73"/>
</svg>
