<svg width="18.000000" height="20.000000" viewBox="0 0 18 20" fill="none" xmlns="http://www.w3.org/2000/svg" xmlns:xlink="http://www.w3.org/1999/xlink">
    <desc>
        Created with Pixso.
    </desc>
    <defs/>
    <path id="Vector" d="M6 1C6 0.73 5.89 0.48 5.7 0.29C5.51 0.1 5.26 0 5 0C4.73 0 4.48 0.1 4.29 0.29C4.1 0.48 4 0.73 4 1L4 2L3 2C2.2 2 1.44 2.31 0.87 2.87C0.31 3.44 0 4.2 0 5L0 17C0 17.79 0.31 18.55 0.87 19.12C1.44 19.68 2.2 20 3 20L15 20C15.79 20 16.55 19.68 17.12 19.12C17.68 18.55 18 17.79 18 17L18 5C18 4.2 17.68 3.44 17.12 2.87C16.55 2.31 15.79 2 15 2L14 2L14 1C14 0.73 13.89 0.48 13.7 0.29C13.51 0.1 13.26 0 13 0C12.73 0 12.48 0.1 12.29 0.29C12.1 0.48 12 0.73 12 1L12 2L10 2L10 1C10 0.73 9.89 0.48 9.7 0.29C9.51 0.1 9.26 0 9 0C8.73 0 8.48 0.1 8.29 0.29C8.1 0.48 8 0.73 8 1L8 2L6 2L6 1ZM8 2L8 5C8 5.26 8.1 5.51 8.29 5.7C8.48 5.89 8.73 6 9 6C9.26 6 9.51 5.89 9.7 5.7C9.89 5.51 10 5.26 10 5L10 2L8 2ZM12 2L14 2L14 5C14 5.26 13.89 5.51 13.7 5.7C13.51 5.89 13.26 6 13 6C12.73 6 12.48 5.89 12.29 5.7C12.1 5.51 12 5.26 12 5L12 2ZM6 2L6 5C6 5.26 5.89 5.51 5.7 5.7C5.51 5.89 5.26 6 5 6C4.73 6 4.48 5.89 4.29 5.7C4.1 5.51 4 5.26 4 5L4 2L6 2ZM5 8C4.73 8 4.48 8.1 4.29 8.29C4.1 8.48 4 8.73 4 9C4 9.26 4.1 9.51 4.29 9.7C4.48 9.89 4.73 10 5 10L13 10C13.26 10 13.51 9.89 13.7 9.7C13.89 9.51 14 9.26 14 9C14 8.73 13.89 8.48 13.7 8.29C13.51 8.1 13.26 8 13 8L5 8ZM5 12C4.73 12 4.48 12.1 4.29 12.29C4.1 12.48 4 12.73 4 13C4 13.26 4.1 13.51 4.29 13.7C4.48 13.89 4.73 14 5 14L9 14C9.26 14 9.51 13.89 9.7 13.7C9.89 13.51 10 13.26 10 13C10 12.73 9.89 12.48 9.7 12.29C9.51 12.1 9.26 12 9 12L5 12Z" fill="#000000" fill-opacity="1.000000" fill-rule="evenodd"/>
</svg>
