<svg width="12.485352" height="12.485596" viewBox="0 0 12.4854 12.4856" fill="none" xmlns="http://www.w3.org/2000/svg" xmlns:xlink="http://www.w3.org/1999/xlink">
    <desc>
        Created with Pixso.
    </desc>
    <defs/>
    <g opacity="0.400000">
        <path id="Rectangle 959" d="M9.07 0.58C9.85 -0.2 11.11 -0.2 11.89 0.58C12.68 1.36 12.68 2.63 11.89 3.41L3.41 11.89C2.63 12.68 1.36 12.68 0.58 11.89C-0.2 11.11 -0.2 9.85 0.58 9.07L9.07 0.58Z" fill="#2D2D2D" fill-opacity="1.000000" fill-rule="evenodd"/>
    </g>
    <path id="Rectangle 958" d="M11.89 9.07C12.68 9.85 12.68 11.11 11.89 11.89C11.11 12.68 9.85 12.68 9.07 11.89L0.58 3.41C-0.2 2.63 -0.2 1.36 0.58 0.58C1.36 -0.2 2.63 -0.2 3.41 0.58L11.89 9.07Z" fill="#2D2D2D" fill-opacity="1.000000" fill-rule="evenodd"/>
</svg>
