<svg width="9.542969" height="9.542969" viewBox="0 0 9.54297 9.54297" fill="none" xmlns="http://www.w3.org/2000/svg" xmlns:xlink="http://www.w3.org/1999/xlink">
    <desc>
        Created with Pixso.
    </desc>
    <defs/>
    <path id="Union" d="M6.9375 6.9375C6.64453 7.23047 6.16992 7.23047 5.87695 6.9375L3.57812 4.64062L1.28125 6.9375C0.988281 7.23047 0.511719 7.23047 0.21875 6.9375C-0.0722656 6.64453 -0.0722656 6.16797 0.21875 5.875L2.51758 3.57812L0.21875 1.28125C-0.0722656 0.988281 -0.0722656 0.511719 0.21875 0.21875C0.511719 -0.0742188 0.988281 -0.0742188 1.28125 0.21875L3.57812 2.51953L5.87695 0.21875C6.16992 -0.0742188 6.64453 -0.0742188 6.9375 0.21875C7.23047 0.511719 7.23047 0.988281 6.9375 1.28125L4.63867 3.57812L6.9375 5.875C7.23047 6.16797 7.23047 6.64453 6.9375 6.9375Z" clip-rule="evenodd" fill="#28303F" fill-opacity="1.000000" fill-rule="evenodd"/>
</svg>
