<svg width="16.000000" height="16.000000" viewBox="0 0 16 16" fill="none" xmlns="http://www.w3.org/2000/svg" xmlns:xlink="http://www.w3.org/1999/xlink">
    <desc>
        Created with Pixso.
    </desc>
    <defs/>
    <rect id="Icons" rx="0.000000" width="15.000000" height="15.000000" transform="translate(0.500000 0.500000)" fill="#FFFFFF" fill-opacity="0"/>
    <path id="Vector" d="M3.33 2C2.8 2 2.29 2.21 1.91 2.58C1.54 2.96 1.33 3.46 1.33 4L1.33 12C1.33 12.53 1.54 13.03 1.91 13.41C2.29 13.78 2.8 14 3.33 14L8.83 14C8.22 13.25 7.92 12.29 8.01 11.33L4.66 11.33C4.48 11.33 4.32 11.26 4.19 11.13C4.07 11.01 4 10.84 4 10.66C4 10.48 4.07 10.32 4.19 10.19C4.32 10.07 4.48 10 4.66 10L8.39 10C8.69 9.42 9.13 8.93 9.67 8.58C9.54 8.51 9.44 8.4 9.38 8.26C9.32 8.12 9.31 7.97 9.35 7.83C9.39 7.69 9.47 7.56 9.59 7.47C9.7 7.38 9.85 7.33 10 7.33L11.33 7.33C11.42 7.33 11.5 7.35 11.59 7.38C11.67 7.41 11.74 7.47 11.8 7.53C11.87 7.59 11.92 7.67 11.95 7.75C11.98 7.83 12 7.92 12 8.01C12.52 8.06 13.04 8.22 13.5 8.49C13.96 8.75 14.36 9.12 14.66 9.55L14.66 4C14.66 3.46 14.45 2.96 14.08 2.58C13.7 2.21 13.19 2 12.66 2L3.33 2ZM4 5.33C4 5.15 4.07 4.98 4.19 4.86C4.32 4.73 4.48 4.66 4.66 4.66L7.33 4.66C7.5 4.66 7.67 4.73 7.8 4.86C7.92 4.98 8 5.15 8 5.33L8 8C8 8.17 7.92 8.34 7.8 8.47C7.67 8.59 7.5 8.66 7.33 8.66L4.66 8.66C4.48 8.66 4.32 8.59 4.19 8.47C4.07 8.34 4 8.17 4 8L4 5.33ZM5.33 6L5.33 7.33L6.66 7.33L6.66 6L5.33 6ZM9.33 5.33C9.33 5.15 9.4 4.98 9.52 4.86C9.65 4.73 9.82 4.66 10 4.66L11.33 4.66C11.5 4.66 11.67 4.73 11.8 4.86C11.92 4.98 12 5.15 12 5.33C12 5.51 11.92 5.67 11.8 5.8C11.67 5.92 11.5 6 11.33 6L10 6C9.82 6 9.65 5.92 9.52 5.8C9.4 5.67 9.33 5.51 9.33 5.33Z" fill="#000000" fill-opacity="1.000000" fill-rule="evenodd"/>
    <path id="Vector" d="M13.2 12.3C13.29 12.1 13.33 11.88 13.33 11.66C13.33 11.44 13.29 11.23 13.2 11.02C13.12 10.82 13 10.64 12.84 10.48C12.69 10.33 12.5 10.21 12.3 10.12C12.1 10.04 11.88 10 11.66 10C11.44 10 11.23 10.04 11.02 10.12C10.82 10.21 10.64 10.33 10.48 10.48C10.17 10.8 10 11.22 10 11.66C10 12.1 10.17 12.53 10.48 12.84C10.8 13.15 11.22 13.33 11.66 13.33C12.1 13.33 12.53 13.15 12.84 12.84C13 12.69 13.12 12.5 13.2 12.3ZM12.84 12.84L14 14" stroke="#000000" stroke-opacity="1.000000" stroke-width="2.000000" stroke-linejoin="round" stroke-linecap="round"/>
</svg>
