<svg width="16.000000" height="16.000000" viewBox="0 0 16 16" fill="none" xmlns="http://www.w3.org/2000/svg" xmlns:xlink="http://www.w3.org/1999/xlink">
	<desc>
			Created with Pixso.
	</desc>
	<defs/>
	<rect id="Icons" rx="0.000000" width="15.000000" height="15.000000" transform="translate(0.500000 0.500000)" fill="#FFFFFF" fill-opacity="0"/>
	<path id="Vector" d="M2 5.5C2 4.83 2.26 4.2 2.73 3.73C3.2 3.26 3.83 3 4.5 3L11.5 3C12.16 3 12.79 3.26 13.26 3.73C13.73 4.2 14 4.83 14 5.5L14 10.5C14 11.16 13.73 11.79 13.26 12.26C12.79 12.73 12.16 13 11.5 13L4.5 13C3.83 13 3.2 12.73 2.73 12.26C2.26 11.79 2 11.16 2 10.5L2 5.5ZM6.5 5.82L6.5 10.17C6.5 10.42 6.77 10.58 6.98 10.45L10.24 8.46C10.32 8.41 10.39 8.34 10.43 8.26C10.48 8.18 10.5 8.09 10.5 8C10.5 7.9 10.48 7.81 10.43 7.73C10.39 7.65 10.32 7.58 10.24 7.53L6.98 5.54C6.93 5.51 6.88 5.5 6.82 5.5C6.76 5.5 6.71 5.51 6.66 5.54C6.61 5.57 6.57 5.61 6.54 5.65C6.51 5.7 6.5 5.76 6.5 5.82Z" fill="#000000" fill-opacity="1.000000" fill-rule="nonzero"/>
</svg>
