<svg width="24.000000" height="24.000000" viewBox="0 0 24 24" fill="none" xmlns="http://www.w3.org/2000/svg" xmlns:xlink="http://www.w3.org/1999/xlink">
    <desc>
        Created with Pixso.
    </desc>
    <defs/>
    <rect id="Component 6" rx="0.000000" width="23.000000" height="23.000000" transform="translate(0.500000 0.500000)" fill="#FFFFFF" fill-opacity="0"/>
    <path id="Vector" d="M12 22C17.52 22 22 17.52 22 12C22 11.09 21.88 10.21 21.65 9.38C21.56 9.06 21.19 8.94 20.9 9.07C20.06 9.46 19.12 9.59 18.21 9.43C17.3 9.27 16.46 8.83 15.81 8.18C15.16 7.53 14.72 6.69 14.56 5.78C14.4 4.87 14.52 3.93 14.92 3.09C15.05 2.8 14.93 2.43 14.61 2.34C13.76 2.11 12.88 2 12 2C6.47 2 2 6.47 2 12C2 13.6 2.37 15.11 3.04 16.45C3.22 16.8 3.27 17.21 3.17 17.6L2.58 19.82C2.52 20.04 2.52 20.27 2.58 20.5C2.64 20.71 2.75 20.92 2.91 21.08C3.08 21.24 3.28 21.35 3.5 21.41C3.72 21.47 3.95 21.47 4.17 21.41L6.39 20.82C6.78 20.72 7.19 20.77 7.54 20.95C8.93 21.64 10.45 22 12 22Z" fill="#FFD02C" fill-opacity="1.000000" fill-rule="nonzero"/>
    <path id="Vector" d="M22 5C22 6.65 20.65 8 19 8C17.34 8 16 6.65 16 5C16 3.34 17.34 2 19 2C20.65 2 22 3.34 22 5Z" fill="#FFD02C" fill-opacity="1.000000" fill-rule="evenodd"/>
    <path id="+99" d="M10.81 14.75L12.53 14.75L14.14 12.7C14.32 12.47 14.48 12.23 14.6 11.98C14.73 11.72 14.79 11.44 14.79 11.14Q14.79 10.45 14.48 9.98Q14.35 9.79 14.19 9.64Q13.96 9.42 13.65 9.29C13.31 9.13 12.93 9.05 12.52 9.05Q11.89 9.05 11.37 9.29C11.03 9.44 10.75 9.67 10.54 9.98Q10.24 10.45 10.24 11.14C10.24 11.43 10.29 11.68 10.39 11.9C10.49 12.13 10.63 12.32 10.79 12.48Q10.97 12.65 11.18 12.76Q11.26 12.8 11.34 12.84C11.55 12.92 11.76 12.96 11.97 12.96C12.17 12.96 12.34 12.94 12.47 12.9C12.48 12.89 12.48 12.89 12.48 12.89L10.81 14.75ZM16.17 14.75L17.88 14.75L19.49 12.7C19.68 12.47 19.83 12.23 19.95 11.98C20.08 11.72 20.14 11.44 20.14 11.14Q20.14 10.45 19.83 9.98Q19.7 9.79 19.54 9.64Q19.31 9.42 19.01 9.29C18.67 9.13 18.29 9.05 17.87 9.05Q17.24 9.05 16.72 9.29C16.38 9.44 16.1 9.67 15.89 9.98Q15.59 10.45 15.59 11.14C15.59 11.43 15.64 11.68 15.74 11.9C15.84 12.13 15.98 12.32 16.14 12.48Q16.32 12.65 16.54 12.76Q16.61 12.81 16.69 12.84C16.9 12.92 17.11 12.96 17.32 12.96C17.52 12.96 17.69 12.94 17.82 12.9C17.83 12.89 17.83 12.89 17.84 12.89L16.17 14.75ZM13.33 10.65C13.41 10.79 13.45 10.95 13.45 11.14Q13.45 11.39 13.36 11.58Q13.34 11.61 13.33 11.64C13.25 11.78 13.13 11.9 12.99 11.98C12.85 12.06 12.69 12.1 12.52 12.1C12.34 12.1 12.17 12.06 12.03 11.98C11.89 11.9 11.78 11.78 11.69 11.64C11.61 11.5 11.57 11.33 11.57 11.14Q11.57 10.86 11.69 10.65C11.78 10.5 11.89 10.39 12.03 10.32C12.17 10.24 12.34 10.2 12.52 10.2Q12.74 10.2 12.92 10.28Q12.96 10.3 12.99 10.32C13.13 10.39 13.25 10.5 13.33 10.65ZM18.68 10.65C18.76 10.79 18.81 10.95 18.81 11.14Q18.81 11.39 18.71 11.58Q18.69 11.61 18.68 11.64C18.6 11.78 18.49 11.9 18.34 11.98C18.2 12.06 18.05 12.1 17.87 12.1C17.69 12.1 17.53 12.06 17.38 11.98C17.24 11.9 17.13 11.78 17.05 11.64C16.97 11.5 16.93 11.33 16.93 11.14Q16.93 10.86 17.05 10.65C17.13 10.5 17.24 10.39 17.38 10.32C17.53 10.24 17.69 10.2 17.87 10.2Q18.09 10.2 18.28 10.28Q18.31 10.3 18.34 10.32C18.49 10.39 18.6 10.5 18.68 10.65ZM7.77 10.46L6.52 10.46L6.52 12.04L4.97 12.04L4.97 13.21L6.52 13.21L6.52 14.79L7.77 14.79L7.77 13.21L9.32 13.21L9.32 12.04L7.77 12.04L7.77 10.46Z" fill="#000000" fill-opacity="1.000000" fill-rule="evenodd"/>
</svg>
