<svg width="38.000000" height="38.000000" viewBox="0 0 38 38" fill="none" xmlns="http://www.w3.org/2000/svg" xmlns:xlink="http://www.w3.org/1999/xlink">
    <desc>
        Created with Pixso.
    </desc>
    <defs/>
    <rect id="Frame 1261155125" rx="18.500000" width="37.000000" height="37.000000" transform="translate(0.500000 0.500000)" fill="#23AFCE" fill-opacity="1.000000"/>
    <rect id="Property 1=majesticons:play-circle, Icon/Shop=-" rx="0.000000" width="23.000000" height="23.000000" transform="translate(7.500000 7.500000)" fill="#FFFFFF" fill-opacity="0"/>
    <path id="Vector" d="M8 19C8 12.92 12.92 8 19 8C25.07 8 30 12.92 30 19C30 25.07 25.07 30 19 30C12.92 30 8 25.07 8 19ZM16.52 14.11C16.68 14.03 16.86 13.99 17.04 14C17.22 14 17.4 14.06 17.55 14.16L23.55 18.16C23.69 18.25 23.8 18.38 23.88 18.52C23.96 18.67 24 18.83 24 19C24 19.16 23.96 19.32 23.88 19.47C23.8 19.61 23.69 19.74 23.55 19.83L17.55 23.83C17.4 23.93 17.22 23.99 17.04 23.99C16.86 24 16.68 23.96 16.52 23.88C16.36 23.79 16.23 23.66 16.14 23.51C16.04 23.35 16 23.18 16 23L16 15C16 14.81 16.04 14.64 16.14 14.48C16.23 14.33 16.36 14.2 16.52 14.11Z" fill="#FFFFFF" fill-opacity="1.000000" fill-rule="evenodd"/>
    <path id="Vector" d="M8 19C8 12.92 12.92 8 19 8C25.07 8 30 12.92 30 19C30 25.07 25.07 30 19 30C12.92 30 8 25.07 8 19ZM15.16 9.73Q16.92 9 19 9Q21.07 9 22.83 9.73Q24.6 10.46 26.07 11.92Q27.53 13.39 28.26 15.16Q29 16.92 29 19Q29 21.07 28.26 22.83Q27.53 24.6 26.07 26.07Q24.6 27.53 22.83 28.26Q21.07 29 19 29Q16.92 29 15.16 28.26Q13.39 27.53 11.92 26.07Q10.46 24.6 9.73 22.83Q9 21.07 9 19Q9 16.92 9.73 15.16Q10.46 13.39 11.92 11.92Q13.39 10.46 15.16 9.73ZM17.62 13.09Q17.37 13.01 17.09 13Q16.82 12.98 16.56 13.04Q16.3 13.1 16.05 13.23Q15.81 13.36 15.61 13.55Q15.42 13.73 15.28 13.97Q15.14 14.21 15.07 14.46Q15 14.72 15 15L15 22.99Q15 23.27 15.07 23.53Q15.14 23.79 15.28 24.02Q15.42 24.26 15.61 24.44Q15.81 24.63 16.05 24.76Q16.3 24.89 16.56 24.95Q16.82 25.01 17.09 24.99Q17.37 24.98 17.62 24.9Q17.88 24.81 18.1 24.66L24.1 20.66Q24.31 20.52 24.48 20.34Q24.64 20.16 24.76 19.94Q24.88 19.72 24.94 19.48Q25 19.25 25 19Q25 18.74 24.94 18.51Q24.88 18.27 24.76 18.05Q24.64 17.83 24.48 17.65Q24.31 17.47 24.1 17.33L18.11 13.33Q17.87 13.18 17.62 13.09ZM16.52 14.11C16.68 14.03 16.86 13.99 17.04 14C17.22 14 17.4 14.06 17.55 14.16L23.55 18.16C23.69 18.25 23.8 18.38 23.88 18.52C23.96 18.67 24 18.83 24 19C24 19.16 23.96 19.32 23.88 19.47C23.8 19.61 23.69 19.74 23.55 19.83L17.55 23.83C17.4 23.93 17.22 23.99 17.04 23.99C16.86 24 16.68 23.96 16.52 23.88C16.36 23.79 16.23 23.66 16.14 23.51C16.04 23.35 16 23.18 16 23L16 15C16 14.81 16.04 14.64 16.14 14.48C16.23 14.33 16.36 14.2 16.52 14.11Z" fill="#FFFFFF" fill-opacity="1.000000" fill-rule="evenodd"/>
</svg>
