<svg width="9.000977" height="12.001953" viewBox="0 0 9.00098 12.002" fill="none" xmlns="http://www.w3.org/2000/svg" xmlns:xlink="http://www.w3.org/1999/xlink">
    <desc>
        Created with Pixso.
    </desc>
    <defs/>
    <path id="Vector" d="M1.95 12C2.43 12 2.89 11.83 3.25 11.54L8.35 7.33C8.55 7.17 8.72 6.96 8.83 6.74C8.94 6.5 9 6.25 9 6C9 5.74 8.94 5.49 8.83 5.26C8.72 5.03 8.55 4.83 8.35 4.67L3.25 0.46C2.95 0.21 2.58 0.06 2.19 0.01C1.8 -0.04 1.4 0.03 1.04 0.2C0.74 0.33 0.47 0.56 0.29 0.84C0.1 1.12 0 1.45 0 1.79L0 10.21C0 10.54 0.1 10.87 0.29 11.16C0.47 11.44 0.74 11.66 1.04 11.8C1.33 11.93 1.64 12 1.95 12ZM6.81 6L2 10L2 2.09L6.81 6Z" fill="#2D2D2D" fill-opacity="1.000000" fill-rule="nonzero"/>
</svg>
