<svg width="35.000000" height="35.000000" viewBox="0 0 35 35" fill="none" xmlns="http://www.w3.org/2000/svg" xmlns:xlink="http://www.w3.org/1999/xlink">
    <desc>
        Created with Pixso.
    </desc>
    <defs>
        <clipPath id="clip180_14995">
            <rect id="Huge-icon/interface/bulk/logout 01" rx="0.000000" width="34.000000" height="34.000000" transform="translate(0.500000 0.500000)" fill="white" fill-opacity="0"/>
        </clipPath>
    </defs>
    <g clip-path="url(#clip180_14995)">
        <path id="Union" d="M25.47 19.64C25.05 20.07 25.05 20.76 25.47 21.18C25.9 21.61 26.59 21.61 27.02 21.18L28.91 19.3C29.9 18.3 29.9 16.69 28.91 15.69L27.02 13.8C26.59 13.38 25.9 13.38 25.47 13.8C25.05 14.23 25.05 14.92 25.47 15.35L26.52 16.4L18.95 16.4C18.35 16.4 17.86 16.89 17.86 17.5C17.86 18.1 18.35 18.59 18.95 18.59L26.52 18.59L25.47 19.64Z" fill="#2D2D2D" fill-opacity="1.000000" fill-rule="evenodd"/>
        <path id="Vector (Stroke)" d="M16.04 6.58L20.41 6.58C22.63 6.58 24.42 8.38 24.42 10.59C24.42 11.19 23.93 11.69 23.33 11.69C22.72 11.69 22.23 11.19 22.23 10.59C22.23 9.58 21.42 8.77 20.41 8.77L16.04 8.77L16.04 6.58ZM23.33 24.08C23.93 24.08 24.42 24.57 24.42 25.17C24.42 27.39 22.63 29.19 20.41 29.19L16.04 29.19L16.04 27L20.41 27C21.42 27 22.23 26.18 22.23 25.17C22.23 24.57 22.72 24.08 23.33 24.08Z" fill="#2D2D2D" fill-opacity="1.000000" fill-rule="evenodd"/>
        <g opacity="0.400000">
            <path id="Vector" d="M4.37 8.74C4.37 7.69 4.93 6.71 5.85 6.12L10.85 3.45C13.07 2.05 16.04 3.55 16.04 6.07L16.04 28.93C16.04 31.44 13.07 32.94 10.85 31.55L5.85 28.87C4.93 28.28 4.37 27.3 4.37 26.25L4.37 8.74Z" fill="#2D2D2D" fill-opacity="1.000000" fill-rule="evenodd"/>
        </g>
    </g>
</svg>
