<svg width="20.000000" height="17.000000" viewBox="0 0 20 17" fill="none" xmlns="http://www.w3.org/2000/svg" xmlns:xlink="http://www.w3.org/1999/xlink">
    <desc>
        Created with Pixso.
    </desc>
    <defs/>
    <path id="Vector" d="M10.68 1.63L10 2.34L9.31 1.63C7.18 -0.55 3.72 -0.55 1.59 1.63C-0.48 3.76 -0.54 7.19 1.45 9.39L7.18 15.73C8.7 17.42 11.29 17.42 12.81 15.73L18.54 9.39C20.53 7.19 20.47 3.76 18.4 1.63C16.27 -0.55 12.81 -0.55 10.68 1.63Z" fill="#FAFAFA" fill-opacity="1.000000" fill-rule="evenodd"/>
    <path id="Ellipse 1095 (Stroke)" d="M14.25 3.13C14.25 2.72 14.58 2.38 15 2.38C16.51 2.38 17.75 3.61 17.75 5.13C17.75 5.55 17.41 5.88 17 5.88C16.58 5.88 16.25 5.55 16.25 5.13C16.25 4.44 15.69 3.88 15 3.88C14.58 3.88 14.25 3.55 14.25 3.13Z" fill="#CFCFCF" fill-opacity="1.000000" fill-rule="evenodd"/>
</svg>
