<svg width="20.000000" height="20.000000" viewBox="0 0 20 20" fill="none" xmlns="http://www.w3.org/2000/svg" xmlns:xlink="http://www.w3.org/1999/xlink">
    <desc>
        Created with Pixso.
    </desc>
    <defs/>
    <g opacity="0.400000">
        <path id="Vector (Stroke)" d="M16.03 3.73C16.22 4.1 16.07 4.55 15.7 4.73L5.17 10L15.7 15.26C16.07 15.44 16.22 15.9 16.03 16.27C15.85 16.64 15.4 16.79 15.03 16.6L4.29 11.23C3.92 11.05 3.77 10.6 3.95 10.23C4 10.14 4.06 10.06 4.13 10C4.06 9.93 4 9.86 3.95 9.77C3.77 9.4 3.92 8.94 4.29 8.76L15.03 3.39C15.4 3.21 15.85 3.36 16.03 3.73Z" fill="#FAFAFA" fill-opacity="1.000000" fill-rule="evenodd"/>
    </g>
    <path id="Vector" d="M20 3.5C20 5.43 18.43 7 16.5 7C15.12 7 13.94 6.21 13.36 5.06C13.13 4.59 13 4.06 13 3.5C13 1.56 14.56 0 16.5 0C18.43 0 20 1.56 20 3.5ZM6.63 11.56C6.86 11.09 7 10.56 7 10C7 9.43 6.86 8.9 6.63 8.43C6.05 7.28 4.87 6.5 3.5 6.5C1.56 6.5 0 8.06 0 10C0 11.93 1.56 13.5 3.5 13.5C4.87 13.5 6.05 12.71 6.63 11.56ZM20 16.5C20 18.43 18.43 20 16.5 20C14.56 20 13 18.43 13 16.5C13 15.93 13.13 15.4 13.36 14.93C13.94 13.78 15.12 13 16.5 13C18.43 13 20 14.56 20 16.5Z" fill="#FAFAFA" fill-opacity="1.000000" fill-rule="evenodd"/>
</svg>
