<svg width="16.000000" height="16.000000" viewBox="0 0 16 16" fill="none" xmlns="http://www.w3.org/2000/svg" xmlns:xlink="http://www.w3.org/1999/xlink">
    <desc>
        Created with Pixso.
    </desc>
    <defs>
        <clipPath id="clip152_63751">
            <rect id="Huge-icon/interface/bulk/smile-ellipse" rx="0.000000" width="15.000000" height="15.000000" transform="translate(0.500000 0.500000)" fill="white" fill-opacity="0"/>
        </clipPath>
    </defs>
    <g clip-path="url(#clip152_63751)">
        <circle id="Ellipse 40" cx="8.000000" cy="8.000000" r="6.666667" fill="#FFD02C" fill-opacity="1.000000"/>
        <path id="Ellipse 38" d="M11.33 6.66C11.33 7.03 11.03 7.33 10.66 7.33C10.29 7.33 10 7.03 10 6.66C10 6.29 10.29 6 10.66 6C11.03 6 11.33 6.29 11.33 6.66Z" fill="#0E121B" fill-opacity="1.000000" fill-rule="nonzero"/>
        <path id="Ellipse 39" d="M6 6.66C6 7.03 5.7 7.33 5.33 7.33C4.96 7.33 4.66 7.03 4.66 6.66C4.66 6.29 4.96 6 5.33 6C5.7 6 6 6.29 6 6.66Z" fill="#0E121B" fill-opacity="1.000000" fill-rule="nonzero"/>
        <path id="Vector 168 (Stroke)" d="M6.33 9.62C6.12 9.44 5.8 9.46 5.62 9.66C5.44 9.87 5.46 10.18 5.66 10.37L6 10C5.66 10.37 5.66 10.37 5.66 10.37L5.66 10.37L5.66 10.37L5.67 10.37L5.67 10.38L5.68 10.39C5.69 10.39 5.7 10.4 5.72 10.41C5.75 10.44 5.79 10.47 5.85 10.51C5.95 10.58 6.11 10.68 6.31 10.78C6.7 10.97 7.28 11.16 8 11.16C8.71 11.16 9.29 10.97 9.68 10.78C9.88 10.68 10.04 10.58 10.14 10.51C10.2 10.47 10.24 10.44 10.27 10.41C10.29 10.4 10.3 10.39 10.31 10.39L10.32 10.38L10.32 10.37L10.33 10.37L10.33 10.37C10.33 10.37 10.33 10.37 10 10L10.33 10.37C10.53 10.18 10.55 9.87 10.37 9.66C10.19 9.46 9.87 9.44 9.66 9.62L9.66 9.62C9.66 9.62 9.66 9.63 9.65 9.63C9.63 9.64 9.61 9.66 9.57 9.69C9.5 9.74 9.39 9.81 9.25 9.88C8.95 10.02 8.53 10.16 8 10.16C7.46 10.16 7.04 10.02 6.74 9.88C6.6 9.81 6.49 9.74 6.42 9.69C6.38 9.66 6.36 9.64 6.34 9.63C6.33 9.63 6.33 9.62 6.33 9.62C6.33 9.62 6.33 9.62 6.33 9.62ZM9.66 9.62L9.66 9.62L9.66 9.62L9.66 9.62C9.66 9.62 9.66 9.62 9.66 9.62Z" fill="#0E121B" fill-opacity="1.000000" fill-rule="evenodd"/>
    </g>
</svg>
