<svg width="19.500000" height="20.750000" viewBox="0 0 19.5 20.75" fill="none" xmlns="http://www.w3.org/2000/svg" xmlns:xlink="http://www.w3.org/1999/xlink">
    <desc>
        Created with Pixso.
    </desc>
    <defs/>
    <g opacity="0.400000">
        <path id="Vector" d="M12.02 20.75L7.47 20.75C5.37 20.75 3.63 19.12 3.48 17.03L2.76 4.91C4.88 4.16 7.25 3.75 9.75 3.75C12.24 3.75 14.61 4.16 16.73 4.91L16.01 17.03C15.86 19.12 14.12 20.75 12.02 20.75Z" fill="#2D2D2D" fill-opacity="1.000000" fill-rule="evenodd"/>
    </g>
    <path id="Vector (Stroke)" d="M12.5 3.16L12.5 2.75C12.5 1.23 11.26 0 9.75 0C8.23 0 7 1.23 7 2.75L7 3.16C4.61 3.45 2.38 4.11 0.42 5.07C0.04 5.25 -0.11 5.7 0.07 6.07C0.25 6.44 0.7 6.6 1.07 6.42C3.57 5.21 6.54 4.5 9.75 4.5C12.95 4.5 15.92 5.21 18.42 6.42C18.79 6.6 19.24 6.44 19.42 6.07C19.6 5.7 19.45 5.25 19.07 5.07C17.11 4.11 14.88 3.45 12.5 3.16Z" fill="#2D2D2D" fill-opacity="1.000000" fill-rule="evenodd"/>
    <path id="Vector 836 (Stroke)" d="M7.75 8C8.16 8 8.5 8.33 8.5 8.75L8.5 14.75C8.5 15.16 8.16 15.5 7.75 15.5C7.33 15.5 7 15.16 7 14.75L7 8.75C7 8.33 7.33 8 7.75 8Z" fill="#2D2D2D" fill-opacity="1.000000" fill-rule="evenodd"/>
    <path id="Vector 837 (Stroke)" d="M11.75 8C12.16 8 12.5 8.33 12.5 8.75L12.5 14.75C12.5 15.16 12.16 15.5 11.75 15.5C11.33 15.5 11 15.16 11 14.75L11 8.75C11 8.33 11.33 8 11.75 8Z" fill="#2D2D2D" fill-opacity="1.000000" fill-rule="evenodd"/>
</svg>
