<svg width="14.016235" height="14.017578" viewBox="0 0 14.0162 14.0176" fill="none" xmlns="http://www.w3.org/2000/svg" xmlns:xlink="http://www.w3.org/1999/xlink">
    <desc>
        Created with Pixso.
    </desc>
    <defs/>
    <path id="Vector" d="M10.38 1.1L3.89 3.27C2.25 3.81 1.44 4.08 1.11 4.4C0.91 4.58 0.76 4.81 0.65 5.05C0.55 5.3 0.5 5.57 0.5 5.84C0.5 6.11 0.55 6.37 0.65 6.62C0.76 6.87 0.91 7.09 1.11 7.28C1.43 7.59 2.25 7.86 3.88 8.41C4.21 8.52 4.38 8.57 4.52 8.65C4.88 8.84 5.17 9.13 5.36 9.48C5.43 9.63 5.49 9.79 5.6 10.12C6.14 11.75 6.42 12.57 6.73 12.9C6.91 13.09 7.14 13.25 7.39 13.35C7.63 13.46 7.9 13.51 8.17 13.51C8.44 13.51 8.71 13.46 8.95 13.35C9.2 13.25 9.43 13.09 9.61 12.9C9.93 12.57 10.2 11.75 10.74 10.12L12.91 3.63C13.46 1.98 13.73 1.15 13.3 0.71C12.86 0.27 12.03 0.55 10.38 1.1L10.38 1.1Z" fill="#2D2D2D" fill-opacity="1.000000" fill-rule="nonzero"/>
    <path id="Vector" d="M3.89 3.27C2.25 3.81 1.44 4.08 1.11 4.4C0.91 4.58 0.76 4.81 0.65 5.05C0.55 5.3 0.5 5.57 0.5 5.84C0.5 6.11 0.55 6.37 0.65 6.62C0.76 6.87 0.91 7.09 1.11 7.28C1.43 7.59 2.25 7.86 3.88 8.41C4.21 8.52 4.38 8.57 4.52 8.65C4.88 8.84 5.17 9.13 5.36 9.48C5.43 9.63 5.49 9.79 5.6 10.12C6.14 11.75 6.42 12.57 6.73 12.9C6.91 13.09 7.14 13.25 7.39 13.35C7.63 13.46 7.9 13.51 8.17 13.51C8.44 13.51 8.71 13.46 8.95 13.35C9.2 13.25 9.43 13.09 9.61 12.9C9.93 12.57 10.2 11.75 10.74 10.12L12.91 3.63C13.46 1.98 13.73 1.15 13.3 0.71C12.86 0.27 12.03 0.55 10.38 1.1L10.38 1.1L3.89 3.27Z" stroke="#FAFAFA" stroke-opacity="1.000000" stroke-width="1.000000"/>
</svg>
