<svg width="13.333984" height="13.332031" viewBox="0 0 13.334 13.332" fill="none" xmlns="http://www.w3.org/2000/svg" xmlns:xlink="http://www.w3.org/1999/xlink">
    <desc>
        Created with Pixso.
    </desc>
    <defs/>
    <g opacity="0.400000">
        <circle id="Ellipse 1112" cx="6.666016" cy="6.667969" r="6.666667" fill="#E93535" fill-opacity="1.000000"/>
    </g>
    <path id="Ellipse 1113" d="M5.99 10C5.99 9.63 6.29 9.33 6.66 9.33C7.03 9.33 7.33 9.63 7.33 10C7.33 10.37 7.03 10.66 6.66 10.66C6.29 10.66 5.99 10.37 5.99 10Z" fill="#E93535" fill-opacity="1.000000" fill-rule="nonzero"/>
    <path id="Vector 2610 (Stroke)" d="M6.66 8.5C6.39 8.5 6.16 8.27 6.16 8L6.16 3.33C6.16 3.05 6.39 2.83 6.66 2.83C6.94 2.83 7.16 3.05 7.16 3.33L7.16 8C7.16 8.27 6.94 8.5 6.66 8.5Z" fill="#E93535" fill-opacity="1.000000" fill-rule="evenodd"/>
</svg>
