<svg width="14.000000" height="13.000420" viewBox="0 0 14 13.0004" fill="none" xmlns="http://www.w3.org/2000/svg" xmlns:xlink="http://www.w3.org/1999/xlink">
	<desc>
			Created with Pixso.
	</desc>
	<defs/>
	<path id="Vector" d="M8.34 0.81L9.47 2.96C9.55 3.12 9.67 3.26 9.82 3.36C9.96 3.47 10.13 3.53 10.31 3.56L12.68 3.88C13.95 4.06 14.45 5.62 13.51 6.49L11.88 7.99C11.74 8.12 11.64 8.28 11.58 8.46C11.52 8.64 11.51 8.83 11.54 9.01L11.94 11.21C12.16 12.44 10.88 13.39 9.76 12.83L7.5 11.71C7.34 11.63 7.17 11.59 7 11.59C6.82 11.59 6.65 11.63 6.49 11.71L4.23 12.83C3.11 13.39 1.83 12.44 2.05 11.21L2.45 9.01C2.52 8.64 2.39 8.25 2.11 7.99L0.48 6.49C-0.46 5.63 0.04 4.06 1.31 3.88L3.68 3.56C3.86 3.53 4.03 3.47 4.17 3.36C4.32 3.26 4.44 3.12 4.52 2.96L5.65 0.81C6.22 -0.28 7.78 -0.28 8.34 0.81Z" fill="#000000" fill-opacity="1.000000" fill-rule="nonzero"/>
</svg>
