<svg width="12.000000" height="10.000000" viewBox="0 0 12 10" fill="none" xmlns="http://www.w3.org/2000/svg" xmlns:xlink="http://www.w3.org/1999/xlink">
	<desc>
			Created with Pixso.
	</desc>
	<defs/>
	<path id="Vector" d="M0 2.5C0 1.83 0.26 1.2 0.73 0.73C1.2 0.26 1.83 0 2.5 0L9.5 0C10.16 0 10.79 0.26 11.26 0.73C11.73 1.2 12 1.83 12 2.5L12 7.5C12 8.16 11.73 8.79 11.26 9.26C10.79 9.73 10.16 10 9.5 10L2.5 10C1.83 10 1.2 9.73 0.73 9.26C0.26 8.79 0 8.16 0 7.5L0 2.5ZM4.5 2.82L4.5 7.18C4.5 7.43 4.77 7.58 4.98 7.45L8.24 5.46C8.32 5.41 8.39 5.34 8.43 5.26C8.48 5.18 8.5 5.09 8.5 5C8.5 4.9 8.48 4.81 8.43 4.73C8.39 4.65 8.32 4.58 8.24 4.53L4.98 2.54C4.93 2.51 4.88 2.5 4.82 2.5C4.76 2.5 4.71 2.51 4.66 2.54C4.61 2.57 4.57 2.61 4.54 2.65C4.51 2.7 4.5 2.76 4.5 2.82Z" fill="#000000" fill-opacity="1.000000" fill-rule="nonzero"/>
</svg>
