<svg width="24.000000" height="24.000000" viewBox="0 0 24 24" fill="none" xmlns="http://www.w3.org/2000/svg" xmlns:xlink="http://www.w3.org/1999/xlink">
	<desc>
			Created with Pixso.
	</desc>
	<defs/>
	<rect id="Component 5" rx="0.000000" width="23.000000" height="23.000000" transform="translate(0.500000 0.500000)" fill="#FFFFFF" fill-opacity="0"/>
	<path id="Vector" d="M13.53 18C13.06 18 12.6 17.83 12.23 17.54L7.13 13.33C6.93 13.17 6.77 12.96 6.66 12.73C6.55 12.5 6.49 12.25 6.49 12C6.49 11.74 6.55 11.49 6.66 11.26C6.77 11.03 6.93 10.82 7.13 10.66L12.23 6.45C12.54 6.21 12.91 6.05 13.3 6.01C13.69 5.96 14.09 6.03 14.44 6.2C14.75 6.33 15.02 6.55 15.2 6.84C15.39 7.12 15.49 7.45 15.5 7.79L15.5 16.2C15.49 16.54 15.39 16.87 15.2 17.15C15.02 17.44 14.75 17.66 14.44 17.79C14.16 17.93 13.85 17.99 13.53 18ZM8.67 12L13.5 16L13.5 8.08L8.67 12Z" fill="#FAFAFA" fill-opacity="1.000000" fill-rule="nonzero"/>
</svg>
