<svg width="32.000000" height="32.000000" viewBox="0 0 32 32" fill="none" xmlns="http://www.w3.org/2000/svg" xmlns:xlink="http://www.w3.org/1999/xlink">
	<desc>
			Created with Pixso.
	</desc>
	<defs>
		<clipPath id="clip2_25184">
			<rect id="Huge-icon/interface/bulk/notification-ringing" rx="0.000000" width="31.000000" height="31.000000" transform="translate(0.500000 0.500000)" fill="white" fill-opacity="0"/>
		</clipPath>
	</defs>
	<rect id="Property 1=Huge-icon, Property 2=interface, Property 3=bulk, Property 4=notification-ringing" rx="0.000000" width="31.000000" height="31.000000" transform="translate(0.500000 0.500000)" fill="#FFFFFF" fill-opacity="0"/>
	<g clip-path="url(#clip2_25184)">
		<path id="Rectangle 143 (Stroke)" d="M20.38 5.01C20.55 4.49 21.12 4.2 21.64 4.38L21.85 4.45C24.54 5.34 26.65 7.45 27.54 10.14L27.61 10.35C27.79 10.87 27.5 11.44 26.98 11.61C26.45 11.79 25.89 11.5 25.71 10.98L25.64 10.77C24.95 8.68 23.31 7.04 21.22 6.35L21.01 6.28C20.49 6.1 20.2 5.54 20.38 5.01Z" fill="#FFD02C" fill-opacity="1.000000" fill-rule="evenodd"/>
		<path id="Ellipse 219" d="M20 25.33C19.41 26.88 17.84 28 16 28C14.15 28 12.58 26.88 12 25.33L20 25.33Z" fill="#FFD02C" fill-opacity="1.000000" fill-rule="evenodd"/>
		<g opacity="0.400000">
			<path id="Rectangle 145" d="M7.57 14.39C8.07 9.98 11.69 6.66 16 6.66C20.3 6.66 23.92 9.98 24.42 14.39L24.88 18.45C25 19.45 25.41 20.4 26.05 21.17C27.43 22.79 26.31 25.33 24.22 25.33L7.77 25.33C5.68 25.33 4.56 22.79 5.94 21.17C6.58 20.4 6.99 19.45 7.11 18.45L7.57 14.39Z" fill="#FFD02C" fill-opacity="1.000000" fill-rule="evenodd"/>
		</g>
		<path id="Rectangle 144 (Stroke)" d="M11.61 5.01C11.44 4.49 10.87 4.2 10.35 4.38L10.14 4.45C7.45 5.34 5.34 7.45 4.45 10.14L4.38 10.35C4.2 10.87 4.49 11.44 5.01 11.61C5.54 11.79 6.1 11.5 6.28 10.98L6.35 10.77C7.04 8.68 8.68 7.04 10.77 6.35L10.98 6.28C11.5 6.1 11.79 5.54 11.61 5.01Z" fill="#FFD02C" fill-opacity="1.000000" fill-rule="evenodd"/>
	</g>
</svg>
