<svg width="32.000000" height="32.000000" viewBox="0 0 32 32" fill="none" xmlns="http://www.w3.org/2000/svg" xmlns:xlink="http://www.w3.org/1999/xlink">
	<desc>
			Created with Pixso.
	</desc>
	<defs>
		<clipPath id="clip2_25268">
			<rect id="Huge-icon/interface/bulk/training" rx="0.000000" width="31.000000" height="31.000000" transform="translate(0.500000 0.500000)" fill="white" fill-opacity="0"/>
		</clipPath>
	</defs>
	<g clip-path="url(#clip2_25268)">
		<g opacity="0.400000">
			<path id="Vector 2968" d="M8 5.33L8 13.33C8 14.8 9.19 16 10.66 16L26.66 16C28.13 16 29.33 14.8 29.33 13.33L29.33 5.33C29.33 3.86 28.13 2.66 26.66 2.66L10.66 2.66C9.19 2.66 8 3.86 8 5.33Z" fill="#2D2D2D" fill-opacity="1.000000" fill-rule="evenodd"/>
		</g>
		<path id="Vector 2967 (Stroke)" d="M23.23 11.17C23.68 11.49 23.8 12.11 23.48 12.56L16.91 20.72L15.27 19.58L21.84 11.43C22.15 10.97 22.78 10.86 23.23 11.17Z" fill="#2D2D2D" fill-opacity="1.000000" fill-rule="evenodd"/>
		<circle id="Ellipse 1189" cx="6.666016" cy="12.000000" r="2.666667" fill="#2D2D2D" fill-opacity="1.000000"/>
		<path id="Vector" d="M10.66 20.66L10.66 20C10.66 17.79 8.87 16 6.66 16C4.45 16 2.66 17.79 2.66 20L2.66 28.33C2.66 28.88 3.11 29.33 3.66 29.33L9.66 29.33C10.21 29.33 10.66 28.88 10.66 28.33L10.66 24.9C11.01 24.85 11.36 24.73 11.68 24.52L17.05 21.67C17.94 21.11 18.23 19.94 17.68 19.03C17.12 18.1 15.9 17.81 14.99 18.4L10.66 20.66Z" fill="#2D2D2D" fill-opacity="1.000000" fill-rule="evenodd"/>
		<path id="Vector 2969 (Stroke)" d="M12.33 8C12.33 7.44 12.78 7 13.33 7L24 7C24.55 7 25 7.44 25 8C25 8.55 24.55 9 24 9L13.33 9C12.78 9 12.33 8.55 12.33 8Z" fill="#2D2D2D" fill-opacity="1.000000" fill-rule="evenodd"/>
		<path id="Vector 2970 (Stroke)" d="M12.33 12C12.33 11.44 12.78 11 13.33 11L18.66 11C19.21 11 19.66 11.44 19.66 12C19.66 12.55 19.21 13 18.66 13L13.33 13C12.78 13 12.33 12.55 12.33 12Z" fill="#2D2D2D" fill-opacity="1.000000" fill-rule="evenodd"/>
	</g>
</svg>
