<svg width="24.000000" height="24.000000" viewBox="0 0 24 24" fill="none" xmlns="http://www.w3.org/2000/svg" xmlns:xlink="http://www.w3.org/1999/xlink">
	<desc>
			Created with Pixso.
	</desc>
	<defs/>
	<rect id="Component 5" rx="0.000000" width="23.000000" height="23.000000" transform="matrix(-1 0 0 1 24.5 0.5)" fill="#FFFFFF" fill-opacity="0"/>
	<path id="Vector" d="M10.46 18C10.93 18 11.39 17.83 11.76 17.54L16.86 13.33C17.06 13.17 17.22 12.96 17.33 12.73C17.44 12.5 17.5 12.25 17.5 12C17.5 11.74 17.44 11.49 17.33 11.26C17.22 11.03 17.06 10.82 16.86 10.66L11.76 6.45C11.45 6.21 11.08 6.05 10.69 6.01C10.3 5.96 9.9 6.03 9.55 6.2C9.24 6.33 8.97 6.55 8.79 6.84C8.6 7.12 8.5 7.45 8.5 7.79L8.5 16.2C8.5 16.54 8.6 16.87 8.79 17.15C8.97 17.44 9.24 17.66 9.55 17.79C9.83 17.93 10.14 17.99 10.46 18ZM15.32 12L10.5 16L10.5 8.08L15.32 12Z" fill="#2D2D2D" fill-opacity="1.000000" fill-rule="nonzero"/>
</svg>
