<svg width="24.000000" height="24.000000" viewBox="0 0 24 24" fill="none" xmlns="http://www.w3.org/2000/svg" xmlns:xlink="http://www.w3.org/1999/xlink">
	<desc>
			Created with Pixso.
	</desc>
	<defs>
		<clipPath id="clip10_23536">
			<rect id="Huge-icon/interface/bulk/trash" rx="0.000000" width="23.000000" height="23.000000" transform="translate(0.500000 0.500000)" fill="white" fill-opacity="0"/>
		</clipPath>
	</defs>
	<rect id="Property 1=Huge-icon, Property 2=interface, Property 3=bulk, Property 4=trash" rx="0.000000" width="23.000000" height="23.000000" transform="translate(0.500000 0.500000)" fill="#FFFFFF" fill-opacity="0"/>
	<g clip-path="url(#clip10_23536)">
		<g opacity="0.400000">
			<path id="Vector 304" d="M8.75 22.75L14.75 22.75C16.95 22.75 18.75 20.95 18.75 18.75L18.75 5.75L4.75 5.75L4.75 18.75C4.75 20.95 6.54 22.75 8.75 22.75Z" fill="#E93535" fill-opacity="1.000000" fill-rule="evenodd"/>
		</g>
		<path id="Vector 305 (Stroke)" d="M13.75 10C14.16 10 14.5 10.33 14.5 10.75L14.5 16.75C14.5 17.16 14.16 17.5 13.75 17.5C13.33 17.5 13 17.16 13 16.75L13 10.75C13 10.33 13.33 10 13.75 10Z" fill="#E93535" fill-opacity="1.000000" fill-rule="evenodd"/>
		<path id="Vector 306 (Stroke)" d="M9.75 10C10.16 10 10.5 10.33 10.5 10.75L10.5 16.75C10.5 17.16 10.16 17.5 9.75 17.5C9.33 17.5 9 17.16 9 16.75L9 10.75C9 10.33 9.33 10 9.75 10Z" fill="#E93535" fill-opacity="1.000000" fill-rule="evenodd"/>
		<path id="Rectangle 91 (Stroke)" d="M8.53 3.22C9.04 2.45 9.9 2 10.82 2L12.67 2C13.59 2 14.45 2.45 14.96 3.22L16.15 5L20.75 5C21.16 5 21.5 5.33 21.5 5.75C21.5 6.16 21.16 6.5 20.75 6.5L2.75 6.5C2.33 6.5 2 6.16 2 5.75C2 5.33 2.33 5 2.75 5L7.34 5L8.53 3.22Z" fill="#E93535" fill-opacity="1.000000" fill-rule="evenodd"/>
	</g>
</svg>
