<svg width="32.000000" height="32.000000" viewBox="0 0 32 32" fill="none" xmlns="http://www.w3.org/2000/svg" xmlns:xlink="http://www.w3.org/1999/xlink">
	<desc>
			Created with Pixso.
	</desc>
	<defs>
		<clipPath id="clip2_25423">
			<rect id="Huge-icon/interface/bulk/like" rx="0.000000" width="31.000000" height="31.000000" transform="translate(0.500000 0.500000)" fill="white" fill-opacity="0"/>
		</clipPath>
	</defs>
	<rect id="Property 1=Huge-icon, Property 2=interface, Property 3=bulk, Property 4=like" rx="0.000000" width="31.000000" height="31.000000" transform="translate(0.500000 0.500000)" fill="#FFFFFF" fill-opacity="0"/>
	<g clip-path="url(#clip2_25423)">
		<path id="Vector 1047" d="M8 10.66L5.33 10.66C3.85 10.66 2.66 11.85 2.66 13.33L2.66 25.33C2.66 26.8 3.85 28 5.33 28L8 28C9.47 28 10.66 26.8 10.66 25.33L10.66 13.33C10.66 11.85 9.47 10.66 8 10.66Z" fill="#FFD02C" fill-opacity="1.000000" fill-rule="evenodd"/>
		<g opacity="0.400000">
			<path id="Vector 1051" d="M21.16 28L16.28 28C15.22 28 14.19 27.68 13.32 27.1L11.25 25.72C10.88 25.48 10.66 25.06 10.66 24.61L10.66 13.68C10.66 13.45 10.72 13.22 10.84 13.02L15.71 4.5C15.88 4.19 16.22 4 16.58 4L17.77 4C20.43 4 22.02 6.96 20.54 9.18L18.66 12L25.91 12C27.65 12 28.92 13.63 28.5 15.31L26.34 23.96C25.75 26.33 23.61 28 21.16 28Z" fill="#FFD02C" fill-opacity="1.000000" fill-rule="evenodd"/>
		</g>
	</g>
</svg>
