<svg width="44.000000" height="44.000000" viewBox="0 0 44 44" fill="none" xmlns="http://www.w3.org/2000/svg" xmlns:xlink="http://www.w3.org/1999/xlink">
	<desc>
			Created with Pixso.
	</desc>
	<defs/>
	<rect id="Icon" rx="15.500000" width="43.000000" height="43.000000" transform="translate(0.500000 0.500000)" fill="#FAFAFA" fill-opacity="1.000000"/>
	<rect id="Property 1=Right" rx="0.000000" width="23.000000" height="23.000000" transform="translate(10.500000 10.500000)" fill="#FFFFFF" fill-opacity="0"/>
	<path id="Vector" d="M18.95 28C19.43 28 19.89 27.83 20.25 27.54L25.35 23.33C25.55 23.17 25.71 22.96 25.83 22.73C25.94 22.5 26 22.25 26 22C26 21.74 25.94 21.49 25.83 21.26C25.71 21.03 25.55 20.83 25.35 20.67L20.25 16.46C19.95 16.21 19.58 16.06 19.19 16.01C18.8 15.96 18.4 16.03 18.04 16.2C17.73 16.33 17.47 16.55 17.28 16.84C17.1 17.12 17 17.45 17 17.79L17 26.21C17 26.54 17.1 26.87 17.28 27.16C17.47 27.44 17.73 27.66 18.04 27.8C18.33 27.93 18.64 28 18.95 28ZM23.82 22L19 26L19 18.09L23.82 22Z" fill="#0B3142" fill-opacity="1.000000" fill-rule="nonzero"/>
</svg>
