<svg width="27.984375" height="22.000000" viewBox="0 0 27.9844 22" fill="none" xmlns="http://www.w3.org/2000/svg" xmlns:xlink="http://www.w3.org/1999/xlink">
	<desc>
			Created with Pixso.
	</desc>
	<defs/>
	<g opacity="0.200000">
		<path id="Vector" d="M13.57 21.3C13.26 21.55 12.91 21.74 12.54 21.86C12.16 21.98 11.77 22.02 11.37 21.98C10.98 21.95 10.6 21.83 10.25 21.65C9.9 21.47 9.59 21.22 9.34 20.91L2.67 12.91C2.41 12.61 2.21 12.26 2.08 11.88C1.96 11.5 1.91 11.1 1.94 10.7C1.97 10.3 2.08 9.92 2.27 9.56C2.45 9.21 2.7 8.89 3.01 8.63C3.32 8.38 3.67 8.19 4.06 8.07C4.44 7.95 4.84 7.91 5.24 7.95C5.64 8 6.02 8.12 6.37 8.31C6.73 8.5 7.03 8.76 7.28 9.08L13.95 17.08C14.46 17.69 14.71 18.47 14.63 19.27C14.56 20.06 14.18 20.79 13.57 21.3Z" fill="#000000" fill-opacity="1.000000" fill-rule="evenodd"/>
		<path id="Vector" d="M13.57 0.69C14.18 1.2 14.56 1.93 14.63 2.72C14.71 3.52 14.46 4.3 13.95 4.91L7.28 12.91C6.77 13.5 6.04 13.87 5.26 13.93C4.48 13.99 3.71 13.75 3.11 13.24C2.5 12.74 2.12 12.03 2.04 11.25C1.96 10.47 2.19 9.69 2.68 9.08L9.34 1.08C9.59 0.77 9.9 0.52 10.25 0.34C10.6 0.16 10.98 0.04 11.38 0.01C11.77 -0.03 12.16 0.01 12.54 0.13C12.92 0.25 13.26 0.44 13.57 0.69Z" fill="#000000" fill-opacity="1.000000" fill-rule="evenodd"/>
		<path id="Vector" d="M5.98 11C5.98 10.2 6.3 9.44 6.86 8.87C7.42 8.31 8.18 8 8.98 8L24.98 8C25.77 8 26.54 8.31 27.1 8.87C27.66 9.44 27.98 10.2 27.98 11C27.98 11.79 27.66 12.55 27.1 13.12C26.54 13.68 25.77 14 24.98 14L8.98 14C8.18 14 7.42 13.68 6.86 13.12C6.3 12.55 5.98 11.79 5.98 11Z" fill="#000000" fill-opacity="1.000000" fill-rule="evenodd"/>
	</g>
	<path id="Vector" d="M8.29 18.76C8.08 18.93 7.82 19.01 7.56 18.99C7.29 18.97 7.05 18.84 6.88 18.63L0.21 10.63C0.05 10.43 -0.03 10.17 0 9.91C0.03 9.65 0.16 9.41 0.35 9.25C0.56 9.08 0.81 9 1.07 9.02C1.33 9.04 1.58 9.16 1.75 9.36L8.41 17.36C8.58 17.56 8.66 17.82 8.64 18.09C8.62 18.35 8.49 18.59 8.29 18.76Z" fill="#000000" fill-opacity="1.000000" fill-rule="evenodd"/>
	<path id="Vector" d="M8.29 1.23C8.49 1.4 8.62 1.64 8.64 1.9C8.66 2.17 8.58 2.43 8.41 2.63L1.75 10.63C1.58 10.83 1.33 10.95 1.07 10.97C0.81 10.99 0.56 10.91 0.35 10.74C0.16 10.58 0.03 10.34 0 10.08C-0.03 9.82 0.05 9.56 0.21 9.35L6.88 1.35C7.05 1.15 7.29 1.02 7.56 1C7.82 0.98 8.08 1.06 8.29 1.23Z" fill="#000000" fill-opacity="1.000000" fill-rule="evenodd"/>
	<path id="Vector" d="M0.98 10C0.98 9.73 1.08 9.48 1.27 9.29C1.46 9.1 1.71 9 1.98 9L20.98 9C21.25 9 21.5 9.1 21.69 9.29C21.87 9.48 21.98 9.73 21.98 10C21.98 10.26 21.87 10.51 21.69 10.7C21.5 10.89 21.25 11 20.98 11L1.98 11C1.71 11 1.46 10.89 1.27 10.7C1.08 10.51 0.98 10.26 0.98 10Z" fill="#000000" fill-opacity="1.000000" fill-rule="evenodd"/>
</svg>
