<svg width="32.000000" height="32.000000" viewBox="0 0 32 32" fill="none" xmlns="http://www.w3.org/2000/svg" xmlns:xlink="http://www.w3.org/1999/xlink">
	<desc>
			Created with Pixso.
	</desc>
	<defs>
		<clipPath id="clip2_24971">
			<rect id="Huge-icon/interface/bulk/open book" rx="0.000000" width="31.000000" height="31.000000" transform="translate(0.500000 0.500000)" fill="white" fill-opacity="0"/>
		</clipPath>
	</defs>
	<g clip-path="url(#clip2_24971)">
		<g opacity="0.400000">
			<path id="Vector" d="M5.32 4.01C8.28 4.34 12.25 5.24 15.08 7.23C15.36 7.42 15.68 7.51 16 7.51L16 28C15.68 28 15.36 27.9 15.08 27.71C12.25 25.72 8.28 24.83 5.32 24.49C3.86 24.33 2.66 23.1 2.66 21.59L2.66 6.58C2.66 5.07 3.86 3.84 5.32 4.01Z" fill="#FFD02C" fill-opacity="1.000000" fill-rule="evenodd"/>
		</g>
		<path id="Vector (Stroke)" d="M5.67 10.85C5.76 10.3 6.27 9.93 6.81 10.01C8.55 10.28 10.51 10.73 12.36 11.45C12.87 11.65 13.13 12.22 12.93 12.74C12.73 13.25 12.15 13.51 11.63 13.31C9.96 12.66 8.15 12.24 6.51 11.99C5.96 11.91 5.59 11.39 5.67 10.85Z" fill="#FFD02C" fill-opacity="1.000000" fill-rule="evenodd"/>
		<path id="Vector (Stroke)" d="M5.67 16.18C5.76 15.64 6.27 15.26 6.81 15.35C7.69 15.48 8.63 15.66 9.57 15.9C10.11 16.04 10.43 16.58 10.3 17.12C10.16 17.65 9.62 17.98 9.08 17.84C8.21 17.62 7.33 17.45 6.51 17.32C5.96 17.24 5.59 16.73 5.67 16.18Z" fill="#FFD02C" fill-opacity="1.000000" fill-rule="evenodd"/>
		<path id="Vector" d="M26.67 4.01C23.71 4.34 19.74 5.24 16.91 7.23C16.63 7.42 16.31 7.51 16 7.51L16 28C16.31 28 16.63 27.9 16.91 27.71C19.74 25.72 23.71 24.83 26.67 24.49C28.13 24.33 29.33 23.1 29.33 21.59L29.33 6.58C29.33 5.07 28.13 3.84 26.67 4.01Z" fill="#FFD02C" fill-opacity="1.000000" fill-rule="evenodd"/>
	</g>
</svg>
