<svg width="16.000000" height="16.000000" viewBox="0 0 16 16" fill="none" xmlns="http://www.w3.org/2000/svg" xmlns:xlink="http://www.w3.org/1999/xlink">
	<desc>
			Created with Pixso.
	</desc>
	<defs/>
	<g opacity="0.400000">
		<path id="Rectangle 959" d="M6 2C6 0.89 6.89 0 8 0C9.1 0 10 0.89 10 2L10 14C10 15.1 9.1 16 8 16C6.89 16 6 15.1 6 14L6 2Z" fill="#FFD02C" fill-opacity="1.000000" fill-rule="evenodd"/>
	</g>
	<path id="Rectangle 958" d="M14 6C15.1 6 16 6.89 16 8C16 9.1 15.1 10 14 10L2 10C0.89 10 0 9.1 0 8C0 6.89 0.89 6 2 6L14 6Z" fill="#FFD02C" fill-opacity="1.000000" fill-rule="evenodd"/>
</svg>
