<svg width="44.000000" height="44.000000" viewBox="0 0 44 44" fill="none" xmlns="http://www.w3.org/2000/svg" xmlns:xlink="http://www.w3.org/1999/xlink">
	<desc>
			Created with Pixso.
	</desc>
	<defs/>
	<rect id="Icon" rx="15.500000" width="43.000000" height="43.000000" transform="translate(0.500000 0.500000)" fill="#FAFAFA" fill-opacity="1.000000"/>
	<rect id="Component 5" rx="0.000000" width="23.000000" height="23.000000" transform="translate(10.500000 10.500000)" fill="#FFFFFF" fill-opacity="0"/>
	<path id="Vector" d="M23.54 28C23.06 28 22.6 27.83 22.24 27.54L17.14 23.33C16.94 23.17 16.78 22.96 16.66 22.73C16.55 22.5 16.5 22.25 16.5 22C16.5 21.74 16.55 21.49 16.66 21.26C16.78 21.03 16.94 20.82 17.14 20.66L22.24 16.45C22.54 16.21 22.91 16.05 23.3 16.01C23.69 15.96 24.09 16.03 24.45 16.2C24.76 16.33 25.02 16.55 25.21 16.84C25.39 17.12 25.49 17.45 25.5 17.79L25.5 26.21C25.49 26.54 25.39 26.87 25.21 27.15C25.02 27.44 24.76 27.66 24.45 27.79C24.16 27.93 23.85 27.99 23.54 28ZM18.67 22L23.5 26L23.5 18.08L18.67 22Z" fill="#0B3142" fill-opacity="1.000000" fill-rule="nonzero"/>
</svg>
