<svg width="32.000000" height="32.000000" viewBox="0 0 32 32" fill="none" xmlns="http://www.w3.org/2000/svg" xmlns:xlink="http://www.w3.org/1999/xlink">
	<desc>
			Created with Pixso.
	</desc>
	<defs>
		<clipPath id="clip2_25279">
			<rect id="Huge-icon/interface/bulk/user-circle" rx="0.000000" width="31.000000" height="31.000000" transform="translate(0.500000 0.500000)" fill="white" fill-opacity="0"/>
		</clipPath>
	</defs>
	<rect id="Property 1=Huge-icon, Property 2=interface, Property 3=bulk, Property 4=user-circle" rx="0.000000" width="31.000000" height="31.000000" transform="translate(0.500000 0.500000)" fill="#FFFFFF" fill-opacity="0"/>
	<g clip-path="url(#clip2_25279)">
		<g opacity="0.400000">
			<path id="Vector" d="M29.33 16C29.33 20.01 27.55 23.62 24.74 26.06C22.4 28.1 19.34 29.33 16 29.33C12.65 29.33 9.59 28.1 7.25 26.06C4.44 23.62 2.66 20.01 2.66 16C2.66 8.63 8.63 2.66 16 2.66C23.36 2.66 29.33 8.63 29.33 16Z" fill="#2D2D2D" fill-opacity="1.000000" fill-rule="evenodd"/>
		</g>
		<circle id="Ellipse 99" cx="16.000000" cy="13.333008" r="4.000000" fill="#2D2D2D" fill-opacity="1.000000"/>
		<path id="Vector" d="M15.99 20C20 20 23.41 22.52 24.74 26.06C22.4 28.1 19.34 29.33 15.99 29.33C12.65 29.33 9.59 28.1 7.25 26.06C8.57 22.52 11.99 20 15.99 20Z" fill="#2D2D2D" fill-opacity="1.000000" fill-rule="evenodd"/>
	</g>
</svg>
