<svg width="52.000000" height="54.000000" viewBox="0 0 52 54" fill="none" xmlns="http://www.w3.org/2000/svg" xmlns:xlink="http://www.w3.org/1999/xlink">
	<desc>
			Created with Pixso.
	</desc>
	<defs>
		<clipPath id="clip2_62778">
			<rect id="Huge-icon/interface/bulk/notification" rx="0.000000" width="23.000000" height="23.000000" transform="translate(10.500000 20.500000)" fill="white" fill-opacity="0"/>
		</clipPath>
	</defs>
	<rect id="Icon" rx="15.500000" width="43.000000" height="43.000000" transform="translate(0.500000 10.500000)" fill="#2D2D2D" fill-opacity="1.000000"/>
	<rect id="Component 5" rx="0.000000" width="23.000000" height="23.000000" transform="translate(10.500000 20.500000)" fill="#FFFFFF" fill-opacity="0"/>
	<g clip-path="url(#clip2_62778)">
		<path id="Ellipse 218" d="M25 38C24.56 39.16 23.38 40 22 40C20.61 40 19.43 39.16 19 38L25 38Z" fill="#FAFAFA" fill-opacity="1.000000" fill-rule="evenodd"/>
		<g opacity="0.400000">
			<path id="Rectangle 136" d="M15.67 29.79C16.05 26.49 18.77 24 22 24C25.22 24 27.94 26.49 28.32 29.79L28.66 32.83C28.75 33.59 29.05 34.3 29.54 34.87C30.57 36.09 29.73 38 28.16 38L15.83 38C14.26 38 13.42 36.09 14.45 34.87C14.94 34.3 15.25 33.59 15.33 32.83L15.67 29.79Z" fill="#FAFAFA" fill-opacity="1.000000" fill-rule="evenodd"/>
		</g>
	</g>
	<rect id="Component 6" rx="0.000000" width="23.000000" height="23.000000" transform="translate(28.500000 0.500000)" fill="#FFFFFF" fill-opacity="0"/>
	<path id="Vector" d="M40 22C45.52 22 50 17.52 50 12C50 11.09 49.88 10.21 49.65 9.38C49.56 9.06 49.19 8.94 48.9 9.07C48.06 9.47 47.12 9.59 46.21 9.43C45.3 9.27 44.46 8.83 43.81 8.18C43.16 7.53 42.72 6.69 42.56 5.78C42.4 4.87 42.52 3.93 42.92 3.09C43.05 2.8 42.93 2.43 42.61 2.34C41.76 2.11 40.88 1.99 40 2C34.47 2 30 6.47 30 12C30 13.59 30.37 15.11 31.04 16.45C31.22 16.8 31.27 17.21 31.17 17.6L30.58 19.82C30.52 20.04 30.52 20.27 30.58 20.49C30.64 20.71 30.75 20.92 30.91 21.08C31.08 21.24 31.28 21.35 31.5 21.41C31.72 21.47 31.95 21.47 32.17 21.41L34.39 20.82C34.78 20.72 35.19 20.77 35.54 20.95C36.93 21.64 38.45 22 40 22Z" fill="#23AFCE" fill-opacity="1.000000" fill-rule="nonzero"/>
	<path id="Vector" d="M50 5C50 6.65 48.65 8 47 8C45.34 8 44 6.65 44 5C44 3.34 45.34 2 47 2C48.65 2 50 3.34 50 5Z" fill="#23AFCE" fill-opacity="1.000000" fill-rule="evenodd"/>
	<path id="+99" d="M38.81 14.75L40.53 14.75L42.14 12.7C42.32 12.47 42.48 12.23 42.6 11.98C42.73 11.72 42.79 11.44 42.79 11.14Q42.79 10.45 42.48 9.98Q42.35 9.79 42.19 9.64Q41.96 9.42 41.65 9.29C41.31 9.13 40.93 9.05 40.52 9.05Q39.89 9.05 39.37 9.29C39.03 9.44 38.75 9.67 38.54 9.98Q38.24 10.45 38.24 11.14C38.24 11.43 38.29 11.68 38.39 11.9C38.49 12.13 38.63 12.32 38.79 12.48Q38.97 12.65 39.18 12.76Q39.26 12.8 39.34 12.84C39.55 12.92 39.76 12.96 39.97 12.96C40.17 12.96 40.34 12.94 40.47 12.9C40.48 12.89 40.48 12.89 40.48 12.89L38.81 14.75ZM44.17 14.75L45.88 14.75L47.49 12.7C47.68 12.47 47.83 12.23 47.95 11.98C48.08 11.72 48.14 11.44 48.14 11.14Q48.14 10.45 47.83 9.98Q47.7 9.79 47.54 9.64Q47.31 9.42 47.01 9.29C46.67 9.13 46.29 9.05 45.87 9.05Q45.24 9.05 44.72 9.29C44.38 9.44 44.1 9.67 43.89 9.98Q43.59 10.45 43.59 11.14C43.59 11.43 43.64 11.68 43.74 11.9C43.84 12.13 43.98 12.32 44.14 12.48Q44.32 12.65 44.54 12.76Q44.61 12.81 44.69 12.84C44.9 12.92 45.11 12.96 45.32 12.96C45.52 12.96 45.69 12.94 45.82 12.9C45.83 12.89 45.83 12.89 45.84 12.89L44.17 14.75ZM41.33 10.65C41.41 10.79 41.45 10.95 41.45 11.14Q41.45 11.39 41.36 11.58Q41.34 11.61 41.33 11.64C41.25 11.78 41.13 11.9 40.99 11.98C40.85 12.06 40.69 12.1 40.52 12.1C40.34 12.1 40.17 12.06 40.03 11.98C39.89 11.9 39.78 11.78 39.69 11.64C39.61 11.5 39.57 11.33 39.57 11.14Q39.57 10.86 39.69 10.65C39.78 10.5 39.89 10.39 40.03 10.32C40.17 10.24 40.34 10.2 40.52 10.2Q40.74 10.2 40.92 10.28Q40.96 10.3 40.99 10.32C41.13 10.39 41.25 10.5 41.33 10.65ZM46.68 10.65C46.76 10.79 46.81 10.95 46.81 11.14Q46.81 11.39 46.71 11.58Q46.69 11.61 46.68 11.64C46.6 11.78 46.49 11.9 46.34 11.98C46.2 12.06 46.05 12.1 45.87 12.1C45.69 12.1 45.53 12.06 45.38 11.98C45.24 11.9 45.13 11.78 45.05 11.64C44.97 11.5 44.93 11.33 44.93 11.14Q44.93 10.86 45.05 10.65C45.13 10.5 45.24 10.39 45.38 10.32C45.53 10.24 45.69 10.2 45.87 10.2Q46.09 10.2 46.28 10.28Q46.31 10.3 46.34 10.32C46.49 10.39 46.6 10.5 46.68 10.65ZM35.77 10.46L34.52 10.46L34.52 12.04L32.97 12.04L32.97 13.21L34.52 13.21L34.52 14.79L35.77 14.79L35.77 13.21L37.32 13.21L37.32 12.04L35.77 12.04L35.77 10.46Z" fill="#000000" fill-opacity="1.000000" fill-rule="evenodd"/>
</svg>
