<svg width="20.000000" height="20.000000" viewBox="0 0 20 20" fill="none" xmlns="http://www.w3.org/2000/svg" xmlns:xlink="http://www.w3.org/1999/xlink">
	<desc>
			Created with Pixso.
	</desc>
	<defs>
		<clipPath id="clip7_66383">
			<rect id="Huge-icon/interface/bulk/shopping bag" rx="0.000000" width="19.000000" height="19.000000" transform="translate(0.500000 0.500000)" fill="white" fill-opacity="0"/>
		</clipPath>
	</defs>
	<g clip-path="url(#clip7_66383)">
		<g opacity="0.400000">
			<path id="Rectangle 788" d="M3.65 7.71C3.95 6.14 5.33 5 6.93 5L13.06 5C14.67 5 16.04 6.14 16.34 7.71L17.59 14.38C17.97 16.43 16.4 18.33 14.31 18.33L5.68 18.33C3.59 18.33 2.02 16.43 2.4 14.38L3.65 7.71Z" fill="#2D2D2D" fill-opacity="1.000000" fill-rule="evenodd"/>
		</g>
		<path id="Rectangle 760 (Stroke)" d="M6.87 4.16C6.87 2.44 8.27 1.04 10 1.04C11.72 1.04 13.12 2.44 13.12 4.16L13.12 6.66C13.12 7.01 12.84 7.29 12.5 7.29C12.15 7.29 11.87 7.01 11.87 6.66L11.87 4.16C11.87 3.13 11.03 2.29 10 2.29C8.96 2.29 8.12 3.13 8.12 4.16L8.12 6.66C8.12 7.01 7.84 7.29 7.5 7.29C7.15 7.29 6.87 7.01 6.87 6.66L6.87 4.16Z" fill="#2D2D2D" fill-opacity="1.000000" fill-rule="evenodd"/>
	</g>
</svg>
