<svg width="24.000000" height="24.000000" viewBox="0 0 24 24" fill="none" xmlns="http://www.w3.org/2000/svg" xmlns:xlink="http://www.w3.org/1999/xlink">
	<desc>
			Created with Pixso.
	</desc>
	<defs/>
	<rect id="Property 1=Variant178" rx="0.000000" width="23.000000" height="23.000000" transform="translate(0.500000 0.500000)" fill="#FFFFFF" fill-opacity="0"/>
	<path id="Vector" d="M8.95 18C9.43 18 9.89 17.83 10.25 17.54L15.35 13.33C15.55 13.17 15.72 12.96 15.83 12.73C15.94 12.5 16 12.25 16 12C16 11.74 15.94 11.49 15.83 11.26C15.72 11.03 15.55 10.82 15.35 10.66L10.25 6.45C9.95 6.21 9.58 6.05 9.19 6.01C8.8 5.96 8.4 6.03 8.04 6.2C7.74 6.33 7.47 6.55 7.29 6.84C7.1 7.12 7 7.45 6.99 7.79L6.99 16.2C7 16.54 7.1 16.87 7.29 17.15C7.47 17.44 7.74 17.66 8.04 17.79C8.33 17.93 8.64 17.99 8.95 18ZM13.81 12L8.99 16L8.99 8.08L13.81 12Z" fill="#FAFAFA" fill-opacity="1.000000" fill-rule="nonzero"/>
</svg>
