<svg width="32.000000" height="32.000000" viewBox="0 0 32 32" fill="none" xmlns="http://www.w3.org/2000/svg" xmlns:xlink="http://www.w3.org/1999/xlink">
	<desc>
			Created with Pixso.
	</desc>
	<defs>
		<clipPath id="clip2_25192">
			<rect id="Huge-icon/interface/bulk/computer" rx="0.000000" width="31.000000" height="31.000000" transform="translate(0.500000 0.500000)" fill="white" fill-opacity="0"/>
		</clipPath>
	</defs>
	<g clip-path="url(#clip2_25192)">
		<path id="Vector 2464 (Stroke)" d="M16 21.66C16.55 21.66 17 22.11 17 22.66L17 27.33L20 27.33C20.55 27.33 21 27.78 21 28.33C21 28.88 20.55 29.33 20 29.33L12 29.33C11.44 29.33 11 28.88 11 28.33C11 27.78 11.44 27.33 12 27.33L15 27.33L15 22.66C15 22.11 15.44 21.66 16 21.66Z" fill="#2D2D2D" fill-opacity="1.000000" fill-rule="evenodd"/>
		<g opacity="0.400000">
			<path id="Rectangle 961" d="M2.66 6.66C2.66 4.45 4.45 2.66 6.66 2.66L25.33 2.66C27.54 2.66 29.33 4.45 29.33 6.66L29.33 20C29.33 22.2 27.54 24 25.33 24L6.66 24C4.45 24 2.66 22.2 2.66 20L2.66 6.66Z" fill="#2D2D2D" fill-opacity="1.000000" fill-rule="evenodd"/>
		</g>
		<path id="Vector" d="M25.33 24L6.66 24C4.45 24 2.66 22.2 2.66 20L2.66 18.66L29.33 18.66L29.33 20C29.33 22.2 27.54 24 25.33 24Z" fill="#2D2D2D" fill-opacity="1.000000" fill-rule="evenodd"/>
	</g>
</svg>
