<svg width="54.000000" height="44.000000" viewBox="0 0 54 44" fill="none" xmlns="http://www.w3.org/2000/svg" xmlns:xlink="http://www.w3.org/1999/xlink">
	<desc>
			Created with Pixso.
	</desc>
	<defs>
		<clipPath id="clip2_25293">
			<rect id="Huge-icon/interface/bulk/logout 01" rx="0.000000" width="23.000000" height="23.000000" transform="translate(15.500000 10.500000)" fill="white" fill-opacity="0"/>
		</clipPath>
	</defs>
	<rect id="Log_out" rx="11.500000" width="53.000000" height="43.000000" transform="translate(0.500000 0.500000)" fill="#2D2D2D" fill-opacity="1.000000"/>
	<g clip-path="url(#clip2_25293)">
		<path id="Union" d="M32.46 23.46C32.17 23.76 32.17 24.23 32.46 24.53C32.76 24.82 33.23 24.82 33.53 24.53L34.82 23.23C35.5 22.55 35.5 21.44 34.82 20.76L33.53 19.46C33.23 19.17 32.76 19.17 32.46 19.46C32.17 19.76 32.17 20.23 32.46 20.53L33.18 21.25L28 21.25C27.58 21.25 27.25 21.58 27.25 22C27.25 22.41 27.58 22.75 28 22.75L33.18 22.75L32.46 23.46Z" fill="#FAFAFA" fill-opacity="1.000000" fill-rule="evenodd"/>
		<path id="Vector (Stroke)" d="M26 14.51L29 14.51C30.51 14.51 31.75 15.74 31.75 17.26C31.75 17.67 31.41 18.01 31 18.01C30.58 18.01 30.25 17.67 30.25 17.26C30.25 16.57 29.68 16.01 29 16.01L26 16.01L26 14.51ZM31 26.51C31.41 26.51 31.75 26.85 31.75 27.26C31.75 28.78 30.51 30.01 29 30.01L26 30.01L26 28.51L29 28.51C29.68 28.51 30.25 27.95 30.25 27.26C30.25 26.85 30.58 26.51 31 26.51Z" fill="#FAFAFA" fill-opacity="1.000000" fill-rule="evenodd"/>
		<g opacity="0.400000">
			<path id="Vector" d="M18 15.99C18 15.27 18.38 14.6 19.01 14.2L22.44 12.36C23.96 11.41 26 12.43 26 14.16L26 29.83C26 31.56 23.96 32.58 22.44 31.63L19.01 29.79C18.38 29.39 18 28.72 18 28L18 15.99Z" fill="#FAFAFA" fill-opacity="1.000000" fill-rule="evenodd"/>
		</g>
	</g>
	<rect id="Log_out" rx="11.500000" width="53.000000" height="43.000000" transform="translate(0.500000 0.500000)" stroke="#F6F6F6" stroke-opacity="1.000000" stroke-width="1.000000"/>
</svg>
