<svg width="24" height="24" viewBox="0 0 24 24" fill="none" xmlns="http://www.w3.org/2000/svg">
<path d="M12 22C17.523 22 22 17.523 22 12C22 11.094 21.88 10.216 21.654 9.382C21.568 9.066 21.199 8.941 20.903 9.079C20.0658 9.47027 19.1284 9.59428 18.2182 9.43419C17.3081 9.27409 16.4693 8.83767 15.8158 8.1842C15.1623 7.53074 14.7259 6.69193 14.5658 5.78177C14.4057 4.87161 14.5297 3.93422 14.921 3.097C15.059 2.801 14.934 2.432 14.618 2.347C13.7645 2.11611 12.8842 1.99942 12 2C6.477 2 2 6.477 2 12C2 13.6 2.376 15.112 3.043 16.453C3.221 16.809 3.28 17.216 3.177 17.601L2.582 19.827C2.52307 20.0473 2.52312 20.2792 2.58216 20.4995C2.64119 20.7197 2.75712 20.9206 2.91831 21.0819C3.07951 21.2432 3.2803 21.3593 3.50053 21.4184C3.72075 21.4776 3.95267 21.4778 4.173 21.419L6.399 20.823C6.78538 20.7254 7.19414 20.7727 7.548 20.956C8.93095 21.6446 10.4551 22.002 12 22Z" fill="#2D2D2D"/>
<path d="M19 8C20.6569 8 22 6.65685 22 5C22 3.34315 20.6569 2 19 2C17.3431 2 16 3.34315 16 5C16 6.65685 17.3431 8 19 8Z" fill="#2D2D2D"/>
</svg>
