<svg width="32" height="32" viewBox="0 0 32 32" fill="none" xmlns="http://www.w3.org/2000/svg">
<path d="M7.99984 10.6667H5.33317C3.86041 10.6667 2.6665 11.8606 2.6665 13.3333V25.3333C2.6665 26.8061 3.86041 28 5.33317 28H7.99984C9.4726 28 10.6665 26.8061 10.6665 25.3333V13.3333C10.6665 11.8606 9.4726 10.6667 7.99984 10.6667Z" fill="#2D2D2D"/>
<path opacity="0.4" d="M21.169 28H16.2813C15.2284 28 14.199 27.6883 13.3229 27.1043L11.2602 25.7292C10.8893 25.4819 10.6665 25.0656 10.6665 24.6198V13.6874C10.6665 13.4554 10.7271 13.2274 10.8422 13.0259L15.7119 4.50386C15.89 4.19229 16.2213 4 16.5802 4H17.7714C20.4338 4 22.0217 6.96715 20.5449 9.18233L18.6665 12H25.9178C27.6526 12 28.9256 13.6304 28.5048 15.3134L26.3431 23.9602C25.7496 26.3344 23.6163 28 21.169 28Z" fill="#2D2D2D"/>
</svg>
