<svg width="32" height="32" viewBox="0 0 32 32" fill="none" xmlns="http://www.w3.org/2000/svg">
<path opacity="0.4" d="M8 5.33332V13.3333C8 14.8061 9.19391 16 10.6667 16H26.6667C28.1394 16 29.3333 14.8061 29.3333 13.3333V5.33332C29.3333 3.86056 28.1394 2.66666 26.6667 2.66666H10.6667C9.19391 2.66666 8 3.86056 8 5.33332Z" fill="#2D2D2D"/>
<path fill-rule="evenodd" clip-rule="evenodd" d="M23.236 11.1779C23.6901 11.4923 23.8034 12.1152 23.489 12.5693L16.9198 20.7248L15.2754 19.5864L21.8446 11.4309C22.159 10.9768 22.7819 10.8635 23.236 11.1779Z" fill="#2D2D2D"/>
<ellipse cx="6.66667" cy="12" rx="2.66667" ry="2.66667" fill="#2D2D2D"/>
<path d="M10.6665 20V20.6667L14.9902 18.4C15.9088 17.8155 17.1286 18.1035 17.6887 19.0371C18.2316 19.9418 17.9497 21.1147 17.055 21.6739L11.6855 24.5298C11.3644 24.7305 11.0177 24.8543 10.6665 24.9066V28.3333C10.6665 28.8856 10.2188 29.3333 9.6665 29.3333H3.6665C3.11422 29.3333 2.6665 28.8856 2.6665 28.3333V20C2.6665 17.7909 4.45737 16 6.6665 16C8.87564 16 10.6665 17.7909 10.6665 20Z" fill="#2D2D2D"/>
<path fill-rule="evenodd" clip-rule="evenodd" d="M12.333 8C12.333 7.44772 12.7807 7 13.333 7L23.9997 7C24.552 7 24.9997 7.44772 24.9997 8C24.9997 8.55228 24.552 9 23.9997 9L13.333 9C12.7807 9 12.333 8.55228 12.333 8Z" fill="#2D2D2D"/>
<path fill-rule="evenodd" clip-rule="evenodd" d="M12.333 12C12.333 11.4477 12.7807 11 13.333 11L18.6663 11C19.2186 11 19.6663 11.4477 19.6663 12C19.6663 12.5523 19.2186 13 18.6663 13L13.333 13C12.7807 13 12.333 12.5523 12.333 12Z" fill="#2D2D2D"/>
</svg>
