<svg width="32" height="32" viewBox="0 0 32 32" fill="none" xmlns="http://www.w3.org/2000/svg">
<path fill-rule="evenodd" clip-rule="evenodd" d="M20.3846 5.01737C20.5592 4.49343 21.1256 4.21027 21.6495 4.38492L21.8548 4.45334C24.5422 5.34915 26.6511 7.45799 27.5469 10.1454L27.6153 10.3507C27.7899 10.8746 27.5068 11.441 26.9828 11.6156C26.4589 11.7903 25.8926 11.5071 25.7179 10.9832L25.6495 10.7779C24.9528 8.68766 23.3126 7.04745 21.2223 6.3507L21.0171 6.28228C20.4931 6.10764 20.2099 5.54131 20.3846 5.01737Z" fill="#2D2D2D"/>
<path d="M16 28C17.8467 28 19.4178 26.8869 20 25.3333H12C12.5822 26.8869 14.1533 28 16 28Z" fill="#2D2D2D"/>
<path opacity="0.4" d="M7.57301 14.3921C8.07192 9.98781 11.6948 6.66667 16.0002 6.66667C20.3056 6.66667 23.9284 9.98781 24.4273 14.3921L24.8872 18.4513C25.0014 19.46 25.4102 20.4092 26.0595 21.1734C27.4374 22.7952 26.3191 25.3333 24.2267 25.3333H7.77368C5.68125 25.3333 4.56294 22.7952 5.94082 21.1734C6.59011 20.4092 6.99891 19.46 7.11317 18.4513L7.57301 14.3921Z" fill="#2D2D2D"/>
<path fill-rule="evenodd" clip-rule="evenodd" d="M11.6154 5.01737C11.4408 4.49343 10.8744 4.21027 10.3505 4.38492L10.1452 4.45334C7.45778 5.34915 5.34894 7.45799 4.45313 10.1454L4.3847 10.3507C4.21006 10.8746 4.49322 11.441 5.01716 11.6156C5.5411 11.7903 6.10742 11.5071 6.28207 10.9832L6.35049 10.7779C7.04724 8.68766 8.68745 7.04745 10.7777 6.3507L10.9829 6.28228C11.5069 6.10764 11.7901 5.54131 11.6154 5.01737Z" fill="#2D2D2D"/>
</svg>
