<svg width="32" height="32" viewBox="0 0 32 32" fill="none" xmlns="http://www.w3.org/2000/svg">
<path fill-rule="evenodd" clip-rule="evenodd" d="M16 21.6667C16.5523 21.6667 17 22.1144 17 22.6667V27.3333H20C20.5523 27.3333 21 27.781 21 28.3333C21 28.8856 20.5523 29.3333 20 29.3333H12C11.4477 29.3333 11 28.8856 11 28.3333C11 27.781 11.4477 27.3333 12 27.3333H15V22.6667C15 22.1144 15.4477 21.6667 16 21.6667Z" fill="#2D2D2D"/>
<path opacity="0.4" d="M2.6665 6.66666C2.6665 4.45752 4.45737 2.66666 6.6665 2.66666H25.3332C27.5423 2.66666 29.3332 4.45752 29.3332 6.66666V20C29.3332 22.2091 27.5423 24 25.3332 24H6.6665C4.45736 24 2.6665 22.2091 2.6665 20V6.66666Z" fill="#2D2D2D"/>
<path d="M6.6665 24H25.3332C27.5423 24 29.3332 22.2091 29.3332 20V18.6667H2.6665V20C2.6665 22.2091 4.45736 24 6.6665 24Z" fill="#2D2D2D"/>
</svg>
