<svg width="173" height="104" viewBox="0 0 173 104" fill="none" xmlns="http://www.w3.org/2000/svg">
<path d="M0 14C0 7.37259 5.37258 2 12 2H161C167.627 2 173 7.37258 173 14V91C173 97.6274 167.627 103 161 103H12C5.37259 103 0 97.6274 0 91V14Z" fill="#FAFAFA"/>
<path d="M25.768 85.042L23.318 91.58H21.47L25.782 81.71L30.08 91.58H28.232L25.768 85.042ZM29.422 92H22.128V93.54H20.56V90.516H30.99V93.54H29.422V92ZM32.0971 88.78C32.0971 88.1173 32.2464 87.534 32.5451 87.03C32.8531 86.526 33.2684 86.134 33.7911 85.854C34.3138 85.5647 34.9064 85.42 35.5691 85.42C36.2318 85.42 36.8198 85.5647 37.3331 85.854C37.8558 86.134 38.2711 86.526 38.5791 87.03C38.8871 87.534 39.0411 88.1173 39.0411 88.78C39.0411 89.4333 38.8871 90.0167 38.5791 90.53C38.2711 91.034 37.8558 91.4307 37.3331 91.72C36.8198 92 36.2318 92.14 35.5691 92.14C34.9064 92.14 34.3138 92 33.7911 91.72C33.2684 91.4307 32.8531 91.034 32.5451 90.53C32.2464 90.0167 32.0971 89.4333 32.0971 88.78ZM33.6511 88.78C33.6511 89.1813 33.7351 89.536 33.9031 89.844C34.0711 90.1427 34.2998 90.3807 34.5891 90.558C34.8784 90.726 35.2051 90.81 35.5691 90.81C35.9238 90.81 36.2458 90.726 36.5351 90.558C36.8338 90.3807 37.0671 90.1427 37.2351 89.844C37.4031 89.536 37.4871 89.1813 37.4871 88.78C37.4871 88.3787 37.4031 88.024 37.2351 87.716C37.0671 87.408 36.8338 87.17 36.5351 87.002C36.2458 86.834 35.9238 86.75 35.5691 86.75C35.2051 86.75 34.8784 86.834 34.5891 87.002C34.2998 87.17 34.0711 87.408 33.9031 87.716C33.7351 88.024 33.6511 88.3787 33.6511 88.78ZM43.5418 86.75L43.6118 85.42C44.2651 85.42 44.8484 85.5647 45.3618 85.854C45.8751 86.1433 46.2764 86.54 46.5658 87.044C46.8644 87.548 47.0138 88.1267 47.0138 88.78C47.0138 89.424 46.8644 90.0027 46.5658 90.516C46.2671 91.02 45.8564 91.4167 45.3338 91.706C44.8204 91.9953 44.2231 92.14 43.5418 92.14C42.8698 92.14 42.2631 91.986 41.7218 91.678C41.1898 91.3607 40.7698 90.8893 40.4618 90.264C40.1538 89.6387 39.9998 88.864 39.9998 87.94L41.6098 88.78C41.6098 89.1813 41.6938 89.536 41.8618 89.844C42.0391 90.1427 42.2724 90.3807 42.5618 90.558C42.8511 90.726 43.1778 90.81 43.5418 90.81C43.9058 90.81 44.2324 90.726 44.5218 90.558C44.8111 90.3807 45.0398 90.1427 45.2078 89.844C45.3758 89.536 45.4598 89.1813 45.4598 88.78C45.4598 88.3787 45.3758 88.024 45.2078 87.716C45.0398 87.408 44.8111 87.17 44.5218 87.002C44.2324 86.834 43.9058 86.75 43.5418 86.75ZM40.9238 88.78C40.9238 88.2573 40.9891 87.7907 41.1198 87.38C41.2504 86.96 41.4324 86.6053 41.6658 86.316C41.9084 86.0267 42.1931 85.8073 42.5198 85.658C42.8464 85.4993 43.2104 85.42 43.6118 85.42L43.5418 86.75C43.3178 86.75 43.0891 86.7967 42.8558 86.89C42.6318 86.974 42.4264 87.1047 42.2398 87.282C42.0531 87.45 41.8991 87.66 41.7778 87.912C41.6658 88.164 41.6098 88.4533 41.6098 88.78H40.9238ZM39.9998 87.94C39.9998 87.0627 40.0791 86.288 40.2378 85.616C40.4058 84.944 40.6951 84.3747 41.1058 83.908C41.5258 83.432 42.1044 83.0587 42.8418 82.788C43.4764 82.5547 43.9571 82.298 44.2838 82.018C44.6104 81.7287 44.8064 81.416 44.8718 81.08H46.3418C46.2951 81.4907 46.1458 81.8733 45.8938 82.228C45.6418 82.5827 45.3104 82.8953 44.8998 83.166C44.4984 83.4273 44.0411 83.6467 43.5278 83.824C42.9491 84.0293 42.4964 84.3093 42.1698 84.664C41.8524 85.0187 41.6331 85.42 41.5118 85.868C41.3904 86.316 41.3298 86.7733 41.3298 87.24L41.4698 88.71L39.9998 87.94ZM49.4258 90.096C49.4258 90.292 49.4771 90.4553 49.5798 90.586C49.6918 90.7167 49.8365 90.8193 50.0138 90.894C50.1911 90.9593 50.3918 90.992 50.6158 90.992C50.9425 90.992 51.2365 90.9407 51.4978 90.838C51.7591 90.7353 51.9645 90.572 52.1138 90.348C52.2631 90.124 52.3378 89.8253 52.3378 89.452L52.5618 90.18C52.5618 90.5907 52.4545 90.9453 52.2398 91.244C52.0251 91.5333 51.7358 91.7573 51.3718 91.916C51.0078 92.0653 50.6018 92.14 50.1538 92.14C49.7338 92.14 49.3511 92.0653 49.0058 91.916C48.6698 91.7667 48.3991 91.5473 48.1938 91.258C47.9978 90.9593 47.8998 90.5907 47.8998 90.152C47.8998 89.7133 48.0118 89.3353 48.2358 89.018C48.4598 88.7007 48.7771 88.458 49.1878 88.29C49.6078 88.122 50.0978 88.038 50.6578 88.038C51.0311 88.038 51.3625 88.0847 51.6518 88.178C51.9505 88.2713 52.1978 88.3787 52.3938 88.5C52.5898 88.6213 52.7251 88.7287 52.7998 88.822V89.62C52.5105 89.4053 52.2165 89.2513 51.9178 89.158C51.6191 89.0553 51.2738 89.004 50.8818 89.004C50.5645 89.004 50.2938 89.0507 50.0698 89.144C49.8551 89.228 49.6918 89.354 49.5798 89.522C49.4771 89.6807 49.4258 89.872 49.4258 90.096ZM49.0898 87.254L48.4878 86.176C48.7771 85.9987 49.1458 85.826 49.5938 85.658C50.0418 85.49 50.5551 85.406 51.1338 85.406C51.6658 85.406 52.1325 85.4853 52.5338 85.644C52.9351 85.8027 53.2478 86.0313 53.4718 86.33C53.7051 86.6193 53.8218 86.9787 53.8218 87.408V92H52.3378V87.576C52.3378 87.2773 52.2118 87.0487 51.9598 86.89C51.7171 86.722 51.4185 86.638 51.0638 86.638C50.7558 86.638 50.4711 86.6753 50.2098 86.75C49.9485 86.8247 49.7198 86.9133 49.5238 87.016C49.3371 87.1093 49.1925 87.1887 49.0898 87.254ZM56.5629 88.64H58.6069C59.0549 88.64 59.4562 88.6867 59.8109 88.78C60.1655 88.8733 60.4455 89.0367 60.6509 89.27C60.8562 89.5033 60.9589 89.83 60.9589 90.25C60.9589 90.7353 60.7955 91.1507 60.4689 91.496C60.1515 91.832 59.6242 92 58.8869 92H56.5629V90.88H58.4249C58.7982 90.88 59.0689 90.8007 59.2369 90.642C59.4049 90.4833 59.4889 90.2967 59.4889 90.082C59.4889 89.97 59.4655 89.8673 59.4189 89.774C59.3722 89.6807 59.3069 89.5967 59.2229 89.522C59.1482 89.4473 59.0409 89.3913 58.9009 89.354C58.7702 89.3167 58.6115 89.298 58.4249 89.298H56.5629V88.64ZM56.5629 88.92V88.192H58.2849C58.4249 88.192 58.5509 88.1733 58.6629 88.136C58.7842 88.0987 58.8822 88.0427 58.9569 87.968C59.0315 87.8933 59.0922 87.8093 59.1389 87.716C59.1855 87.6227 59.2089 87.5247 59.2089 87.422C59.2089 87.2073 59.1249 87.03 58.9569 86.89C58.7982 86.75 58.5742 86.68 58.2849 86.68H56.5629V85.56H58.4669C58.8682 85.56 59.2322 85.6207 59.5589 85.742C59.8949 85.854 60.1655 86.0407 60.3709 86.302C60.5762 86.554 60.6789 86.89 60.6789 87.31C60.6789 87.674 60.5762 87.9773 60.3709 88.22C60.1655 88.4533 59.8949 88.6307 59.5589 88.752C59.2322 88.864 58.8682 88.92 58.4669 88.92H56.5629ZM55.6809 85.56H57.1649V92H55.6809V85.56ZM68.1888 86.96L62.4068 92.49L62.4768 90.6L68.2588 85.07L68.1888 86.96ZM63.8908 85.56V90.782L62.4068 92.49V85.56H63.8908ZM68.2588 85.07V92H66.7748V86.778L68.2588 85.07ZM69.3571 85.56H73.4311V86.89H69.3571V85.56ZM70.6591 85.84H72.1431V92H70.6591V85.84ZM74.492 85.56H76.018V92H74.492V85.56ZM75.556 89.032V87.898H77.558C78.2207 87.898 78.776 88.0613 79.224 88.388C79.6814 88.7053 79.91 89.2093 79.91 89.9C79.91 90.3573 79.8074 90.7447 79.602 91.062C79.3967 91.37 79.1167 91.6033 78.762 91.762C78.4074 91.9207 78.006 92 77.558 92H75.556V90.754H77.404C77.628 90.754 77.8147 90.7213 77.964 90.656C78.1227 90.5907 78.2394 90.4927 78.314 90.362C78.398 90.2313 78.44 90.0773 78.44 89.9C78.44 89.62 78.3514 89.4053 78.174 89.256C78.006 89.1067 77.7494 89.032 77.404 89.032H75.556ZM86.7367 88.64H88.7807C89.2287 88.64 89.63 88.6867 89.9847 88.78C90.3394 88.8733 90.6194 89.0367 90.8247 89.27C91.03 89.5033 91.1327 89.83 91.1327 90.25C91.1327 90.7353 90.9694 91.1507 90.6427 91.496C90.3254 91.832 89.798 92 89.0607 92H86.7367V90.88H88.5987C88.972 90.88 89.2427 90.8007 89.4107 90.642C89.5787 90.4833 89.6627 90.2967 89.6627 90.082C89.6627 89.97 89.6394 89.8673 89.5927 89.774C89.546 89.6807 89.4807 89.5967 89.3967 89.522C89.322 89.4473 89.2147 89.3913 89.0747 89.354C88.944 89.3167 88.7854 89.298 88.5987 89.298H86.7367V88.64ZM86.7367 88.92V88.192H88.4587C88.5987 88.192 88.7247 88.1733 88.8367 88.136C88.958 88.0987 89.056 88.0427 89.1307 87.968C89.2054 87.8933 89.266 87.8093 89.3127 87.716C89.3594 87.6227 89.3827 87.5247 89.3827 87.422C89.3827 87.2073 89.2987 87.03 89.1307 86.89C88.972 86.75 88.748 86.68 88.4587 86.68H86.7367V85.56H88.6407C89.042 85.56 89.406 85.6207 89.7327 85.742C90.0687 85.854 90.3394 86.0407 90.5447 86.302C90.75 86.554 90.8527 86.89 90.8527 87.31C90.8527 87.674 90.75 87.9773 90.5447 88.22C90.3394 88.4533 90.0687 88.6307 89.7327 88.752C89.406 88.864 89.042 88.92 88.6407 88.92H86.7367ZM85.8547 85.56H87.3387V92H85.8547V85.56ZM98.3626 86.96L92.5806 92.49L92.6506 90.6L98.4326 85.07L98.3626 86.96ZM94.0646 85.56V90.782L92.5806 92.49V85.56H94.0646ZM98.4326 85.07V92H96.9486V86.778L98.4326 85.07ZM104.151 87.73L102.401 91.58L100.833 91.412L104.151 85.07L107.469 91.412L105.901 91.58L104.151 87.73ZM106.811 92H101.561V93.26H100.021V90.712H108.281V93.26H106.811V92ZM110.28 89.13V88.094H114.326C114.289 87.786 114.205 87.52 114.074 87.296C113.953 87.0627 113.78 86.8853 113.556 86.764C113.332 86.6333 113.057 86.568 112.73 86.568C112.394 86.568 112.091 86.6427 111.82 86.792C111.55 86.932 111.335 87.142 111.176 87.422C111.018 87.6927 110.938 88.0147 110.938 88.388L110.91 88.78C110.91 89.256 110.985 89.6527 111.134 89.97C111.293 90.278 111.508 90.5113 111.778 90.67C112.058 90.8193 112.38 90.894 112.744 90.894C113.043 90.894 113.304 90.852 113.528 90.768C113.762 90.684 113.967 90.5673 114.144 90.418C114.322 90.2593 114.471 90.0773 114.592 89.872L115.894 90.404C115.68 90.7493 115.432 91.0527 115.152 91.314C114.882 91.5753 114.546 91.7807 114.144 91.93C113.752 92.07 113.262 92.14 112.674 92.14C112.012 92.14 111.433 91.9953 110.938 91.706C110.444 91.4167 110.061 91.02 109.79 90.516C109.52 90.0027 109.384 89.424 109.384 88.78C109.384 88.6587 109.389 88.542 109.398 88.43C109.408 88.318 109.422 88.206 109.44 88.094C109.534 87.562 109.72 87.0953 110 86.694C110.29 86.2927 110.668 85.98 111.134 85.756C111.601 85.532 112.138 85.42 112.744 85.42C113.407 85.42 113.976 85.5553 114.452 85.826C114.938 86.0873 115.311 86.4653 115.572 86.96C115.834 87.4453 115.964 88.0287 115.964 88.71C115.964 88.766 115.964 88.8313 115.964 88.906C115.964 88.9713 115.955 89.046 115.936 89.13H110.28ZM116.931 88.78C116.931 88.1173 117.08 87.534 117.379 87.03C117.687 86.526 118.102 86.134 118.625 85.854C119.148 85.5647 119.74 85.42 120.403 85.42C121.066 85.42 121.654 85.5647 122.167 85.854C122.69 86.134 123.105 86.526 123.413 87.03C123.721 87.534 123.875 88.1173 123.875 88.78C123.875 89.4333 123.721 90.0167 123.413 90.53C123.105 91.034 122.69 91.4307 122.167 91.72C121.654 92 121.066 92.14 120.403 92.14C119.74 92.14 119.148 92 118.625 91.72C118.102 91.4307 117.687 91.034 117.379 90.53C117.08 90.0167 116.931 89.4333 116.931 88.78ZM118.485 88.78C118.485 89.1813 118.569 89.536 118.737 89.844C118.905 90.1427 119.134 90.3807 119.423 90.558C119.712 90.726 120.039 90.81 120.403 90.81C120.758 90.81 121.08 90.726 121.369 90.558C121.668 90.3807 121.901 90.1427 122.069 89.844C122.237 89.536 122.321 89.1813 122.321 88.78C122.321 88.3787 122.237 88.024 122.069 87.716C121.901 87.408 121.668 87.17 121.369 87.002C121.08 86.834 120.758 86.75 120.403 86.75C120.039 86.75 119.712 86.834 119.423 87.002C119.134 87.17 118.905 87.408 118.737 87.716C118.569 88.024 118.485 88.3787 118.485 88.78ZM130.803 85.56L126.603 95.08H124.993L126.673 91.244L124.083 85.56H125.819L127.877 90.656L127.163 90.614L129.179 85.56H130.803ZM133.178 95.08H131.652V85.56H133.178V95.08ZM138.512 88.78C138.512 89.4893 138.368 90.1007 138.078 90.614C137.789 91.118 137.406 91.5053 136.93 91.776C136.454 92.0373 135.936 92.168 135.376 92.168C134.826 92.168 134.345 92.0327 133.934 91.762C133.533 91.482 133.22 91.09 132.996 90.586C132.782 90.0727 132.674 89.4707 132.674 88.78C132.674 88.08 132.782 87.478 132.996 86.974C133.22 86.47 133.533 86.0827 133.934 85.812C134.345 85.532 134.826 85.392 135.376 85.392C135.936 85.392 136.454 85.5273 136.93 85.798C137.406 86.0593 137.789 86.442 138.078 86.946C138.368 87.45 138.512 88.0613 138.512 88.78ZM136.944 88.78C136.944 88.3507 136.856 87.9867 136.678 87.688C136.501 87.38 136.263 87.1513 135.964 87.002C135.675 86.8433 135.353 86.764 134.998 86.764C134.709 86.764 134.424 86.8433 134.144 87.002C133.864 87.1513 133.631 87.3753 133.444 87.674C133.267 87.9727 133.178 88.3413 133.178 88.78C133.178 89.2187 133.267 89.5873 133.444 89.886C133.631 90.1847 133.864 90.4133 134.144 90.572C134.424 90.7213 134.709 90.796 134.998 90.796C135.353 90.796 135.675 90.7213 135.964 90.572C136.263 90.4133 136.501 90.1847 136.678 89.886C136.856 89.578 136.944 89.2093 136.944 88.78ZM139.462 88.78C139.462 88.1173 139.612 87.534 139.91 87.03C140.218 86.526 140.634 86.134 141.156 85.854C141.679 85.5647 142.272 85.42 142.934 85.42C143.597 85.42 144.185 85.5647 144.698 85.854C145.221 86.134 145.636 86.526 145.944 87.03C146.252 87.534 146.406 88.1173 146.406 88.78C146.406 89.4333 146.252 90.0167 145.944 90.53C145.636 91.034 145.221 91.4307 144.698 91.72C144.185 92 143.597 92.14 142.934 92.14C142.272 92.14 141.679 92 141.156 91.72C140.634 91.4307 140.218 91.034 139.91 90.53C139.612 90.0167 139.462 89.4333 139.462 88.78ZM141.016 88.78C141.016 89.1813 141.1 89.536 141.268 89.844C141.436 90.1427 141.665 90.3807 141.954 90.558C142.244 90.726 142.57 90.81 142.934 90.81C143.289 90.81 143.611 90.726 143.9 90.558C144.199 90.3807 144.432 90.1427 144.6 89.844C144.768 89.536 144.852 89.1813 144.852 88.78C144.852 88.3787 144.768 88.024 144.6 87.716C144.432 87.408 144.199 87.17 143.9 87.002C143.611 86.834 143.289 86.75 142.934 86.75C142.57 86.75 142.244 86.834 141.954 87.002C141.665 87.17 141.436 87.408 141.268 87.716C141.1 88.024 141.016 88.3787 141.016 88.78ZM147.785 85.56H149.269V92H147.785V85.56ZM151.635 85.56H153.483L150.711 88.22L153.763 92H151.929L148.849 88.22L151.635 85.56Z" fill="#6F6D73"/>
<g filter="url(#filter0_dd_7751_33239)">
<rect x="63" y="18" width="48" height="48" rx="24" fill="white"/>
<path opacity="0.4" d="M85 36C85 34.8954 85.8954 34 87 34C88.1046 34 89 34.8954 89 36V48C89 49.1046 88.1046 50 87 50C85.8954 50 85 49.1046 85 48V36Z" fill="#FFD02C"/>
<path d="M93 40C94.1046 40 95 40.8954 95 42C95 43.1046 94.1046 44 93 44L81 44C79.8954 44 79 43.1046 79 42C79 40.8954 79.8954 40 81 40L93 40Z" fill="#FFD02C"/>
</g>
<defs>
<filter id="filter0_dd_7751_33239" x="35" y="0" width="104" height="104" filterUnits="userSpaceOnUse" color-interpolation-filters="sRGB">
<feFlood flood-opacity="0" result="BackgroundImageFix"/>
<feColorMatrix in="SourceAlpha" type="matrix" values="0 0 0 0 0 0 0 0 0 0 0 0 0 0 0 0 0 0 127 0" result="hardAlpha"/>
<feMorphology radius="4" operator="erode" in="SourceAlpha" result="effect1_dropShadow_7751_33239"/>
<feOffset dy="10"/>
<feGaussianBlur stdDeviation="16"/>
<feColorMatrix type="matrix" values="0 0 0 0 0.0941176 0 0 0 0 0.152941 0 0 0 0 0.294118 0 0 0 0.1 0"/>
<feBlend mode="normal" in2="BackgroundImageFix" result="effect1_dropShadow_7751_33239"/>
<feColorMatrix in="SourceAlpha" type="matrix" values="0 0 0 0 0 0 0 0 0 0 0 0 0 0 0 0 0 0 127 0" result="hardAlpha"/>
<feMorphology radius="6" operator="erode" in="SourceAlpha" result="effect2_dropShadow_7751_33239"/>
<feOffset dy="6"/>
<feGaussianBlur stdDeviation="7"/>
<feColorMatrix type="matrix" values="0 0 0 0 0.0941176 0 0 0 0 0.152941 0 0 0 0 0.294118 0 0 0 0.12 0"/>
<feBlend mode="normal" in2="effect1_dropShadow_7751_33239" result="effect2_dropShadow_7751_33239"/>
<feBlend mode="normal" in="SourceGraphic" in2="effect2_dropShadow_7751_33239" result="shape"/>
</filter>
</defs>
</svg>
